<svg width="15" height="16" viewBox="0 0 15 16" fill="none" xmlns="http://www.w3.org/2000/svg">
<path d="M14.4289 7.77778H11.7658L13.4388 6.11501C13.5262 6.02817 13.5262 5.88748 13.4388 5.79947C13.3513 5.71341 13.2093 5.71341 13.121 5.79947L11.13 7.77778H8.22921L12.6135 3.42378C12.7005 3.33654 12.7005 3.19508 12.6135 3.10824C12.5249 3.02218 12.3824 3.02218 12.295 3.10824L7.91116 7.46224V4.58255L9.90152 2.60424C9.98937 2.51632 9.98937 2.37593 9.90152 2.28801C9.81368 2.20078 9.67121 2.20078 9.58376 2.28801L7.91116 3.95039V1.30508C7.91116 1.1827 7.8103 1.08215 7.68666 1.08215C7.56303 1.08215 7.46138 1.1827 7.46138 1.30508V3.94961L5.78878 2.28792C5.70054 2.20068 5.55807 2.20068 5.47032 2.28792C5.38327 2.37583 5.38327 2.51622 5.47032 2.60414L7.46138 4.58059V7.46224L3.07741 3.10834C2.98956 3.02228 2.84749 3.02228 2.75965 3.10834C2.6722 3.19517 2.6722 3.33664 2.75965 3.42387L7.14352 7.77787H4.24513L2.2521 5.80074C2.16425 5.71468 2.02218 5.71351 1.93365 5.80074C1.84541 5.88866 1.84541 6.03022 1.93365 6.11628L3.60892 7.77797H0.943396C0.818579 7.77797 0.718903 7.87813 0.718903 8.0005C0.718903 8.12406 0.818677 8.22421 0.943396 8.22421H3.60655L1.93355 9.8859C1.84531 9.97313 1.84531 10.1146 1.93355 10.2014C1.97742 10.2446 2.0348 10.2676 2.09297 10.2676C2.14956 10.2676 2.20813 10.2447 2.252 10.2014L4.24306 8.22431H7.14342L2.75965 12.5773C2.6722 12.6634 2.6722 12.8056 2.75965 12.8936C2.80392 12.9367 2.86051 12.9578 2.91947 12.9578C2.97645 12.9578 3.03344 12.9356 3.07771 12.8936L7.46118 8.53887V11.4174L5.47121 13.3976C5.38337 13.4845 5.38337 13.626 5.47121 13.7139C5.55945 13.7991 5.70113 13.7999 5.78897 13.7139L7.46118 12.0503V14.6959C7.46118 14.8183 7.56283 14.9185 7.68647 14.9185C7.8101 14.9185 7.91096 14.8183 7.91096 14.6959V12.0514L9.58475 13.7131C9.62862 13.756 9.6864 13.7781 9.74338 13.7781C9.80116 13.7781 9.85893 13.7559 9.9032 13.7131C9.99025 13.6259 9.99025 13.4844 9.9032 13.3976L7.91096 11.4192V8.53877L12.2948 12.8935C12.3391 12.9366 12.3965 12.9577 12.4546 12.9577C12.5116 12.9577 12.5694 12.9355 12.6133 12.8935C12.7011 12.8055 12.7011 12.6632 12.6133 12.5772L8.22902 8.22401H11.1278L13.1208 10.2005C13.1651 10.2444 13.2229 10.2655 13.2795 10.2655C13.3372 10.2655 13.395 10.2444 13.4389 10.2005C13.5271 10.1125 13.5271 9.97176 13.4389 9.88385L11.7644 8.22411H14.4294C14.5535 8.22411 14.6539 8.12396 14.6539 8.0004C14.6542 7.87803 14.5529 7.77778 14.4289 7.77778Z" fill="white" stroke="white" stroke-width="0.5"/>
</svg>
