<svg width="30" height="33" viewBox="0 0 30 33" fill="none" xmlns="http://www.w3.org/2000/svg">
<path d="M29.0087 28.7925L17.2012 14.0989C19.0034 11.0481 18.8169 7.12561 16.5176 4.2616C13.5346 0.525922 8.06586 -0.0966905 4.27502 2.89185C0.484183 5.88039 -0.075122 11.3594 2.90783 15.1573C5.2072 18.0836 8.99803 19.0798 12.3539 18.0213L14.6532 20.8853L17.6983 21.757L16.8904 23.7494L20.8677 25.7417L19.9355 27.5473L23.4778 31.5943H28.4494L29.0087 28.7925ZM9.12232 6.93883C8.50088 6.12943 8.62517 4.94647 9.43305 4.32386C10.2409 3.70125 11.4217 3.82577 12.0431 4.63516C12.6646 5.44456 12.5403 6.62752 11.7324 7.25014C10.9245 7.87275 9.74377 7.74823 9.12232 6.93883Z" stroke="#698FBF" stroke-width="1.3" stroke-miterlimit="10" stroke-linecap="round" stroke-linejoin="round"/>
<path d="M28.4494 31.5321L19.5005 20.5741" stroke="#698FBF" stroke-width="1.3" stroke-miterlimit="10" stroke-linecap="round" stroke-linejoin="round"/>
<path d="M3.94092 9.88257C4.18347 11.6718 5.07833 13.1841 6.34572 14.206" stroke="#698FBF" stroke-width="1.3" stroke-miterlimit="10" stroke-linecap="round" stroke-linejoin="round"/>
</svg>
