<svg width="59" height="67" viewBox="0 0 59 67" fill="none" xmlns="http://www.w3.org/2000/svg">
<g clip-path="url(#clip0)">
<path d="M20.8 0C9.3 0 0 9.3 0 20.8C0 32.3 9.3 41.6 20.8 41.6C32.3 41.6 41.6 32.3 41.6 20.8C41.6 9.3 32.3 0 20.8 0ZM20.8 38.8C10.9 38.8 2.8 30.7 2.8 20.8C2.8 10.9 10.9 2.8 20.8 2.8C30.7 2.8 38.8 10.9 38.8 20.8C38.8 30.7 30.7 38.8 20.8 38.8Z" fill="#3363A3"/>
<path d="M56.2 51.6001V51.5001C55.9 50.9001 55.6 48.5001 55.6 48.0001C55.6 47.4001 55.6 46.6001 55.4 45.4001C54.9 42.5001 53 39.6001 52.1 38.5001L52 38.3001C49.8 35.7001 48.3 35.7001 46 36.7001C45.8 36.6001 45.4 36.5001 45.3 36.4001C45 36.3001 44.8 36.2001 44.7 36.2001C43.5 35.8001 42 35.9001 40.7 36.6001C40.1 36.9001 39.6 37.3001 39.1 37.8001C38.5 37.6001 37.6 37.3001 36.8 37.8001L36.7 37.9001C36.4 38.1001 36.2 38.2001 35.9 38.4001C35.1 36.9001 34.3 35.3001 33.7 34.2001C33.3 33.4001 33 33.0001 33 32.8001C31.9 30.8001 30.1 30.0001 28.4 30.7001C28.2 30.8001 28 30.9001 27.8 31.0001C27.5 31.1001 27.3 31.3001 27.2 31.4001C26 32.0001 25.4 33.0001 25.5 34.2001C25.5 35.1001 25.8 36.0001 26.5 37.1001C27.8 39.7001 30.8 45.5001 32.1 48.2001C30.7 48.4001 29.3 48.9001 28.2 49.4001C27 50.0001 26.1 50.8001 25.7 51.5001C24.9 53.0001 25.2 54.6001 25.7 55.5001C27.3 58.3001 30.9 57.8001 31.6 57.7001C35.9 57.3001 38.7 59.5001 39.2 60.4001V60.5001L44.9 66.4001L58.8 59.4001L56.2 51.6001Z" fill="#3363A3"/>
<path d="M41.3 58.9001C40.2 57.3001 37 55.1 32.5 55.1C32.1 55.1 31.7 55.1 31.3 55.2001H31.2H31.1C31 55.2001 30.7 55.3 30.3 55.3C29.2 55.3 28.4 55.0001 28.1 54.4001C28 54.2001 27.8 53.6 28.1 53.1C28.2 52.9 28.7 52.5 29.5 52.1C30.4 51.6 31.5 51.3 32.6 51.1L36.3 50.5L34.6 47C33.2 44.3 30.3 38.5001 29 35.9001L28.9 35.8C28.4 34.9 28.3 34.4001 28.3 34.2001C28.3 34.0001 28.3 33.9 28.6 33.8C28.7 33.7 28.9 33.6 29.1 33.5C29.2 33.4 29.3 33.4 29.5 33.3C29.6 33.3 29.6 33.3 29.6 33.3C29.8 33.3 30.2 33.6001 30.6 34.2001C30.7 34.3001 30.9 34.7 31.2 35.3V35.4001C31.8 36.5001 32.6 38.1 33.4 39.6L35 42.4001L37.6 40.4001C37.7 40.3001 37.8 40.3001 37.9 40.2001C38 40.2001 38.1 40.2 38.3 40.3L40 40.9001L41.2 39.6C41.4 39.3 41.7 39.1 42 39C42.4 38.8 42.8 38.7001 43.2 38.7001C43.4 38.7001 43.6 38.7 43.8 38.8H43.9H44C44.1 38.8 44.2 38.9001 44.3 38.9001C44.6 39.0001 45 39.2001 45.3 39.2001L46.3 39.5L47.2 39.1C47.9 38.8 48.3 38.7001 48.5 38.7001C48.8 38.7001 49.3 39.2001 50 39.9001V40C50.6 40.8 52.4 43.4001 52.8 45.7001C53 46.6 53 47.2001 53 47.7001V47.9001C53 48.6001 53.4 51.4 53.8 52.5L55.5 58L45.5 63.1L41.3 58.9001Z" fill="white"/>
<path d="M31.2001 11.3999L19.1 25.6999L11.6 19.7999L9.80005 22.1999L19.4 29.3999L19.5 29.4999L33.3 13.1999L31.2001 11.3999Z" fill="#3363A3"/>
</g>
<defs>
<clipPath id="clip0">
<rect width="58.7" height="66.5" fill="white"/>
</clipPath>
</defs>
</svg>
