<svg width="57" height="56" viewBox="0 0 57 56" fill="none" xmlns="http://www.w3.org/2000/svg">
<circle cx="33.709" cy="47" r="3" stroke="#074E8E" stroke-width="2"/>
<circle cx="43.209" cy="37.5" r="4.5" stroke="#074E8E" stroke-width="2"/>
<path fill-rule="evenodd" clip-rule="evenodd" d="M32.9545 24.5138C31.974 28.1078 28.2658 30.2264 24.6719 29.246C21.0779 28.2656 18.9593 24.5573 19.9397 20.9634C20.9201 17.3694 24.6284 15.2508 28.2223 16.2312C31.8163 17.2116 33.9349 20.9199 32.9545 24.5138ZM34.884 25.0402C33.6128 29.6998 28.8051 32.4466 24.1455 31.1755C19.4859 29.9043 16.7391 25.0966 18.0102 20.437C19.2813 15.7774 24.0891 13.0306 28.7487 14.3017C30.6198 14.8122 32.1825 15.8929 33.3004 17.3053C33.8917 15.9741 35.382 15.2373 36.8306 15.6324C38.429 16.0685 39.3713 17.7178 38.9352 19.3162C38.4992 20.9147 36.8499 21.857 35.2514 21.4209C35.1958 21.4057 35.1409 21.3891 35.0869 21.371C35.2756 22.5587 35.221 23.8046 34.884 25.0402ZM37.0057 18.7899C36.8604 19.3227 36.3106 19.6368 35.7778 19.4914C35.245 19.3461 34.9309 18.7963 35.0763 18.2635C35.2216 17.7307 35.7714 17.4166 36.3042 17.5619C36.837 17.7073 37.1511 18.257 37.0057 18.7899Z" fill="#074E8E"/>
<path fill-rule="evenodd" clip-rule="evenodd" d="M28.709 54C42.8613 54 54.3727 42.6927 54.7017 28.6196C53.4753 30.6458 51.2503 32 48.709 32C44.843 32 41.709 28.866 41.709 25C41.709 21.134 44.843 18 48.709 18C50.5073 18 52.1472 18.6781 53.387 19.7926C52.0015 15.6245 49.5895 11.925 46.4507 8.9938C46.618 9.46472 46.709 9.97173 46.709 10.5C46.709 12.9853 44.6943 15 42.209 15C39.7237 15 37.709 12.9853 37.709 10.5C37.709 8.01472 39.7237 6 42.209 6C42.34 6 42.4697 6.0056 42.5979 6.01658C38.5799 3.47268 33.8164 2 28.709 2C22.3821 2 16.583 4.25989 12.0749 8.01651C14.1125 8.20128 15.709 9.9142 15.709 12C15.709 14.2091 13.9181 16 11.709 16C9.70559 16 8.0462 14.5272 7.75448 12.6053C4.5829 16.915 2.70898 22.2387 2.70898 28C2.70898 35.2166 5.64915 41.7466 10.397 46.4572C9.95372 45.3928 9.70898 44.225 9.70898 43C9.70898 41.5629 10.0458 40.2045 10.6448 38.9993C9.0176 38.9652 7.70898 37.6354 7.70898 36C7.70898 34.3431 9.05213 33 10.709 33C12.2091 33 13.4521 34.1011 13.6738 35.5392C15.1108 34.5675 16.8436 34 18.709 34C23.6795 34 27.709 38.0294 27.709 43C27.709 47.9706 23.6795 52 18.709 52C18.7031 52 18.6972 52 18.6913 52C21.7744 53.2884 25.1586 54 28.709 54ZM28.709 56C44.173 56 56.709 43.464 56.709 28C56.709 12.536 44.173 0 28.709 0C13.245 0 0.708984 12.536 0.708984 28C0.708984 43.464 13.245 56 28.709 56ZM42.209 13C43.5897 13 44.709 11.8807 44.709 10.5C44.709 9.11929 43.5897 8 42.209 8C40.8283 8 39.709 9.11929 39.709 10.5C39.709 11.8807 40.8283 13 42.209 13ZM13.709 12C13.709 13.1046 12.8136 14 11.709 14C10.6044 14 9.70898 13.1046 9.70898 12C9.70898 10.8954 10.6044 10 11.709 10C12.8136 10 13.709 10.8954 13.709 12ZM48.709 30C51.4704 30 53.709 27.7614 53.709 25C53.709 22.2386 51.4704 20 48.709 20C45.9476 20 43.709 22.2386 43.709 25C43.709 27.7614 45.9476 30 48.709 30ZM10.709 37C11.2613 37 11.709 36.5523 11.709 36C11.709 35.4477 11.2613 35 10.709 35C10.1567 35 9.70898 35.4477 9.70898 36C9.70898 36.5523 10.1567 37 10.709 37ZM18.709 50C22.575 50 25.709 46.866 25.709 43C25.709 39.134 22.575 36 18.709 36C14.843 36 11.709 39.134 11.709 43C11.709 46.866 14.843 50 18.709 50Z" fill="#074E8E"/>
</svg>
