<svg width="57" height="57" viewBox="0 0 57 57" fill="none" xmlns="http://www.w3.org/2000/svg">
<path d="M0 50.1207V43.2414H13.7586V57H0V50.1207ZM11.7931 50.1207V45.2069H1.96552V55.0345H11.7931V50.1207ZM3.93103 50.1207V47.1724H9.82759V53.069H3.93103V50.1207ZM17.6897 56.0172V55.0345H15.7241V51.1035H17.6897V45.2069H19.6552V43.2414H15.7241V41.2759H7.86207V39.3103H9.82759V37.3448H5.89655V41.2759H3.93103V39.3103H0V37.3448H3.93103V33.4138H1.96552V35.3793H0V31.4483H3.93103V33.4138H5.89655V35.3793H7.86207V33.4138H9.82759V35.3793H13.7586V33.4138H11.7931V31.4483H5.89655V29.4828H11.7931V27.5172H5.89655V25.5517H3.93103V27.5172H0V21.6207H1.96552V23.5862H13.7586V21.6207H11.7931V19.6552H7.86207V21.6207H5.89655V19.6552H1.96552V15.7241H5.89655V19.6552H7.86207V17.6897H11.7931V15.7241H13.7586V17.6897H11.7931V19.6552H13.7586V21.6207H15.7241V17.6897H17.6897V15.7241H15.7241V9.82759H19.6552V11.7931H21.6207V13.7586H19.6552V15.7241H21.6207V27.5172H17.6897V25.5517H15.7241V27.5172H13.7586V29.4828H11.7931V31.4483H13.7586V33.4138H15.7241V35.3793H19.6552V33.4138H17.6897V31.4483H15.7241V29.4828H19.6552V33.4138H21.6207V29.4828H23.5862V33.4138H25.5517V27.5172H27.5172V25.5517H29.4828V27.5172H27.5172V29.4828H29.4828V31.4483H35.3793V29.4828H33.4138V27.5172H31.4483V23.5862H29.4828V21.6207H31.4483V19.6552H33.4138V17.6897H31.4483V15.7241H29.4828V19.6552H27.5172V17.6897H25.5517V19.6552H23.5862V17.6897H25.5517V15.7241H23.5862V9.82759H21.6207V7.86207H23.5862V9.82759H25.5517V1.96552H27.5172V5.89655H31.4483V3.93103H29.4828V0H33.4138V1.96552H31.4483V3.93103H35.3793V1.96552H37.3448V0H41.2759V5.89655H37.3448V3.93103H35.3793V7.86207H37.3448V13.7586H39.3103V11.7931H41.2759V21.6207H45.2069V19.6552H43.2414V15.7241H47.1724V21.6207H51.1035V19.6552H49.1379V15.7241H51.1035V19.6552H53.069V17.6897H57V21.6207H55.0345V19.6552H53.069V21.6207H51.1035V27.5172H53.069V29.4828H51.1035V31.4483H47.1724V33.4138H45.2069V35.3793H41.2759V33.4138H39.3103V31.4483H37.3448V35.3793H39.3103V37.3448H45.2069V39.3103H49.1379V37.3448H47.1724V35.3793H49.1379V33.4138H51.1035V35.3793H53.069V37.3448H55.0345V33.4138H53.069V31.4483H57V37.3448H55.0345V41.2759H57V45.2069H55.0345V51.1035H57V53.069H51.1035V57H45.2069V55.0345H49.1379V53.069H45.2069V49.1379H43.2414V53.069H41.2759V55.0345H43.2414V57H39.3103V51.1035H37.3448V55.0345H35.3793V53.069H33.4138V45.2069H35.3793V51.1035H37.3448V45.2069H39.3103V41.2759H37.3448V39.3103H35.3793V37.3448H37.3448V35.3793H35.3793V33.4138H33.4138V41.2759H35.3793V43.2414H31.4483V47.1724H29.4828V51.1035H31.4483V53.069H29.4828V55.0345H33.4138V57H29.4828V55.0345H27.5172V53.069H25.5517V57H17.6897V56.0172ZM23.5862 53.069V51.1035H25.5517V45.2069H21.6207V47.1724H23.5862V49.1379H19.6552V51.1035H17.6897V53.069H19.6552V55.0345H23.5862V53.069ZM51.1035 51.1035V49.1379H53.069V45.2069H55.0345V43.2414H53.069V37.3448H51.1035V43.2414H53.069V45.2069H51.1035V47.1724H49.1379V53.069H51.1035V51.1035ZM41.2759 50.1207V49.1379H39.3103V51.1035H41.2759V50.1207ZM29.4828 46.1897V45.2069H27.5172V47.1724H29.4828V46.1897ZM47.1724 44.2241V41.2759H41.2759V47.1724H47.1724V44.2241ZM43.2414 44.2241V43.2414H45.2069V45.2069H43.2414V44.2241ZM27.5172 42.2586V41.2759H31.4483V39.3103H27.5172V37.3448H25.5517V39.3103H27.5172V41.2759H23.5862V39.3103H21.6207V41.2759H19.6552V39.3103H17.6897V37.3448H15.7241V35.3793H13.7586V37.3448H11.7931V39.3103H13.7586V37.3448H15.7241V39.3103H17.6897V41.2759H19.6552V43.2414H27.5172V42.2586ZM21.6207 36.3621V35.3793H19.6552V37.3448H21.6207V36.3621ZM31.4483 35.3793V33.4138H27.5172V35.3793H29.4828V37.3448H31.4483V35.3793ZM43.2414 32.431V31.4483H41.2759V33.4138H43.2414V32.431ZM47.1724 30.4655V29.4828H49.1379V23.5862H47.1724V25.5517H45.2069V27.5172H43.2414V25.5517H39.3103V23.5862H37.3448V21.6207H39.3103V15.7241H37.3448V13.7586H35.3793V11.7931H33.4138V13.7586H31.4483V7.86207H33.4138V9.82759H35.3793V7.86207H33.4138V5.89655H31.4483V7.86207H29.4828V13.7586H31.4483V15.7241H33.4138V13.7586H35.3793V19.6552H33.4138V21.6207H31.4483V23.5862H33.4138V27.5172H35.3793V25.5517H39.3103V27.5172H41.2759V29.4828H45.2069V31.4483H47.1724V30.4655ZM45.2069 28.5V27.5172H47.1724V29.4828H45.2069V28.5ZM13.7586 26.5345V25.5517H15.7241V23.5862H13.7586V25.5517H11.7931V27.5172H13.7586V26.5345ZM19.6552 22.6034V21.6207H17.6897V23.5862H19.6552V22.6034ZM19.6552 12.7759V11.7931H17.6897V13.7586H19.6552V12.7759ZM27.5172 11.7931V9.82759H25.5517V13.7586H27.5172V11.7931ZM39.3103 2.94828V1.96552H37.3448V3.93103H39.3103V2.94828ZM55.0345 56.0172V55.0345H57V57H55.0345V56.0172ZM55.0345 27.5172V25.5517H53.069V23.5862H55.0345V25.5517H57V29.4828H55.0345V27.5172ZM0 6.87931V0H13.7586V13.7586H0V6.87931ZM11.7931 6.87931V1.96552H1.96552V11.7931H11.7931V6.87931ZM3.93103 6.87931V3.93103H9.82759V9.82759H3.93103V6.87931ZM43.2414 6.87931V0H57V13.7586H43.2414V6.87931ZM55.0345 6.87931V1.96552H45.2069V11.7931H55.0345V6.87931ZM47.1724 6.87931V3.93103H53.069V9.82759H47.1724V6.87931ZM15.7241 6.87931V5.89655H17.6897V7.86207H15.7241V6.87931ZM19.6552 4.91379V3.93103H17.6897V0H19.6552V1.96552H21.6207V0H23.5862V1.96552H21.6207V5.89655H19.6552V4.91379Z" fill="#0E5195"/>
</svg>
