<svg width="52" height="29" viewBox="0 0 52 29" fill="none" xmlns="http://www.w3.org/2000/svg">
<path d="M48.4773 25.6857H3.52249C2.01282 25.6857 0.838623 24.5257 0.838623 23.0343V16.7371C0.838623 15.2457 2.01282 14.0857 3.52249 14.0857H48.4773C49.987 14.0857 51.1612 15.2457 51.1612 16.7371V23.0343C51.1612 24.5257 49.987 25.6857 48.4773 25.6857Z" stroke="#B2CCEC" stroke-width="1.3" stroke-miterlimit="10" stroke-linecap="round" stroke-linejoin="round"/>
<path d="M10.0644 25.6857H5.87085V28.1714H10.0644V25.6857Z" stroke="#B2CCEC" stroke-width="1.3" stroke-miterlimit="10" stroke-linecap="round" stroke-linejoin="round"/>
<path d="M46.1291 25.6857H41.9355V28.1714H46.1291V25.6857Z" stroke="#B2CCEC" stroke-width="1.3" stroke-miterlimit="10" stroke-linecap="round" stroke-linejoin="round"/>
<path d="M23.4839 14.0858H11.7419V7.04291C11.7419 6.38005 12.329 5.80005 13 5.80005H22.2258C22.8968 5.80005 23.4839 6.38005 23.4839 7.04291V14.0858Z" stroke="#B2CCEC" stroke-width="1.3" stroke-miterlimit="10" stroke-linecap="round" stroke-linejoin="round"/>
<path d="M40.258 14.0858H28.5161V7.04291C28.5161 6.38005 29.1032 5.80005 29.7742 5.80005H39C39.671 5.80005 40.258 6.38005 40.258 7.04291V14.0858Z" stroke="#B2CCEC" stroke-width="1.3" stroke-miterlimit="10" stroke-linecap="round" stroke-linejoin="round"/>
<path d="M44.0323 0.828613H7.96778C7.29681 0.828613 6.70972 1.40861 6.70972 2.07147V14.0858H45.2904V2.07147C45.2904 1.40861 44.7033 0.828613 44.0323 0.828613Z" stroke="#B2CCEC" stroke-width="1.3" stroke-miterlimit="10" stroke-linecap="round" stroke-linejoin="round"/>
<path d="M16.7742 9.11426L18.4516 10.7714" stroke="#B2CCEC" stroke-width="1.3" stroke-miterlimit="10" stroke-linecap="round" stroke-linejoin="round"/>
<path d="M16.7742 10.7714L18.4516 9.11426" stroke="#B2CCEC" stroke-width="1.3" stroke-miterlimit="10" stroke-linecap="round" stroke-linejoin="round"/>
<path d="M33.5483 9.11426L35.2258 10.7714" stroke="#B2CCEC" stroke-width="1.3" stroke-miterlimit="10" stroke-linecap="round" stroke-linejoin="round"/>
<path d="M33.5483 10.7714L35.2258 9.11426" stroke="#B2CCEC" stroke-width="1.3" stroke-miterlimit="10" stroke-linecap="round" stroke-linejoin="round"/>
</svg>
