<svg id="Layer_1" data-name="Layer 1" xmlns="http://www.w3.org/2000/svg" viewBox="0 0 56.41 28.98"><title>BLIZZARD</title><line x1="38.73" y1="10.16" x2="34.55" y2="12.37" style="fill:none;stroke:#1c468c;stroke-linecap:round;stroke-linejoin:round;stroke-width:1.5px"/><polyline points="36.41 14.44 36.94 11.1 33.88 9.66" style="fill:none;stroke:#1c468c;stroke-linecap:round;stroke-linejoin:round;stroke-width:1.5px"/><line x1="44.7" y1="7" x2="48.88" y2="4.79" style="fill:none;stroke:#1c468c;stroke-linecap:round;stroke-linejoin:round;stroke-width:1.5px"/><polyline points="49.54 7.5 46.49 6.05 47.02 2.72" style="fill:none;stroke:#1c468c;stroke-linecap:round;stroke-linejoin:round;stroke-width:1.5px"/><line x1="43.29" y1="11.56" x2="45.5" y2="15.74" style="fill:none;stroke:#1c468c;stroke-linecap:round;stroke-linejoin:round;stroke-width:1.5px"/><polyline points="47.57 13.88 44.24 13.36 42.8 16.41" style="fill:none;stroke:#1c468c;stroke-linecap:round;stroke-linejoin:round;stroke-width:1.5px"/><line x1="40.13" y1="5.59" x2="37.93" y2="1.42" style="fill:none;stroke:#1c468c;stroke-linecap:round;stroke-linejoin:round;stroke-width:1.5px"/><polyline points="40.63 0.75 39.19 3.8 35.85 3.27" style="fill:none;stroke:#1c468c;stroke-linecap:round;stroke-linejoin:round;stroke-width:1.5px"/><circle cx="388.46" cy="661.05" r="2.7" transform="translate(-610.65 -394.31) rotate(-27.86)" style="fill:none;stroke:#1c468c;stroke-linecap:round;stroke-linejoin:round;stroke-width:1.5px"/><line x1="15.88" y1="5.43" x2="18.93" y2="8.49" style="fill:none;stroke:#1c468c;stroke-linecap:round;stroke-linejoin:round;stroke-width:1.5px"/><line x1="15.88" y1="8.49" x2="18.93" y2="5.43" style="fill:none;stroke:#1c468c;stroke-linecap:round;stroke-linejoin:round;stroke-width:1.5px"/><line x1="0.75" y1="10.83" x2="3.81" y2="13.89" style="fill:none;stroke:#1c468c;stroke-linecap:round;stroke-linejoin:round;stroke-width:1.5px"/><line x1="0.75" y1="13.89" x2="3.81" y2="10.83" style="fill:none;stroke:#1c468c;stroke-linecap:round;stroke-linejoin:round;stroke-width:1.5px"/><line x1="52.61" y1="8.67" x2="55.66" y2="11.73" style="fill:none;stroke:#1c468c;stroke-linecap:round;stroke-linejoin:round;stroke-width:1.5px"/><line x1="52.61" y1="11.73" x2="55.66" y2="8.67" style="fill:none;stroke:#1c468c;stroke-linecap:round;stroke-linejoin:round;stroke-width:1.5px"/><line x1="7.54" y1="20.85" x2="4.73" y2="22.33" style="fill:#1c468c;stroke:#1c468c;stroke-linecap:round;stroke-linejoin:round;stroke-width:1.20000004768372px"/><polyline points="5.98 23.73 6.34 21.48 4.28 20.51" style="fill:#1c468c;stroke:#1c468c;stroke-linecap:round;stroke-linejoin:round;stroke-width:1.20000004768372px"/><line x1="8.31" y1="19.81" x2="11.12" y2="18.32" style="fill:#1c468c;stroke:#1c468c;stroke-linecap:round;stroke-linejoin:round;stroke-width:1.20000004768372px"/><polyline points="11.57 20.14 9.52 19.17 9.87 16.93" style="fill:#1c468c;stroke:#1c468c;stroke-linecap:round;stroke-linejoin:round;stroke-width:1.20000004768372px"/><line x1="8.45" y1="20.71" x2="9.93" y2="23.52" style="fill:#1c468c;stroke:#1c468c;stroke-linecap:round;stroke-linejoin:round;stroke-width:1.20000004768372px"/><polyline points="11.33 22.27 9.09 21.92 8.12 23.97" style="fill:#1c468c;stroke:#1c468c;stroke-linecap:round;stroke-linejoin:round;stroke-width:1.20000004768372px"/><line x1="7.41" y1="19.94" x2="5.92" y2="17.13" style="fill:#1c468c;stroke:#1c468c;stroke-linecap:round;stroke-linejoin:round;stroke-width:1.20000004768372px"/><polyline points="7.74 16.68 6.77 18.73 4.53 18.38" style="fill:#1c468c;stroke:#1c468c;stroke-linecap:round;stroke-linejoin:round;stroke-width:1.20000004768372px"/><path d="M364.64,669.41h16.66c2.47,0,4.47,2.34,4.47,5.23h0c0,2.89-2,5.23-4.47,5.23h-4" transform="translate(-346.75 -652.47)" style="fill:none;stroke:#1c468c;stroke-linecap:round;stroke-linejoin:round;stroke-width:1.79999995231628px"/><path d="M361.55,674.52h9.05a3,3,0,0,1,3,3h0a3,3,0,0,1-3,3h-2" transform="translate(-346.75 -652.47)" style="fill:none;stroke:#1c468c;stroke-linecap:round;stroke-linejoin:round;stroke-width:1.79999995231628px"/><path d="M356.59,665.46h17.1a3,3,0,0,0,3-3h0a3,3,0,0,0-3-3h-2" transform="translate(-346.75 -652.47)" style="fill:none;stroke:#1c468c;stroke-linecap:round;stroke-linejoin:round;stroke-width:1.79999995231628px"/></svg>