<svg id="Layer_1" data-name="Layer 1" xmlns="http://www.w3.org/2000/svg" viewBox="0 0 51.89 29.63"><title>BLOWING SNOW</title><line x1="8.1" y1="19.39" x2="1.76" y2="22.74" style="fill:none;stroke:#1c468c;stroke-linecap:round;stroke-linejoin:round;stroke-width:1.5px"/><polyline points="4.58 25.89 5.38 20.83 0.75 18.64" style="fill:none;stroke:#1c468c;stroke-linecap:round;stroke-linejoin:round;stroke-width:1.5px"/><line x1="17.15" y1="14.61" x2="23.49" y2="11.25" style="fill:none;stroke:#1c468c;stroke-linecap:round;stroke-linejoin:round;stroke-width:1.5px"/><polyline points="24.5 15.36 19.87 13.17 20.67 8.11" style="fill:none;stroke:#1c468c;stroke-linecap:round;stroke-linejoin:round;stroke-width:1.5px"/><line x1="15.02" y1="21.53" x2="18.37" y2="27.87" style="fill:none;stroke:#1c468c;stroke-linecap:round;stroke-linejoin:round;stroke-width:1.5px"/><polyline points="21.52 25.05 16.46 24.24 14.27 28.88" style="fill:none;stroke:#1c468c;stroke-linecap:round;stroke-linejoin:round;stroke-width:1.5px"/><line x1="10.23" y1="12.47" x2="6.88" y2="6.13" style="fill:none;stroke:#1c468c;stroke-linecap:round;stroke-linejoin:round;stroke-width:1.5px"/><polyline points="10.98 5.12 8.8 9.75 3.74 8.95" style="fill:none;stroke:#1c468c;stroke-linecap:round;stroke-linejoin:round;stroke-width:1.5px"/><circle cx="361.98" cy="668.87" r="4.1" transform="translate(-619.98 -405.18) rotate(-27.86)" style="fill:none;stroke:#1c468c;stroke-linecap:round;stroke-linejoin:round;stroke-width:1.5px"/><line x1="38.99" y1="0.75" x2="43.63" y2="5.39" style="fill:none;stroke:#1c468c;stroke-linecap:round;stroke-linejoin:round;stroke-width:1.5px"/><line x1="38.99" y1="5.39" x2="43.63" y2="0.75" style="fill:none;stroke:#1c468c;stroke-linecap:round;stroke-linejoin:round;stroke-width:1.5px"/><line x1="43.91" y1="12.22" x2="51.14" y2="19.46" style="fill:none;stroke:#1c468c;stroke-linecap:round;stroke-linejoin:round;stroke-width:1.5px"/><line x1="43.91" y1="19.46" x2="51.14" y2="12.22" style="fill:none;stroke:#1c468c;stroke-linecap:round;stroke-linejoin:round;stroke-width:1.5px"/><line x1="29.16" y1="18.78" x2="33.79" y2="23.41" style="fill:none;stroke:#1c468c;stroke-linecap:round;stroke-linejoin:round;stroke-width:1.5px"/><line x1="29.16" y1="23.41" x2="33.79" y2="18.78" style="fill:none;stroke:#1c468c;stroke-linecap:round;stroke-linejoin:round;stroke-width:1.5px"/><circle cx="36.39" cy="12.9" r="1.64" style="fill:none;stroke:#1c468c;stroke-linecap:round;stroke-linejoin:round;stroke-width:1.5px"/></svg>