<svg width="54" height="53" viewBox="0 0 54 53" fill="none" xmlns="http://www.w3.org/2000/svg">
<path d="M4.70898 25.2002H2.00898C1.30898 25.2002 0.708984 25.8002 0.708984 26.5002C0.708984 27.2002 1.30898 27.8002 2.00898 27.8002H4.70898C5.40898 27.8002 6.00898 27.2002 6.00898 26.5002C6.00898 25.8002 5.40898 25.2002 4.70898 25.2002Z" fill="#064390"/>
<path d="M52.4092 25.2002H49.7092C49.0092 25.2002 48.4092 25.8002 48.4092 26.5002C48.4092 27.2002 49.0092 27.8002 49.7092 27.8002H52.3092C53.0092 27.8002 53.6092 27.2002 53.6092 26.5002C53.6092 25.8002 53.1092 25.2002 52.4092 25.2002Z" fill="#064390"/>
<path d="M10.3092 41.5L8.40918 43.4C7.90918 43.9 7.90918 44.8 8.40918 45.3C8.70918 45.6 9.00918 45.7 9.30918 45.7C9.60918 45.7 10.0092 45.6 10.2092 45.3L12.1092 43.4C12.6092 42.9 12.6092 42 12.1092 41.5C11.6092 41 10.9092 41 10.3092 41.5Z" fill="#064390"/>
<path d="M44.109 7.79961L42.209 9.69961C41.709 10.1996 41.709 11.0996 42.209 11.5996C42.509 11.8996 42.809 11.9996 43.109 11.9996C43.409 11.9996 43.809 11.8996 44.009 11.5996L45.909 9.69961C46.409 9.19961 46.409 8.29961 45.909 7.79961C45.409 7.19961 44.609 7.19961 44.109 7.79961Z" fill="#064390"/>
<path d="M27.2092 47.7002C26.5092 47.7002 25.9092 48.3002 25.9092 49.0002V51.6002C25.9092 52.3002 26.5092 52.9002 27.2092 52.9002C27.9092 52.9002 28.5092 52.3002 28.5092 51.6002V49.0002C28.5092 48.3002 27.9092 47.7002 27.2092 47.7002Z" fill="#064390"/>
<path d="M27.2092 5.3C27.9092 5.3 28.5092 4.7 28.5092 4V1.3C28.5092 0.6 27.9092 0 27.2092 0C26.5092 0 25.9092 0.6 25.9092 1.3V4C25.9092 4.7 26.5092 5.3 27.2092 5.3Z" fill="#064390"/>
<path d="M44.109 41.5C43.609 41 42.709 41 42.209 41.5C41.709 42 41.709 42.9 42.209 43.4L44.109 45.3C44.409 45.6 44.709 45.7 45.009 45.7C45.309 45.7 45.709 45.6 45.909 45.3C46.409 44.8 46.409 43.9 45.909 43.4L44.109 41.5Z" fill="#064390"/>
<path d="M10.3092 11.4998C10.6092 11.7998 10.9092 11.8998 11.2092 11.8998C11.5092 11.8998 11.9092 11.7998 12.1092 11.4998C12.6092 10.9998 12.6092 10.0998 12.1092 9.5998L10.3092 7.7998C9.80918 7.2998 8.90918 7.2998 8.40918 7.7998C7.90918 8.2998 7.90918 9.1998 8.40918 9.6998L10.3092 11.4998Z" fill="#064390"/>
<path fill-rule="evenodd" clip-rule="evenodd" d="M45.709 26.5C45.709 36.7173 37.4263 45 27.209 45C16.9917 45 8.70898 36.7173 8.70898 26.5C8.70898 16.2827 16.9917 8 27.209 8C37.4263 8 45.709 16.2827 45.709 26.5ZM27.209 42.3996V10.5996C36.009 10.5996 43.109 17.6996 43.109 26.4996C43.109 35.2996 36.009 42.3996 27.209 42.3996Z" fill="#064390"/>
</svg>
