<svg width="12" height="15" viewBox="0 0 12 15" fill="none" xmlns="http://www.w3.org/2000/svg">
<path fill-rule="evenodd" clip-rule="evenodd" d="M11.214 5.08742C11.214 2.69428 8.97531 0.754089 6.21399 0.754089C3.45267 0.754089 1.21399 2.69428 1.21399 5.08742C1.21399 6.91632 2.5232 8.47723 4.37188 9.11309V10.105H8.05609V9.11309C9.90478 8.47723 11.214 6.91632 11.214 5.08742Z" stroke="white" stroke-width="0.6" stroke-linecap="round" stroke-linejoin="round"/>
<path fill-rule="evenodd" clip-rule="evenodd" d="M6.21401 13.7541V13.7541C5.63269 13.7541 5.16138 13.3456 5.16138 12.8418H7.26664C7.26664 13.3456 6.79532 13.7541 6.21401 13.7541Z" stroke="white" stroke-width="0.6" stroke-linecap="round" stroke-linejoin="round"/>
<path fill-rule="evenodd" clip-rule="evenodd" d="M7.74826 12.8418H4.67984C4.50984 12.8418 4.37195 12.7223 4.37195 12.575V10.105H8.05616V12.575C8.05616 12.7223 7.91826 12.8418 7.74826 12.8418Z" stroke="white" stroke-width="0.6" stroke-linecap="round" stroke-linejoin="round"/>
<path d="M6.21398 10.105V6.91199" stroke="white" stroke-width="0.6" stroke-linecap="round" stroke-linejoin="round"/>
<path d="M4.10876 6.68393L5.1614 5.54358L6.21403 6.22779L7.26666 5.54358L8.31929 6.68393" stroke="white" stroke-width="0.6" stroke-linecap="round" stroke-linejoin="round"/>
<path d="M4.63501 11.0172H7.7929" stroke="white" stroke-width="0.6" stroke-linecap="round" stroke-linejoin="round"/>
<path d="M8.05604 11.9295H4.37183" stroke="white" stroke-width="0.6" stroke-linecap="round" stroke-linejoin="round"/>
</svg>
