<svg width="24" height="24" viewBox="0 0 24 24" fill="none" xmlns="http://www.w3.org/2000/svg">
<path fill-rule="evenodd" clip-rule="evenodd" d="M11.8366 23.3265C18.0019 23.3265 22.9999 18.3286 22.9999 12.1633C22.9999 5.99797 18.0019 1 11.8366 1C5.67131 1 0.67334 5.99797 0.67334 12.1633C0.67334 18.3286 5.67131 23.3265 11.8366 23.3265Z" stroke="#638BC2" stroke-width="1.1"/>
<path fill-rule="evenodd" clip-rule="evenodd" d="M11.8366 19.1403C15.6899 19.1403 18.8136 16.0166 18.8136 12.1633C18.8136 8.30995 15.6899 5.18622 11.8366 5.18622C7.98329 5.18622 4.85956 8.30995 4.85956 12.1633C4.85956 16.0166 7.98329 19.1403 11.8366 19.1403Z" stroke="#638BC2" stroke-width="1.1"/>
<path d="M11.8366 7.97705V9.37246C13.3716 9.37246 14.6274 10.6283 14.6274 12.1633C14.6274 12.1633 16.9531 12.1633 17.4182 12.1633H16.0228C16.0228 9.79108 14.2088 7.97705 11.8366 7.97705Z" fill="#638BC2"/>
</svg>
