<svg width="39" height="33" viewBox="0 0 39 33" fill="none" xmlns="http://www.w3.org/2000/svg">
<g clip-path="url(#clip0)">
<path d="M15.3443 24.4327C15.3443 23.2269 13.3623 19.6731 13.1066 19.6731C12.8509 19.6731 10.8689 23.1635 10.8689 24.4327C10.8689 25.7019 11.8918 26.6539 13.1066 26.6539C14.3214 26.6539 15.3443 25.6385 15.3443 24.4327Z" stroke="white" stroke-width="1.6" stroke-miterlimit="10" stroke-linecap="round" stroke-linejoin="round"/>
<path d="M21.0983 19.3557C21.0983 18.15 19.1164 14.5961 18.8606 14.5961C18.6049 14.5961 16.6229 18.0865 16.6229 19.3557C16.6229 20.625 17.6459 21.5769 18.8606 21.5769C20.0754 21.5769 21.0983 20.5615 21.0983 19.3557Z" stroke="white" stroke-width="1.6" stroke-miterlimit="10" stroke-linecap="round" stroke-linejoin="round"/>
<path d="M20.4591 30.1443C20.4591 28.9385 18.4771 25.3846 18.2213 25.3846C17.9656 25.3846 15.9836 28.875 15.9836 30.1443C15.9836 31.4135 17.0066 32.3654 18.2213 32.3654C19.4361 32.3654 20.4591 31.35 20.4591 30.1443Z" stroke="white" stroke-width="1.6" stroke-miterlimit="10" stroke-linecap="round" stroke-linejoin="round"/>
<path d="M26.8525 24.4327C26.8525 23.2269 24.8705 19.6731 24.6148 19.6731C24.359 19.6731 22.3771 23.1635 22.3771 24.4327C22.3771 25.7019 23.4 26.6539 24.6148 26.6539C25.8295 26.6539 26.8525 25.6385 26.8525 24.4327Z" stroke="white" stroke-width="1.6" stroke-miterlimit="10" stroke-linecap="round" stroke-linejoin="round"/>
<path d="M29.6016 21.577H32.9262C35.9311 21.577 38.3606 19.1654 38.3606 16.1827C38.3606 13.2 35.9311 10.7885 32.9262 10.7885H31.8393C31.2639 7.86926 28.6426 5.71157 25.5737 5.71157C24.4868 5.71157 23.4639 5.96541 22.5688 6.47311C21.418 3.04618 18.1573 0.634644 14.3852 0.634644C9.5901 0.634644 5.75404 4.44234 5.75404 9.20195C5.75404 9.77311 5.81797 10.2808 5.8819 10.7885C3.00486 10.9154 0.639282 13.2635 0.639282 16.1827C0.639282 19.1654 3.06879 21.577 6.07371 21.577H8.24748" stroke="white" stroke-width="1.6" stroke-miterlimit="10" stroke-linecap="round" stroke-linejoin="round"/>
<path d="M12.0109 4.25537C10.6683 5.01691 9.58139 6.15922 9.00598 7.61883" stroke="white" stroke-width="1.6" stroke-miterlimit="10" stroke-linecap="round" stroke-linejoin="round"/>
</g>
<defs>
<clipPath id="clip0">
<rect width="39" height="33" fill="white"/>
</clipPath>
</defs>
</svg>
