<svg width="60" height="33" viewBox="0 0 60 33" fill="none" xmlns="http://www.w3.org/2000/svg">
<path d="M11.6089 12C13.0089 12 14.3089 12.3 15.4089 12.8C16.6089 13.3 17.6089 14 18.5089 14.9C19.4089 15.8 20.1089 16.9 20.6089 18" stroke="#064390" stroke-width="2" stroke-miterlimit="10" stroke-linecap="round" stroke-linejoin="round"/>
<path d="M48.809 12C47.509 12 46.209 12.3 45.109 12.7C43.509 6 37.409 1 30.209 1C23.009 1 16.909 6 15.309 12.7C14.109 12.2 12.909 12 11.609 12C6.20898 12 1.70898 16.4 1.70898 21.9C1.70898 27.4 6.10898 31.8 11.609 31.8C14.909 31.8 45.509 31.8 48.909 31.8C54.309 31.8 58.809 27.4 58.809 21.9C58.809 16.4 54.309 12 48.809 12Z" stroke="#064390" stroke-width="2" stroke-miterlimit="10" stroke-linecap="round" stroke-linejoin="round"/>
</svg>
