<svg width="32" height="32" viewBox="0 0 32 32" fill="none" xmlns="http://www.w3.org/2000/svg">
<path d="M30.7273 1V31" stroke="#638BC2" stroke-width="1.0976" stroke-linecap="round" stroke-linejoin="round"/>
<path d="M30.4547 2.90908H26.0911" stroke="#638BC2" stroke-width="1.0976" stroke-linecap="round" stroke-linejoin="round"/>
<path d="M30.4545 5.63637H28.2727" stroke="#638BC2" stroke-width="1.0976" stroke-linecap="round" stroke-linejoin="round"/>
<path d="M30.4547 8.90908H26.0911" stroke="#638BC2" stroke-width="1.0976" stroke-linecap="round" stroke-linejoin="round"/>
<path d="M30.4545 11.6364H28.2727" stroke="#638BC2" stroke-width="1.0976" stroke-linecap="round" stroke-linejoin="round"/>
<path d="M30.4547 14.9091H26.0911" stroke="#638BC2" stroke-width="1.0976" stroke-linecap="round" stroke-linejoin="round"/>
<path d="M30.4545 17.6364H28.2727" stroke="#638BC2" stroke-width="1.0976" stroke-linecap="round" stroke-linejoin="round"/>
<path d="M30.4547 20.9091H26.0911" stroke="#638BC2" stroke-width="1.0976" stroke-linecap="round" stroke-linejoin="round"/>
<path d="M30.4545 23.6364H28.2727" stroke="#638BC2" stroke-width="1.0976" stroke-linecap="round" stroke-linejoin="round"/>
<path d="M30.4547 26.9091H26.0911" stroke="#638BC2" stroke-width="1.0976" stroke-linecap="round" stroke-linejoin="round"/>
<path d="M30.4545 29.6364H28.2727" stroke="#638BC2" stroke-width="1.0976" stroke-linecap="round" stroke-linejoin="round"/>
<path fill-rule="evenodd" clip-rule="evenodd" d="M16.0757 22.5455H12.6693C11.6662 22.5455 10.8535 21.7327 10.8535 20.7297V14.5082C10.8535 13.5051 11.6662 12.6924 12.6693 12.6924H16.0757C17.0788 12.6924 17.8915 13.5051 17.8915 14.5082V20.7297C17.8915 21.7327 17.0788 22.5455 16.0757 22.5455Z" stroke="#638BC2" stroke-width="1.0976" stroke-linecap="round" stroke-linejoin="round"/>
<path d="M8.03824 20.2023C8.03824 21.4966 6.98879 22.5455 5.69497 22.5455H3.34352C2.04915 22.5455 1.00024 21.4966 1.00024 20.2023V15.0352C1.00024 13.7408 2.04915 12.6919 3.34352 12.6919H5.69497C6.95224 12.6919 7.9777 13.6819 8.03552 14.9239" stroke="#638BC2" stroke-width="1.0976" stroke-linecap="round" stroke-linejoin="round"/>
<path d="M20.0032 10.5806H22.8183V12.692H20.0032V14.8035H22.8183" stroke="#638BC2" stroke-width="1.0976" stroke-linecap="round" stroke-linejoin="round"/>
</svg>
