<svg width="21" height="34" viewBox="0 0 21 34" fill="none" xmlns="http://www.w3.org/2000/svg">
<path d="M5.81038 4.75366C7.57243 3.20518 10.2422 3.41877 11.7907 5.18082" stroke="white" stroke-width="1.3" stroke-miterlimit="10" stroke-linecap="round" stroke-linejoin="round"/>
<path d="M4.31534 2.56453C7.03852 0.215125 11.2568 0.535498 13.6596 3.36547" stroke="white" stroke-width="1.3" stroke-miterlimit="10" stroke-linecap="round" stroke-linejoin="round"/>
<path d="M10.1888 15.86V7.95743C10.1888 7.0497 9.44127 6.35556 8.58694 6.35556C7.67921 6.35556 6.98507 7.1031 6.98507 7.95743V22.1607C6.98507 22.1607 5.11622 19.918 3.83473 18.423C3.19398 17.6754 2.12607 17.622 1.37853 18.2094H1.32513C0.684387 18.7433 0.524201 19.7045 1.00476 20.452L7.19865 29.7428C7.62582 30.3836 8.21317 30.9175 8.85391 31.2913V33" stroke="white" stroke-width="1.3" stroke-miterlimit="10" stroke-linecap="round" stroke-linejoin="round"/>
<path d="M19.8001 17.0347V28.8885C19.8001 30.3302 18.7856 31.5583 17.3973 31.8787V33" stroke="white" stroke-width="1.3" stroke-miterlimit="10" stroke-linecap="round" stroke-linejoin="round"/>
<path d="M10.1889 19.9181V14.8989C10.1889 13.9912 10.883 13.297 11.7907 13.297C12.6985 13.297 13.3926 13.9912 13.3926 14.8989V19.9181" stroke="white" stroke-width="1.3" stroke-miterlimit="10" stroke-linecap="round" stroke-linejoin="round"/>
<path d="M13.3926 19.9181V15.0057C13.3926 14.098 14.1401 13.3504 15.0479 13.3504C15.9556 13.3504 16.7031 14.098 16.7031 15.0057V19.9181" stroke="white" stroke-width="1.3" stroke-miterlimit="10" stroke-linecap="round" stroke-linejoin="round"/>
<path d="M16.6497 20.3986V16.9813C16.6497 16.127 17.3439 15.4328 18.1982 15.4328C19.0525 15.4328 19.7467 16.127 19.7467 16.9813V21.3063" stroke="white" stroke-width="1.3" stroke-miterlimit="10" stroke-linecap="round" stroke-linejoin="round"/>
</svg>
