<svg width="31" height="32" viewBox="0 0 31 32" fill="none" xmlns="http://www.w3.org/2000/svg">
<path d="M29.7315 1V31" stroke="#638BC2" stroke-width="1.0976" stroke-linecap="round" stroke-linejoin="round"/>
<path d="M29.4629 2.90908H25.1666" stroke="#638BC2" stroke-width="1.0976" stroke-linecap="round" stroke-linejoin="round"/>
<path d="M29.463 5.63637H27.3148" stroke="#638BC2" stroke-width="1.0976" stroke-linecap="round" stroke-linejoin="round"/>
<path d="M29.4629 8.90908H25.1666" stroke="#638BC2" stroke-width="1.0976" stroke-linecap="round" stroke-linejoin="round"/>
<path d="M29.463 11.6364H27.3148" stroke="#638BC2" stroke-width="1.0976" stroke-linecap="round" stroke-linejoin="round"/>
<path d="M29.4629 14.9091H25.1666" stroke="#638BC2" stroke-width="1.0976" stroke-linecap="round" stroke-linejoin="round"/>
<path d="M29.463 17.6364H27.3148" stroke="#638BC2" stroke-width="1.0976" stroke-linecap="round" stroke-linejoin="round"/>
<path d="M29.4629 20.9091H25.1666" stroke="#638BC2" stroke-width="1.0976" stroke-linecap="round" stroke-linejoin="round"/>
<path d="M29.463 23.6364H27.3148" stroke="#638BC2" stroke-width="1.0976" stroke-linecap="round" stroke-linejoin="round"/>
<path d="M29.4629 26.9091H25.1666" stroke="#638BC2" stroke-width="1.0976" stroke-linecap="round" stroke-linejoin="round"/>
<path d="M29.463 29.6364H27.3148" stroke="#638BC2" stroke-width="1.0976" stroke-linecap="round" stroke-linejoin="round"/>
<path d="M8.51852 30.1818H1" stroke="#638BC2" stroke-width="1.0976" stroke-linecap="round" stroke-linejoin="round"/>
<path d="M16.5741 30.1818H20.8704" stroke="#638BC2" stroke-width="1.0976" stroke-linecap="round" stroke-linejoin="round"/>
<path fill-rule="evenodd" clip-rule="evenodd" d="M10.1296 11.6364C10.1296 11.0342 9.64841 10.5455 9.05552 10.5455C8.46263 10.5455 7.98145 11.0342 7.98145 11.6364C7.98145 12.2386 8.46263 12.7273 9.05552 12.7273C9.64841 12.7273 10.1296 12.2386 10.1296 11.6364Z" stroke="#638BC2" stroke-width="1.0976" stroke-linecap="round" stroke-linejoin="round"/>
<path fill-rule="evenodd" clip-rule="evenodd" d="M12.8148 14.9091C12.8148 14.6075 12.5747 14.3636 12.2778 14.3636C11.9808 14.3636 11.7407 14.6075 11.7407 14.9091C11.7407 15.2107 11.9808 15.4546 12.2778 15.4546C12.5747 15.4546 12.8148 15.2107 12.8148 14.9091Z" stroke="#638BC2" stroke-width="1.0976" stroke-linecap="round" stroke-linejoin="round"/>
<path fill-rule="evenodd" clip-rule="evenodd" d="M10.6667 19.2727C10.6667 18.9711 10.4266 18.7273 10.1296 18.7273C9.83265 18.7273 9.59259 18.9711 9.59259 19.2727C9.59259 19.5744 9.83265 19.8182 10.1296 19.8182C10.4266 19.8182 10.6667 19.5744 10.6667 19.2727Z" stroke="#638BC2" stroke-width="1.0976" stroke-linecap="round" stroke-linejoin="round"/>
<path fill-rule="evenodd" clip-rule="evenodd" d="M7.23889 26.9091L7.44458 30.1818H17.1112L17.3169 26.9091H7.23889Z" stroke="#638BC2" stroke-width="1.0976" stroke-linecap="round" stroke-linejoin="round"/>
<path fill-rule="evenodd" clip-rule="evenodd" d="M9.59258 7.81819C8.37082 7.64092 7.15067 7.81165 6.0578 8.12038L7.23874 26.9091H17.3168L18.3108 11.0871C13.6381 10.6644 12.7541 8.27692 9.59258 7.81819Z" stroke="#638BC2" stroke-width="1.0976" stroke-linecap="round" stroke-linejoin="round"/>
<path d="M18.3006 11.2518L18.7221 4.54541H5.83325L6.06364 8.20977" stroke="#638BC2" stroke-width="1.0976" stroke-linecap="round" stroke-linejoin="round"/>
</svg>
