<svg width="32" height="32" viewBox="0 0 32 32" fill="none" xmlns="http://www.w3.org/2000/svg">
<path fill-rule="evenodd" clip-rule="evenodd" d="M31 16C31 7.71556 24.2844 1 16 1C7.71556 1 1 7.71556 1 16C1 24.2844 7.71556 31 16 31C24.2844 31 31 24.2844 31 16Z" stroke="#638BC2" stroke-width="1.1" stroke-linecap="round" stroke-linejoin="round"/>
<path d="M17.6666 26.4113C22.1966 25.6907 25.76 22.0946 26.4316 17.5502" stroke="#638BC2" stroke-width="1.1" stroke-linecap="round" stroke-linejoin="round"/>
<path d="M26.4047 14.2167C25.7214 10.2 22.7686 6.95559 18.9114 5.85059" stroke="#638BC2" stroke-width="1.1" stroke-linecap="round" stroke-linejoin="round"/>
<path d="M24.138 14.2167C23.5457 11.4995 21.6302 9.27616 19.0985 8.26172" stroke="#638BC2" stroke-width="1.1" stroke-linecap="round" stroke-linejoin="round"/>
<path d="M17.6666 24.1663C20.97 23.4952 23.5611 20.8696 24.1861 17.5502" stroke="#638BC2" stroke-width="1.1" stroke-linecap="round" stroke-linejoin="round"/>
<path d="M18.7778 1.53772V18.7777H13.2222V1.6405" stroke="#638BC2" stroke-width="1.1" stroke-linecap="round" stroke-linejoin="round"/>
<path fill-rule="evenodd" clip-rule="evenodd" d="M17.1111 16C17.1111 15.3867 16.6134 14.8889 16 14.8889C15.3867 14.8889 14.8889 15.3867 14.8889 16C14.8889 16.6134 15.3867 17.1111 16 17.1111C16.6134 17.1111 17.1111 16.6134 17.1111 16Z" stroke="#638BC2" stroke-width="1.1" stroke-linecap="round" stroke-linejoin="round"/>
<path d="M21.8377 14.2166C21.3871 12.7416 20.4015 11.4989 19.0977 10.7311" stroke="#638BC2" stroke-width="1.1" stroke-linecap="round" stroke-linejoin="round"/>
<path d="M17.6666 21.8752C19.7388 21.2879 21.3638 19.6385 21.9111 17.5502" stroke="#638BC2" stroke-width="1.1" stroke-linecap="round" stroke-linejoin="round"/>
<path d="M14.2096 26.4113C9.67902 25.6907 6.11625 22.0946 5.44458 17.5502" stroke="#638BC2" stroke-width="1.1" stroke-linecap="round" stroke-linejoin="round"/>
<path d="M5.47156 14.2167C6.15489 10.2 9.10822 6.95559 12.9649 5.85059" stroke="#638BC2" stroke-width="1.1" stroke-linecap="round" stroke-linejoin="round"/>
<path d="M7.73828 14.2167C8.33106 11.4995 10.2461 9.27616 12.7777 8.26172" stroke="#638BC2" stroke-width="1.1" stroke-linecap="round" stroke-linejoin="round"/>
<path d="M14.2096 24.1663C10.9063 23.4952 8.31519 20.8696 7.69019 17.5502" stroke="#638BC2" stroke-width="1.1" stroke-linecap="round" stroke-linejoin="round"/>
<path d="M10.0386 14.2166C10.4891 12.7416 11.4747 11.4989 12.7791 10.7311" stroke="#638BC2" stroke-width="1.1" stroke-linecap="round" stroke-linejoin="round"/>
<path d="M14.2097 21.8752C12.1374 21.2879 10.5124 19.6385 9.96521 17.5502" stroke="#638BC2" stroke-width="1.1" stroke-linecap="round" stroke-linejoin="round"/>
</svg>
