<svg id="Layer_1" data-name="Layer 1" xmlns="http://www.w3.org/2000/svg" viewBox="0 0 49 32.55"><title>FOG</title><path d="M397.94,651.09" transform="translate(-351 -650.73)" style="fill:none;stroke:#1c468c;stroke-linecap:round;stroke-linejoin:round;stroke-width:2px"/><line x1="1" y1="6.1" x2="42.48" y2="6.1" style="fill:none;stroke:#1c468c;stroke-linecap:round;stroke-linejoin:round;stroke-width:2px"/><line x1="6.1" y1="11.21" x2="27.8" y2="11.21" style="fill:none;stroke:#1c468c;stroke-linecap:round;stroke-linejoin:round;stroke-width:2px"/><line x1="32.91" y1="11.21" x2="48" y2="11.21" style="fill:none;stroke:#1c468c;stroke-linecap:round;stroke-linejoin:round;stroke-width:2px"/><path d="M389,672.15" transform="translate(-351 -650.73)" style="fill:none;stroke:#1c468c;stroke-linecap:round;stroke-linejoin:round;stroke-width:2px"/><line x1="11.21" y1="16.31" x2="34.18" y2="16.31" style="fill:none;stroke:#1c468c;stroke-linecap:round;stroke-linejoin:round;stroke-width:2px"/><line x1="16.31" y1="21.42" x2="36.73" y2="21.42" style="fill:none;stroke:#1c468c;stroke-linecap:round;stroke-linejoin:round;stroke-width:2px"/><line x1="4.83" y1="21.42" x2="12.49" y2="21.42" style="fill:none;stroke:#1c468c;stroke-linecap:round;stroke-linejoin:round;stroke-width:2px"/><line x1="40.56" y1="21.42" x2="44.39" y2="21.42" style="fill:none;stroke:#1c468c;stroke-linecap:round;stroke-linejoin:round;stroke-width:2px"/><line x1="38.01" y1="16.31" x2="44.39" y2="16.31" style="fill:none;stroke:#1c468c;stroke-linecap:round;stroke-linejoin:round;stroke-width:2px"/><line x1="17.59" y1="1" x2="40.56" y2="1" style="fill:none;stroke:#1c468c;stroke-linecap:round;stroke-linejoin:round;stroke-width:2px"/><line x1="44.39" y1="1" x2="45.67" y2="1" style="fill:none;stroke:#1c468c;stroke-linecap:round;stroke-linejoin:round;stroke-width:2px"/><line x1="29.12" y1="31.55" x2="30.39" y2="31.55" style="fill:none;stroke:#1c468c;stroke-linecap:round;stroke-linejoin:round;stroke-width:2px"/><line x1="19.29" y1="31.55" x2="25.17" y2="31.55" style="fill:none;stroke:#1c468c;stroke-linecap:round;stroke-linejoin:round;stroke-width:2px"/><line x1="11.21" y1="26.52" x2="22.7" y2="26.52" style="fill:none;stroke:#1c468c;stroke-linecap:round;stroke-linejoin:round;stroke-width:2px"/><line x1="26.52" y1="26.52" x2="41.84" y2="26.52" style="fill:none;stroke:#1c468c;stroke-linecap:round;stroke-linejoin:round;stroke-width:2px"/></svg>