<svg id="Layer_1" data-name="Layer 1" xmlns="http://www.w3.org/2000/svg" viewBox="0 0 54.5 35.78"><title>FREEZING FOG</title><path d="M394.94,653.09" transform="translate(-348 -649.5)" style="fill:none;stroke:#1c468c;stroke-linecap:round;stroke-linejoin:round;stroke-width:2px"/><line x1="1" y1="9.33" x2="42.48" y2="9.33" style="fill:none;stroke:#1c468c;stroke-linecap:round;stroke-linejoin:round;stroke-width:2px"/><line x1="6.1" y1="14.44" x2="27.8" y2="14.44" style="fill:none;stroke:#1c468c;stroke-linecap:round;stroke-linejoin:round;stroke-width:2px"/><line x1="32.91" y1="14.44" x2="48" y2="14.44" style="fill:none;stroke:#1c468c;stroke-linecap:round;stroke-linejoin:round;stroke-width:2px"/><path d="M386,674.15" transform="translate(-348 -649.5)" style="fill:none;stroke:#1c468c;stroke-linecap:round;stroke-linejoin:round;stroke-width:2px"/><line x1="11.21" y1="19.54" x2="34.18" y2="19.54" style="fill:none;stroke:#1c468c;stroke-linecap:round;stroke-linejoin:round;stroke-width:2px"/><line x1="16.31" y1="24.65" x2="36.73" y2="24.65" style="fill:none;stroke:#1c468c;stroke-linecap:round;stroke-linejoin:round;stroke-width:2px"/><line x1="40.56" y1="24.65" x2="44.39" y2="24.65" style="fill:none;stroke:#1c468c;stroke-linecap:round;stroke-linejoin:round;stroke-width:2px"/><line x1="38.01" y1="19.54" x2="44.39" y2="19.54" style="fill:none;stroke:#1c468c;stroke-linecap:round;stroke-linejoin:round;stroke-width:2px"/><line x1="22" y1="4.23" x2="40.56" y2="4.23" style="fill:none;stroke:#1c468c;stroke-linecap:round;stroke-linejoin:round;stroke-width:2px"/><line x1="44.39" y1="4.23" x2="45.67" y2="4.23" style="fill:none;stroke:#1c468c;stroke-linecap:round;stroke-linejoin:round;stroke-width:2px"/><line x1="29.12" y1="34.78" x2="30.39" y2="34.78" style="fill:none;stroke:#1c468c;stroke-linecap:round;stroke-linejoin:round;stroke-width:2px"/><line x1="19.29" y1="34.78" x2="25.17" y2="34.78" style="fill:none;stroke:#1c468c;stroke-linecap:round;stroke-linejoin:round;stroke-width:2px"/><line x1="14" y1="29.75" x2="22.7" y2="29.75" style="fill:none;stroke:#1c468c;stroke-linecap:round;stroke-linejoin:round;stroke-width:2px"/><line x1="26.52" y1="29.75" x2="41.84" y2="29.75" style="fill:none;stroke:#1c468c;stroke-linecap:round;stroke-linejoin:round;stroke-width:2px"/><line x1="50.33" y1="21.5" x2="48" y2="21.5" style="fill:none;stroke:#1c468c;stroke-linecap:round;stroke-linejoin:round"/><polyline points="48.33 22.83 49.33 21.5 48.33 20.17" style="fill:none;stroke:#1c468c;stroke-linecap:round;stroke-linejoin:round"/><line x1="51.67" y1="21.5" x2="54" y2="21.5" style="fill:none;stroke:#1c468c;stroke-linecap:round;stroke-linejoin:round"/><polyline points="53.67 22.83 52.67 21.5 53.67 20.17" style="fill:none;stroke:#1c468c;stroke-linecap:round;stroke-linejoin:round"/><line x1="51" y1="22.17" x2="51" y2="24.5" style="fill:none;stroke:#1c468c;stroke-linecap:round;stroke-linejoin:round"/><polyline points="52.33 24.17 51 23.17 49.67 24.17" style="fill:none;stroke:#1c468c;stroke-linecap:round;stroke-linejoin:round"/><line x1="51" y1="20.83" x2="51" y2="18.5" style="fill:none;stroke:#1c468c;stroke-linecap:round;stroke-linejoin:round"/><polyline points="52.33 18.83 51 19.83 49.67 18.83" style="fill:none;stroke:#1c468c;stroke-linecap:round;stroke-linejoin:round"/><line x1="15.33" y1="3.5" x2="13" y2="3.5" style="fill:none;stroke:#1c468c;stroke-linecap:round;stroke-linejoin:round"/><polyline points="13.33 4.83 14.33 3.5 13.33 2.17" style="fill:none;stroke:#1c468c;stroke-linecap:round;stroke-linejoin:round"/><line x1="16.67" y1="3.5" x2="19" y2="3.5" style="fill:none;stroke:#1c468c;stroke-linecap:round;stroke-linejoin:round"/><polyline points="18.67 4.83 17.67 3.5 18.67 2.17" style="fill:none;stroke:#1c468c;stroke-linecap:round;stroke-linejoin:round"/><line x1="16" y1="4.17" x2="16" y2="6.5" style="fill:none;stroke:#1c468c;stroke-linecap:round;stroke-linejoin:round"/><polyline points="17.33 6.17 16 5.17 14.67 6.17" style="fill:none;stroke:#1c468c;stroke-linecap:round;stroke-linejoin:round"/><line x1="16" y1="2.83" x2="16" y2="0.5" style="fill:none;stroke:#1c468c;stroke-linecap:round;stroke-linejoin:round"/><polyline points="17.33 0.83 16 1.83 14.67 0.83" style="fill:none;stroke:#1c468c;stroke-linecap:round;stroke-linejoin:round"/><line x1="9.33" y1="25.5" x2="7" y2="25.5" style="fill:none;stroke:#1c468c;stroke-linecap:round;stroke-linejoin:round"/><polyline points="7.33 26.83 8.33 25.5 7.33 24.17" style="fill:none;stroke:#1c468c;stroke-linecap:round;stroke-linejoin:round"/><line x1="10.67" y1="25.5" x2="13" y2="25.5" style="fill:none;stroke:#1c468c;stroke-linecap:round;stroke-linejoin:round"/><polyline points="12.67 26.83 11.67 25.5 12.67 24.17" style="fill:none;stroke:#1c468c;stroke-linecap:round;stroke-linejoin:round"/><line x1="10" y1="26.17" x2="10" y2="28.5" style="fill:none;stroke:#1c468c;stroke-linecap:round;stroke-linejoin:round"/><polyline points="11.33 28.17 10 27.17 8.67 28.17" style="fill:none;stroke:#1c468c;stroke-linecap:round;stroke-linejoin:round"/><line x1="10" y1="24.83" x2="10" y2="22.5" style="fill:none;stroke:#1c468c;stroke-linecap:round;stroke-linejoin:round"/><polyline points="11.33 22.83 10 23.83 8.67 22.83" style="fill:none;stroke:#1c468c;stroke-linecap:round;stroke-linejoin:round"/></svg>