<svg width="375" height="191" viewBox="0 0 375 191" fill="none" xmlns="http://www.w3.org/2000/svg">
<path d="M364.974 19L373.974 19.0182" stroke="#A3B9D6" stroke-width="1.5" stroke-linecap="round" stroke-linejoin="round"/>
<path d="M364.974 0.999969L373.974 1.01821" stroke="#A3B9D6" stroke-width="1.5" stroke-linecap="round" stroke-linejoin="round"/>
<path d="M0 10L376.974 10.0182" stroke="#A3B9D6" stroke-linecap="round" stroke-linejoin="round"/>
<path d="M364.974 55L373.974 55.0182" stroke="#A3B9D6" stroke-width="1.5" stroke-linecap="round" stroke-linejoin="round"/>
<path d="M364.974 37L373.974 37.0182" stroke="#A3B9D6" stroke-width="1.5" stroke-linecap="round" stroke-linejoin="round"/>
<path d="M367.974 28L376.974 28.0182" stroke="#A3B9D6" stroke-linecap="round" stroke-linejoin="round"/>
<path d="M0 46L376.974 46.0182" stroke="#A3B9D6" stroke-linecap="round" stroke-linejoin="round"/>
<path d="M364.974 91L373.974 91.0182" stroke="#A3B9D6" stroke-width="1.5" stroke-linecap="round" stroke-linejoin="round"/>
<path d="M364.974 73L373.974 73.0182" stroke="#A3B9D6" stroke-width="1.5" stroke-linecap="round" stroke-linejoin="round"/>
<path d="M367.974 64L376.974 64.0182" stroke="#A3B9D6" stroke-linecap="round" stroke-linejoin="round"/>
<path d="M0 82L376.974 82.0182" stroke="#A3B9D6" stroke-linecap="round" stroke-linejoin="round"/>
<path d="M364.974 127L373.974 127.018" stroke="#A3B9D6" stroke-width="1.5" stroke-linecap="round" stroke-linejoin="round"/>
<path d="M364.974 109L373.974 109.018" stroke="#A3B9D6" stroke-width="1.5" stroke-linecap="round" stroke-linejoin="round"/>
<path d="M367.974 100L376.974 100.018" stroke="#A3B9D6" stroke-linecap="round" stroke-linejoin="round"/>
<path d="M0 118L376.974 118.018" stroke="#A3B9D6" stroke-linecap="round" stroke-linejoin="round"/>
<path d="M364.974 163L373.974 163.018" stroke="#A3B9D6" stroke-width="1.5" stroke-linecap="round" stroke-linejoin="round"/>
<path d="M364.974 145L373.974 145.018" stroke="#A3B9D6" stroke-width="1.5" stroke-linecap="round" stroke-linejoin="round"/>
<path d="M367.974 136L376.974 136.018" stroke="#A3B9D6" stroke-linecap="round" stroke-linejoin="round"/>
<path d="M367.974 154L376.974 154.018" stroke="#A3B9D6" stroke-linecap="round" stroke-linejoin="round"/>
<path d="M364.974 181L373.974 181.018" stroke="#A3B9D6" stroke-width="1.5" stroke-linecap="round" stroke-linejoin="round"/>
<path d="M367.974 172L376.974 172.018" stroke="#A3B9D6" stroke-linecap="round" stroke-linejoin="round"/>
<path d="M367.974 190L376.974 190.018" stroke="#A3B9D6" stroke-linecap="round" stroke-linejoin="round"/>
</svg>
