<svg id="Layer_1" data-name="Layer 1" xmlns="http://www.w3.org/2000/svg" viewBox="0 0 40.3 42.3"><title>HEAVY RAIN</title><path d="M365.71,667.55c.89-2.74-1-12-1.54-12.17s-7.51,6.19-8.4,8.94a5.23,5.23,0,0,0,9.94,3.23Z" transform="translate(-354.77 -645.98)" style="fill:none;stroke:#1c468c;stroke-linecap:round;stroke-linejoin:round;stroke-width:1.5px"/><path d="M383.56,658.91c.89-2.74-1-12-1.54-12.17s-7.51,6.19-8.4,8.94a5.23,5.23,0,1,0,9.94,3.23Z" transform="translate(-354.77 -645.98)" style="fill:none;stroke:#1c468c;stroke-linecap:round;stroke-linejoin:round;stroke-width:1.5px"/><path d="M375.46,683.92c.89-2.74-1-12-1.54-12.17s-7.51,6.19-8.4,8.94a5.23,5.23,0,1,0,9.94,3.23Z" transform="translate(-354.77 -645.98)" style="fill:none;stroke:#1c468c;stroke-linecap:round;stroke-linejoin:round;stroke-width:1.5px"/><path d="M394.08,675.8c.89-2.74-1-12-1.54-12.17s-7.51,6.19-8.4,8.94a5.23,5.23,0,0,0,9.94,3.23Z" transform="translate(-354.77 -645.98)" style="fill:none;stroke:#1c468c;stroke-linecap:round;stroke-linejoin:round;stroke-width:1.5px"/></svg>