<svg width="28" height="33" viewBox="0 0 28 33" fill="none" xmlns="http://www.w3.org/2000/svg">
<path d="M10 8L8 10" stroke="white" stroke-width="1.3" stroke-miterlimit="10" stroke-linecap="round" stroke-linejoin="round"/>
<path d="M13 8L8 13" stroke="white" stroke-width="1.3" stroke-miterlimit="10" stroke-linecap="round" stroke-linejoin="round"/>
<path d="M16.6005 32V26.7086C16.6005 24.8379 17.7563 23.1276 19.49 22.4862L24.9537 20.669C26.4246 19.9207 27.2127 18.3172 26.95 16.7138L25.3739 8.32241C24.9537 6.02414 23.4301 4.04655 21.2762 3.19138L16.4429 1.48103C14.8668 0.839655 13.1332 0.839655 11.5571 1.48103L6.72383 3.13793C4.56987 3.9931 2.99381 5.91724 2.62606 8.26897L1.04999 16.6603C0.787317 18.2638 1.57535 19.8672 3.04634 20.6155L8.51004 22.4328C10.2437 23.0741 11.3995 24.7845 11.3995 26.6552V32" stroke="white" stroke-width="1.3" stroke-miterlimit="10" stroke-linecap="round" stroke-linejoin="round"/>
<path d="M16.3526 5H11.1969C11.0467 5 10.8965 5 10.7964 5C8.34365 5.1625 6.29134 7.16667 5.64061 9.76667L4.13892 15.8875C3.68842 16.8625 4.3892 18 5.44039 18L13.2492 16.9708C13.7497 16.9167 14.2503 16.9167 14.7008 16.9708L22.5596 18C23.6108 18 24.3116 16.8625 23.8611 15.8875L21.8588 9.44167C21.108 7.00417 19.1057 5.21667 16.7531 5C16.6029 5 16.5028 5 16.3526 5Z" stroke="white" stroke-width="1.3" stroke-miterlimit="10" stroke-linecap="round" stroke-linejoin="round"/>
</svg>
