<svg width="27" height="26" viewBox="0 0 27 26" fill="none" xmlns="http://www.w3.org/2000/svg">
<path d="M10.0514 18.6527L7.94206 16.6211C7.75831 16.4441 7.66365 16.2084 7.6592 15.9714C7.65475 15.7344 7.74049 15.4953 7.91747 15.3116L13.9248 9.07436C14.1008 8.89156 14.3365 8.79739 14.5745 8.7929L14.5744 8.79148C14.8115 8.78703 15.0505 8.87277 15.2343 9.04975L17.3436 11.0814C17.5274 11.2583 17.622 11.494 17.6265 11.731L17.6251 11.7311C17.6295 11.969 17.5443 12.2081 17.3682 12.3909L11.3609 18.6281C11.184 18.8118 10.9483 18.9065 10.7113 18.9109C10.4742 18.9154 10.2352 18.8297 10.0514 18.6527L10.0514 18.6527ZM8.44373 16.1002L10.5531 18.1318C10.593 18.1702 10.6454 18.1888 10.6977 18.1878C10.75 18.1868 10.8017 18.1663 10.8401 18.1264L16.8474 11.8892C16.8867 11.8484 16.9058 11.796 16.9048 11.7446L16.9034 11.7446C16.9024 11.6923 16.8818 11.6406 16.842 11.6022L14.7326 9.57061C14.6927 9.53222 14.6403 9.51361 14.588 9.51459L14.588 9.51316C14.5366 9.51413 14.485 9.53518 14.4456 9.57602L8.43834 15.8132C8.39995 15.8531 8.38134 15.9055 8.38232 15.9578C8.3833 16.0101 8.40387 16.0618 8.44373 16.1002L8.44373 16.1002Z" fill="white" stroke="white" stroke-width="0.5"/>
<path d="M15.7891 10.5851L15.7891 10.5851C15.5035 10.3101 15.3565 9.94533 15.3496 9.578C15.3427 9.2107 15.4759 8.84071 15.751 8.55515L15.751 8.55514C16.026 8.26958 16.3907 8.12252 16.7581 8.11562C17.1254 8.10872 17.4954 8.24198 17.7809 8.51701L17.781 8.51705C18.0665 8.7921 18.2135 9.15682 18.2204 9.52411C18.2273 9.89141 18.0941 10.2614 17.8191 10.5469L17.819 10.547C17.544 10.8325 17.1793 10.9796 16.812 10.9865C16.4446 10.9934 16.0747 10.8601 15.7891 10.5851ZM16.2907 10.0642L16.2908 10.0642C16.4324 10.2007 16.6161 10.2668 16.7984 10.2634C16.9807 10.2599 17.1617 10.187 17.2982 10.0453L17.2982 10.0453C17.4346 9.90361 17.5008 9.72 17.4973 9.53769C17.4939 9.35536 17.4209 9.17436 17.2793 9.03792L17.2793 9.03788C17.1376 8.90144 16.954 8.83531 16.7716 8.83874C16.5893 8.84216 16.4083 8.91514 16.2718 9.0568L16.2718 9.05682C16.1354 9.19848 16.0693 9.38212 16.0727 9.56442C16.0761 9.74675 16.1491 9.92777 16.2907 10.0642Z" fill="white" stroke="white" stroke-width="0.5"/>
<path d="M21.891 10.8189C21.8487 11.0139 21.6561 11.1377 21.4611 11.0954C21.266 11.053 21.1422 10.8605 21.1846 10.6654C21.3662 9.82977 21.3466 9.03935 21.1647 8.33148C20.9611 7.53942 20.5545 6.84964 20 6.31539C19.4464 5.782 18.7424 5.40183 17.9431 5.22808C17.229 5.0729 16.4384 5.08301 15.6096 5.29602C15.4163 5.34568 15.2193 5.2292 15.1696 5.03585C15.1199 4.84251 15.2364 4.64548 15.4298 4.59582C16.372 4.35364 17.2759 4.34326 18.0965 4.52163C19.0274 4.72397 19.8507 5.17005 20.5018 5.79737C21.152 6.4238 21.6278 7.22938 21.8649 8.15162C22.074 8.96518 22.0976 9.8688 21.891 10.8189L21.891 10.8189Z" fill="white" stroke="white" stroke-width="0.5"/>
<path d="M25.4595 9.60012C25.4171 9.7952 25.2246 9.919 25.0296 9.87663C24.8345 9.83426 24.7107 9.64176 24.7531 9.44668C25.0148 8.24244 24.9863 7.10237 24.7236 6.08046C24.4291 4.93454 23.8404 3.9361 23.0373 3.16226C22.235 2.38928 21.2158 1.83859 20.0592 1.5872C19.0285 1.36315 17.888 1.3775 16.6937 1.68447C16.5004 1.73413 16.3034 1.61765 16.2537 1.4243C16.2041 1.23096 16.3205 1.03394 16.5139 0.984277C17.8216 0.64814 19.0753 0.633515 20.2127 0.880749C21.5007 1.16072 22.6392 1.77732 23.539 2.64423C24.4379 3.51027 25.0959 4.62448 25.4239 5.90059C25.7137 7.02819 25.7462 8.28145 25.4595 9.60011L25.4595 9.60012Z" fill="white" stroke="white" stroke-width="0.5"/>
<path d="M2.14359 4.59587L8.06028 10.2944L10.6668 7.58818L4.75007 1.88962C4.65547 1.7985 4.53172 1.75435 4.40859 1.75666C4.28548 1.75897 4.16345 1.80772 4.07233 1.90234L2.13086 3.91813C2.03972 4.01274 1.99559 4.13651 1.9979 4.25962C2.00021 4.38275 2.04898 4.50475 2.14359 4.59587L2.14359 4.59587ZM7.81905 11.0661L1.64194 5.11674C1.40343 4.88703 1.28059 4.58107 1.2748 4.2732C1.26902 3.9653 1.3803 3.65493 1.61001 3.41646L3.55148 1.40068C3.78115 1.16218 4.08713 1.03933 4.39502 1.03355C4.7029 1.02776 5.01325 1.13904 5.25175 1.36875L11.4289 7.31814C11.5727 7.45665 11.577 7.68558 11.4385 7.8294L8.33032 11.0565C8.1918 11.2003 7.96287 11.2046 7.81905 11.0661Z" fill="white" stroke="white" stroke-width="0.5"/>
<path d="M10.5661 10.602C10.4223 10.4635 10.418 10.2345 10.5565 10.0907C10.695 9.94688 10.9239 9.94259 11.0677 10.0811L12.3072 11.2749C12.451 11.4134 12.4553 11.6423 12.3168 11.7862C12.1783 11.93 11.9494 11.9343 11.8056 11.7958L10.5661 10.602Z" fill="white" stroke="white" stroke-width="0.5"/>
<path d="M21.7843 24.5169L15.6071 18.5675C15.4633 18.4289 15.459 18.2 15.5975 18.0562L18.7057 14.8291C18.8442 14.6853 19.0731 14.681 19.217 14.8195L25.3941 20.7689C25.6326 20.9986 25.7554 21.3046 25.7612 21.6124C25.767 21.9203 25.6557 22.2307 25.426 22.4692L23.4846 24.485C23.2549 24.7234 22.9489 24.8463 22.641 24.8521C22.3332 24.8579 22.0228 24.7466 21.7843 24.5169ZM16.3692 18.2974L22.286 23.996C22.3806 24.0871 22.5043 24.1313 22.6274 24.129C22.7506 24.1266 22.8726 24.0779 22.9637 23.9833L24.9052 21.9675C24.9963 21.8729 25.0404 21.7491 25.0381 21.626C25.0358 21.5029 24.987 21.3809 24.8924 21.2898L18.9757 15.5912L16.3692 18.2974L16.3692 18.2974Z" fill="white" stroke="white" stroke-width="0.5"/>
<path d="M16.4693 15.2837C16.6132 15.4222 16.6175 15.6511 16.4789 15.7949C16.3404 15.9388 16.1115 15.9431 15.9677 15.8045L14.7282 14.6108C14.5844 14.4722 14.5801 14.2433 14.7186 14.0995C14.8571 13.9557 15.086 13.9514 15.2299 14.0899L16.4693 15.2837Z" fill="white" stroke="white" stroke-width="0.5"/>
</svg>
