<svg width="30" height="24" viewBox="0 0 30 24" fill="none" xmlns="http://www.w3.org/2000/svg">
<path d="M22.2819 18.6261C22.2819 16.5281 20.6023 14.8406 18.5142 14.8406C18.1511 14.8406 17.7879 14.8862 17.4248 15.0231C17.4701 14.6582 17.5155 14.3389 17.5155 13.9741C17.5155 10.8271 14.9735 8.31873 11.8867 8.31873C8.98148 8.31873 6.57561 10.5535 6.25785 13.3812C5.98549 13.3356 5.71312 13.29 5.44076 13.29C2.94409 13.29 0.901367 15.3423 0.901367 17.8507C0.901367 20.3136 2.85331 22.3203 5.25918 22.4115H18.7412C20.6931 22.2747 22.2819 20.6328 22.2819 18.6261Z" stroke="#4B79BD" stroke-width="1.3" stroke-miterlimit="10" stroke-linecap="round" stroke-linejoin="round"/>
<path d="M22.055 16.8021C23.7799 15.6619 24.9148 13.7008 24.9148 11.466C24.9148 7.95422 22.055 5.08093 18.5596 5.08093C16.3807 5.08093 14.4288 6.17552 13.2939 7.90861" stroke="#4B79BD" stroke-width="1.3" stroke-miterlimit="10" stroke-linecap="round" stroke-linejoin="round"/>
<path d="M18.5596 3.25646V0.976074" stroke="#4B79BD" stroke-width="1.3" stroke-miterlimit="10" stroke-linecap="round" stroke-linejoin="round"/>
<path d="M29.0002 11.0096H26.7305" stroke="#4B79BD" stroke-width="1.3" stroke-miterlimit="10" stroke-linecap="round" stroke-linejoin="round"/>
<path d="M24.4609 5.53682L26.0497 3.94055" stroke="#4B79BD" stroke-width="1.3" stroke-miterlimit="10" stroke-linecap="round" stroke-linejoin="round"/>
<path d="M26.0497 19.2192L24.4609 17.6229" stroke="#4B79BD" stroke-width="1.3" stroke-miterlimit="10" stroke-linecap="round" stroke-linejoin="round"/>
<path d="M12.6586 5.76497L11.0698 4.1687" stroke="#4B79BD" stroke-width="1.3" stroke-miterlimit="10" stroke-linecap="round" stroke-linejoin="round"/>
<path d="M5.0506 15.5858C4.23351 15.9051 3.5526 16.5436 3.18945 17.3645" stroke="#4B79BD" stroke-width="1.3" stroke-miterlimit="10" stroke-linecap="round" stroke-linejoin="round"/>
</svg>
