<svg width="19" height="31" viewBox="0 0 19 31" fill="none" xmlns="http://www.w3.org/2000/svg">
<path d="M5.6084 4.40174C7.20526 2.99843 9.62475 3.19199 11.0281 4.78885" stroke="#4B79BD" stroke-width="1.2" stroke-miterlimit="10" stroke-linecap="round" stroke-linejoin="round"/>
<path d="M4.25342 2.41786C6.7213 0.288706 10.5441 0.579045 12.7216 3.14371" stroke="#4B79BD" stroke-width="1.2" stroke-miterlimit="10" stroke-linecap="round" stroke-linejoin="round"/>
<path d="M9.57627 14.4668V7.30509C9.57627 6.48246 8.89881 5.85339 8.12458 5.85339C7.30195 5.85339 6.67288 6.53085 6.67288 7.30509V20.1768C6.67288 20.1768 4.97924 18.1444 3.81788 16.7895C3.23721 16.112 2.26941 16.0636 1.59195 16.5959H1.54356C0.962885 17.0798 0.817716 17.9508 1.25322 18.6283L6.86644 27.0481C7.25356 27.6288 7.78585 28.1127 8.36653 28.4514V29.9999" stroke="#4B79BD" stroke-width="1.2" stroke-miterlimit="10" stroke-linecap="round" stroke-linejoin="round"/>
<path d="M18.2864 15.5315V26.274C18.2864 27.5806 17.367 28.6935 16.1089 28.9839V30" stroke="#4B79BD" stroke-width="1.2" stroke-miterlimit="10" stroke-linecap="round" stroke-linejoin="round"/>
<path d="M9.57617 18.1446V13.596C9.57617 12.7734 10.2052 12.1443 11.0279 12.1443C11.8505 12.1443 12.4796 12.7734 12.4796 13.596V18.1446" stroke="#4B79BD" stroke-width="1.2" stroke-miterlimit="10" stroke-linecap="round" stroke-linejoin="round"/>
<path d="M12.4795 18.1445V13.6926C12.4795 12.87 13.1569 12.1925 13.9796 12.1925C14.8022 12.1925 15.4797 12.87 15.4797 13.6926V18.1445" stroke="#4B79BD" stroke-width="1.2" stroke-miterlimit="10" stroke-linecap="round" stroke-linejoin="round"/>
<path d="M15.4316 18.5801V15.4831C15.4316 14.7089 16.0607 14.0798 16.8349 14.0798C17.6092 14.0798 18.2383 14.7089 18.2383 15.4831V19.4027" stroke="#4B79BD" stroke-width="1.2" stroke-miterlimit="10" stroke-linecap="round" stroke-linejoin="round"/>
</svg>
