<svg width="28" height="28" viewBox="0 0 28 28" fill="none" xmlns="http://www.w3.org/2000/svg">
<path d="M25.7 12.7C25.31 12.7 24.9633 12.8733 24.7467 13.1333H23.9233C23.75 11.0533 22.9267 9.10333 21.6267 7.58667L22.19 7.02333C22.5367 7.02333 22.9267 6.93667 23.1867 6.63333C23.7067 6.11333 23.7067 5.29 23.1867 4.81333C22.6667 4.29333 21.8433 4.29333 21.3667 4.81333C21.1067 5.07333 20.9767 5.46333 20.9767 5.81L20.4133 6.37333C18.8967 5.07333 16.99 4.25 14.8667 4.07667V3.25333C15.1267 3.03667 15.3 2.69 15.3 2.3C15.3 1.56333 14.7367 1 14 1C13.2633 1 12.7 1.56333 12.7 2.3C12.7 2.69 12.8733 3.03667 13.1333 3.25333V4.07667C11.0533 4.25 9.10333 5.07333 7.58667 6.37333L7.02333 5.81C7.02333 5.46333 6.93667 5.07333 6.63333 4.81333C6.11333 4.29333 5.29 4.29333 4.81333 4.81333C4.29333 5.33333 4.29333 6.15667 4.81333 6.63333C5.07333 6.89333 5.46333 7.02333 5.81 7.02333L6.37333 7.58667C5.07333 9.10333 4.25 11.01 4.07667 13.1333H3.25333C3.03667 12.8733 2.69 12.7 2.3 12.7C1.56333 12.7 1 13.2633 1 14C1 14.7367 1.56333 15.3 2.3 15.3C2.69 15.3 3.03667 15.1267 3.25333 14.8667H4.07667C4.25 16.9467 5.07333 18.8967 6.37333 20.4133L5.81 20.9767C5.46333 20.9767 5.07333 21.0633 4.81333 21.3667C4.29333 21.8867 4.29333 22.71 4.81333 23.1867C5.33333 23.7067 6.15667 23.7067 6.63333 23.1867C6.89333 22.9267 7.02333 22.5367 7.02333 22.19L7.58667 21.6267C9.10333 22.9267 11.01 23.75 13.1333 23.9233V24.7467C12.8733 24.9633 12.7 25.31 12.7 25.7C12.7 26.4367 13.2633 27 14 27C14.7367 27 15.3 26.4367 15.3 25.7C15.3 25.31 15.1267 24.9633 14.8667 24.7467V23.9233C16.9467 23.75 18.8967 22.9267 20.4133 21.6267L20.9767 22.19C20.9767 22.5367 21.0633 22.9267 21.3667 23.1867C21.8867 23.7067 22.71 23.7067 23.1867 23.1867C23.7067 22.6667 23.7067 21.8433 23.1867 21.3667C22.9267 21.1067 22.5367 20.9767 22.19 20.9767L21.6267 20.4133C22.9267 18.8967 23.75 16.99 23.9233 14.8667H24.7467C24.9633 15.1267 25.31 15.3 25.7 15.3C26.4367 15.3 27 14.7367 27 14C27 13.2633 26.4367 12.7 25.7 12.7ZM21.7567 13.1333H16.47C16.4267 13.0467 16.3833 12.96 16.3833 12.8733L20.11 9.14667C20.9767 10.2733 21.5833 11.6167 21.7567 13.1333ZM18.8533 7.89L15.1267 11.6167C15.04 11.5733 14.9533 11.53 14.8667 11.53V6.24333C16.3833 6.41667 17.7267 7.02333 18.8533 7.89ZM13.1333 6.24333V11.53C13.0467 11.5733 12.96 11.6167 12.8733 11.6167L9.14667 7.89C10.2733 7.02333 11.6167 6.41667 13.1333 6.24333ZM7.89 9.14667L11.6167 12.8733C11.5733 12.96 11.53 13.0467 11.53 13.1333H6.24333C6.41667 11.6167 7.02333 10.2733 7.89 9.14667ZM6.24333 14.8667H11.53C11.5733 14.9533 11.6167 15.04 11.6167 15.1267L7.89 18.8533C7.02333 17.7267 6.41667 16.3833 6.24333 14.8667ZM9.14667 20.11L12.8733 16.3833C12.96 16.4267 13.0467 16.47 13.1333 16.47V21.7567C11.6167 21.5833 10.2733 20.9767 9.14667 20.11ZM14.8667 21.7567V16.47C14.9533 16.4267 15.04 16.3833 15.1267 16.3833L18.8533 20.11C17.7267 20.9767 16.3833 21.5833 14.8667 21.7567ZM20.11 18.8533L16.3833 15.1267C16.4267 15.04 16.47 14.9533 16.47 14.8667H21.7567C21.5833 16.3833 20.9767 17.7267 20.11 18.8533Z" stroke="#4B79BD" stroke-width="1.1" stroke-miterlimit="10" stroke-linecap="round" stroke-linejoin="round"/>
</svg>
