<svg width="21" height="21" viewBox="0 0 21 21" fill="none" xmlns="http://www.w3.org/2000/svg">
<path d="M1.41339 4.64422H6.80906C7.0801 5.69037 8.02375 6.46863 9.15351 6.46863C10.2833 6.46863 11.2269 5.69037 11.498 4.64422H19.5865C19.9209 4.64422 20.1922 4.37289 20.1922 4.03845C20.1922 3.70402 19.9209 3.43268 19.5865 3.43268H11.498C11.2269 2.38654 10.2833 1.60828 9.15351 1.60828C8.02375 1.60828 7.0801 2.38654 6.80906 3.43268H1.41339C1.07895 3.43268 0.807617 3.70402 0.807617 4.03845C0.807617 4.37289 1.07895 4.64422 1.41339 4.64422ZM9.15351 2.81981C9.82553 2.81981 10.3721 3.36643 10.3721 4.03845C10.3721 4.71048 9.82553 5.25709 9.15351 5.25709C8.48148 5.25709 7.93487 4.71048 7.93487 4.03845C7.93487 3.36643 8.48148 2.81981 9.15351 2.81981Z" fill="#4B79BD"/>
<path d="M19.5865 9.89423H18.2892C18.0182 8.84809 17.0745 8.06982 15.9447 8.06982C14.815 8.06982 13.8713 8.84809 13.6003 9.89423H1.41339C1.07895 9.89423 0.807617 10.1656 0.807617 10.5C0.807617 10.8344 1.07895 11.1058 1.41339 11.1058H13.6003C13.8713 12.1519 14.815 12.9302 15.9447 12.9302C17.0745 12.9302 18.0182 12.1519 18.2892 11.1058H19.5865C19.9209 11.1058 20.1922 10.8344 20.1922 10.5C20.1922 10.1656 19.9209 9.89423 19.5865 9.89423ZM15.9447 11.7186C15.2727 11.7186 14.7261 11.172 14.7261 10.5C14.7261 9.82797 15.2727 9.28136 15.9447 9.28136C16.6168 9.28136 17.1634 9.82797 17.1634 10.5C17.1634 11.172 16.6168 11.7186 15.9447 11.7186Z" fill="#4B79BD"/>
<path d="M19.5865 16.3558H7.84919C7.5782 15.3096 6.6346 14.5314 5.50548 14.5314C4.37573 14.5314 3.43207 15.3096 3.16104 16.3558H1.41339C1.07895 16.3558 0.807617 16.6271 0.807617 16.9615C0.807617 17.296 1.07895 17.5673 1.41339 17.5673H3.16104C3.43207 18.6135 4.37573 19.3917 5.50548 19.3917C6.6346 19.3917 7.5782 18.6135 7.84919 17.5673H19.5865C19.9209 17.5673 20.1922 17.296 20.1922 16.9615C20.1922 16.6271 19.9209 16.3558 19.5865 16.3558ZM5.50548 18.1802C4.83346 18.1802 4.28685 17.6336 4.28685 16.9615C4.28685 16.2895 4.83346 15.7429 5.50548 15.7429C6.17672 15.7429 6.72333 16.2895 6.72333 16.9615C6.72333 17.6336 6.17672 18.1802 5.50548 18.1802Z" fill="#4B79BD"/>
</svg>
