<svg width="25" height="26" viewBox="0 0 25 26" fill="none" xmlns="http://www.w3.org/2000/svg">
<path d="M12.2174 6.0885C13.5404 6.0885 14.613 4.99646 14.613 3.64935C14.613 2.30225 13.5404 1.21021 12.2174 1.21021C10.8943 1.21021 9.82178 2.30225 9.82178 3.64935C9.82178 4.99646 10.8943 6.0885 12.2174 6.0885Z" stroke="#4B79BD" stroke-width="1.5" stroke-miterlimit="10"/>
<path d="M21.5719 15.1696C21.5719 20.3963 17.3131 24.6938 12.1797 24.6938" stroke="#4B79BD" stroke-width="1.5" stroke-miterlimit="10"/>
<path d="M17.6087 18.2892C17.3217 18.5878 17.331 19.0626 17.6297 19.3496C17.9283 19.6367 18.4031 19.6273 18.6901 19.3287L17.6087 18.2892ZM21.6477 15.1696L22.3387 14.8778C22.2406 14.6455 22.0323 14.478 21.7843 14.4321C21.5363 14.3862 21.2818 14.468 21.107 14.6498L21.6477 15.1696ZM22.706 19.604C22.8671 19.9856 23.307 20.1643 23.6886 20.0032C24.0702 19.8421 24.249 19.4021 24.0878 19.0205L22.706 19.604ZM18.6901 19.3287L22.1884 15.6893L21.107 14.6498L17.6087 18.2892L18.6901 19.3287ZM20.9568 15.4613L22.706 19.604L24.0878 19.0205L22.3387 14.8778L20.9568 15.4613Z" fill="#4B79BD"/>
<path d="M2.8252 15.1696C2.8252 20.3963 7.08402 24.6938 12.1794 24.6938" stroke="#4B79BD" stroke-width="1.5" stroke-miterlimit="10"/>
<path d="M5.73683 18.9711C6.0402 19.2531 6.51476 19.2358 6.79679 18.9324C7.07881 18.629 7.06151 18.1545 6.75814 17.8724L5.73683 18.9711ZM2.74916 15.1696L3.25982 14.6203C3.08056 14.4536 2.83128 14.3849 2.59197 14.4362C2.35266 14.4875 2.15343 14.6523 2.05823 14.8778L2.74916 15.1696ZM0.309065 19.0205C0.147945 19.4021 0.326674 19.8421 0.708267 20.0032C1.08986 20.1643 1.52982 19.9856 1.69094 19.604L0.309065 19.0205ZM6.75814 17.8724L3.25982 14.6203L2.23851 15.7189L5.73683 18.9711L6.75814 17.8724ZM2.05823 14.8778L0.309065 19.0205L1.69094 19.604L3.4401 15.4613L2.05823 14.8778Z" fill="#4B79BD"/>
<path d="M12.2173 6.3208V25.1758" stroke="#4B79BD" stroke-width="1.3" stroke-miterlimit="10"/>
</svg>
