<svg width="23" height="23" viewBox="0 0 23 23" fill="none" xmlns="http://www.w3.org/2000/svg">
<circle cx="11.7493" cy="11.5809" r="10.993" fill="#E36B6B"/>
<path d="M9.1996 7.04641L10.1668 13.4537C10.2876 14.1791 10.8921 14.7835 11.7384 14.7835C12.4637 14.7835 13.1891 14.1791 13.31 13.4537L14.2771 7.04641C14.5189 5.4748 13.31 4.14502 11.7384 4.14502C10.1667 4.14493 9.07864 5.4748 9.1996 7.04641Z" fill="white"/>
<path d="M11.7383 19.0152C12.5396 19.0152 13.1891 18.3657 13.1891 17.5645C13.1891 16.7633 12.5396 16.1138 11.7383 16.1138C10.9371 16.1138 10.2876 16.7633 10.2876 17.5645C10.2876 18.3657 10.9371 19.0152 11.7383 19.0152Z" fill="white"/>
</svg>
