<svg width="25" height="26" viewBox="0 0 25 26" fill="none" xmlns="http://www.w3.org/2000/svg">
<path d="M11.818 16.8632C11.818 17.1143 12.0215 17.3178 12.2725 17.3178C12.5235 17.3178 12.7271 17.1143 12.7271 16.8632L12.7271 6.86324C12.7271 6.61221 12.5235 6.40869 12.2725 6.40869C12.0215 6.40869 11.818 6.6122 11.818 6.86324L11.818 16.8632Z" fill="#698FBF"/>
<path d="M8.32832 10.1468C8.13316 10.3419 8.13316 10.6583 8.32832 10.8535C8.52348 11.0487 8.8399 11.0487 9.03506 10.8535L12.2729 7.61571L15.5107 10.8535C15.7058 11.0487 16.0222 11.0487 16.2174 10.8535C16.4126 10.6583 16.4126 10.3419 16.2174 10.1468L12.6291 6.55851L12.6263 6.55556C12.4311 6.36038 12.1146 6.36038 11.9195 6.55556L11.9195 6.5556L8.32831 10.1468L8.32832 10.1468Z" fill="#698FBF"/>
<path d="M24.6775 11.8399L21.875 9.14186V4.4994C21.875 3.92029 21.4078 3.44936 20.8333 3.44936H15.9692L13.2095 0.791732C12.8062 0.402329 12.174 0.403098 11.7696 0.791989L9.01476 3.44936H4.16667C3.59217 3.44936 3.125 3.92029 3.125 4.4994V9.13676L0.321198 11.8404C0.116984 12.0375 0 12.3141 0 12.5989V24.45C0 25.0291 0.467173 25.5 1.04167 25.5H23.9583C24.5328 25.5 25 25.0291 25 24.45V12.5992C25 12.3139 24.8825 12.0373 24.6775 11.8399ZM23.6718 12.3234L21.875 13.6621V10.5936L23.6718 12.3234ZM12.4898 1.5508L14.4611 3.44936H10.5216L12.4898 1.5508ZM20.8333 4.4994V14.4382L12.5 20.6469L4.16667 14.4382V4.4994H20.8333ZM3.125 13.6621L1.32777 12.323L3.125 10.59V13.6621ZM1.04167 24.45V13.4155L12.0351 21.6065C12.0354 21.6066 12.0356 21.6067 12.0358 21.6068L12.1905 21.7221L12.2088 21.6972C12.303 21.736 12.4004 21.7621 12.5 21.7621C12.5998 21.7621 12.6972 21.736 12.7913 21.6972L12.8095 21.7221L12.9642 21.6068C12.9642 21.6068 12.9644 21.6068 12.9644 21.6067L23.9583 13.4155V24.45H1.04167Z" fill="#698FBF"/>
</svg>
