<svg width="26" height="26" viewBox="0 0 26 26" fill="none" xmlns="http://www.w3.org/2000/svg">
<path d="M12.9545 6.47417C12.9545 6.22313 12.751 6.01962 12.5 6.01962C12.2489 6.01962 12.0454 6.22313 12.0454 6.47417L12.0454 16.4742C12.0454 16.7252 12.2489 16.9287 12.5 16.9287C12.751 16.9287 12.9545 16.7252 12.9545 16.4742L12.9545 6.47417Z" fill="#698FBF"/>
<path d="M16.4441 13.1906C16.6393 12.9955 16.6393 12.6791 16.4441 12.4839C16.249 12.2887 15.9326 12.2887 15.7374 12.4839L12.4996 15.7217L9.2618 12.4839C9.06664 12.2887 8.75022 12.2887 8.55506 12.4839C8.3599 12.6791 8.3599 12.9955 8.55506 13.1906L12.1433 16.7789L12.1462 16.7818C12.3414 16.977 12.6578 16.977 12.853 16.7818L12.853 16.7818L16.4442 13.1906L16.4441 13.1906Z" fill="#698FBF"/>
<path d="M24.9046 11.8399L22.1021 9.14186V4.4994C22.1021 3.92029 21.6349 3.44936 21.0604 3.44936H16.1963L13.4366 0.791732C13.0332 0.402329 12.401 0.403098 11.9967 0.791989L9.24182 3.44936H4.39372C3.81922 3.44936 3.35205 3.92029 3.35205 4.4994V9.13676L0.548248 11.8404C0.344035 12.0375 0.227051 12.3141 0.227051 12.5989V24.45C0.227051 25.0291 0.694224 25.5 1.26872 25.5H24.1854C24.7599 25.5 25.2271 25.0291 25.2271 24.45V12.5992C25.2271 12.3139 25.1096 12.0373 24.9046 11.8399ZM23.8988 12.3234L22.1021 13.6621V10.5936L23.8988 12.3234ZM12.7169 1.5508L14.6882 3.44936H10.7487L12.7169 1.5508ZM21.0604 4.4994V14.4382L12.7271 20.6469L4.39372 14.4382V4.4994H21.0604ZM3.35205 13.6621L1.55482 12.323L3.35205 10.59V13.6621ZM1.26872 24.45V13.4155L12.2622 21.6065C12.2624 21.6066 12.2627 21.6067 12.2629 21.6068L12.4176 21.7221L12.4359 21.6972C12.53 21.736 12.6275 21.7621 12.7271 21.7621C12.8268 21.7621 12.9243 21.736 13.0183 21.6972L13.0365 21.7221L13.1913 21.6068C13.1913 21.6068 13.1914 21.6068 13.1914 21.6067L24.1854 13.4155V24.45H1.26872Z" fill="#698FBF"/>
</svg>
