<svg width="76" height="76" viewBox="0 0 76 76" fill="none" xmlns="http://www.w3.org/2000/svg">
<path d="M74.2966 67.0335L43.8779 32.4449C46.5237 28.3127 47.51 23.4598 46.6654 18.7293C45.8208 13.9987 43.1988 9.68931 39.2546 6.54957C35.3105 3.40982 30.2935 1.63812 25.0751 1.5422C19.8566 1.44627 14.7665 3.03218 10.6887 6.02446C6.61094 9.01675 3.80321 13.2263 2.75321 17.9221C1.7032 22.6178 2.47726 27.503 4.94094 31.7291C7.40461 35.9552 11.4022 39.2552 16.2395 41.056C21.0767 42.8567 26.4479 43.0444 31.4201 41.5865L37.4018 48.4426L45.2816 50.4644L43.208 55.1084L53.4167 59.7964L51.008 64.0595L60.0842 73.5381H72.8451L74.2966 67.0335ZM23.1574 15.6706C22.5672 14.9915 22.2094 14.1669 22.1292 13.3011C22.0491 12.4353 22.2502 11.5671 22.7071 10.8062C23.164 10.0453 23.8563 9.4259 24.6964 9.02623C25.5365 8.62657 26.4867 8.4646 27.427 8.56078C28.3673 8.65697 29.2555 9.00699 29.9793 9.56662C30.7031 10.1263 31.23 10.8704 31.4934 11.7049C31.7569 12.5395 31.745 13.4271 31.4594 14.2555C31.1738 15.0839 30.6273 15.816 29.8888 16.3592C29.3978 16.7203 28.8341 16.9891 28.2299 17.1499C27.6257 17.3108 26.9929 17.3607 26.3677 17.2968C25.7425 17.2328 25.1371 17.0563 24.5863 16.7772C24.0354 16.4982 23.5499 16.1222 23.1574 15.6706V15.6706Z" stroke="#3363A3" stroke-width="3" stroke-linecap="round" stroke-linejoin="round"/>
<path d="M72.781 73.5086L49.7635 47.6367" stroke="#3363A3" stroke-width="3" stroke-linecap="round" stroke-linejoin="round"/>
<path d="M7.38098 22.2339C7.3816 26.264 9.02634 30.1476 11.9908 33.1188" stroke="#3363A3" stroke-width="3" stroke-linecap="round" stroke-linejoin="round"/>
</svg>
