<svg width="48" height="49" viewBox="0 0 48 49" fill="none" xmlns="http://www.w3.org/2000/svg">
<path d="M24.0006 47.6662C36.7029 47.6662 47.0002 37.369 47.0002 24.6666C47.0002 11.9643 36.7029 1.66699 24.0006 1.66699C11.2983 1.66699 1.00098 11.9643 1.00098 24.6666C1.00098 37.369 11.2983 47.6662 24.0006 47.6662Z" stroke="#759ED6" stroke-width="1.7" stroke-miterlimit="10" stroke-linejoin="round"/>
<path d="M24.8036 1.79102C24.8036 1.79102 23.2587 3.15012 22.5173 3.89308C21.775 4.63455 20.2914 4.63455 21.0336 5.37676C21.775 6.11822 21.775 6.86044 21.775 6.86044L21.0336 7.60265C21.0336 7.60265 21.0336 8.34486 19.5492 9.08633C18.0655 9.82854 18.0655 9.08633 17.3233 9.82854C16.5811 10.5708 16.5811 10.5708 15.8396 10.5708C15.0981 10.5708 15.0981 11.313 14.3559 11.313C13.6144 11.313 14.3559 8.34486 14.3559 8.34486L15.8396 7.60265L17.3233 6.86044H18.0655C18.0655 6.86044 18.0655 5.37676 17.3233 5.37676C16.5811 5.37676 16.5811 5.37676 16.5811 5.37676C16.5811 5.37676 16.5811 4.63455 15.8388 3.89308C15.0974 3.15012 15.0974 3.15012 15.0974 3.15012" stroke="#759ED6" stroke-width="1.7" stroke-miterlimit="10" stroke-linejoin="round"/>
<path d="M8.7287 7.72656L9.90356 12.0538L9.16135 13.5374C9.16135 13.5374 7.67767 13.5374 7.67767 15.0211C7.67767 16.5048 6.93546 15.0211 7.67767 16.5048C8.41914 17.9885 7.67767 18.7307 7.67767 18.7307V19.4722V20.9558H5.45178C5.45178 20.9558 5.45178 20.9558 4.71032 20.9558C3.9681 20.9558 3.9681 20.9558 3.22664 21.6988C2.48368 22.4403 2.48368 22.4403 2.48368 23.1825C2.48368 23.9239 2.48368 23.9239 2.48368 23.9239L1 26.1498" stroke="#759ED6" stroke-width="1.7" stroke-miterlimit="10" stroke-linejoin="round"/>
<path d="M1.43262 28.501C2.17483 29.2417 4.70954 29.1179 4.70954 29.1179C4.70954 29.1179 6.19322 28.3764 6.93543 29.1179C7.67764 29.8601 7.67764 31.3438 7.67764 31.3438V32.086C7.67764 32.086 9.16132 34.3111 9.90353 34.3111C10.6457 34.3111 10.6457 34.3111 10.6457 34.3111C10.6457 34.3111 11.3872 35.0526 12.1294 35.0526C12.8709 35.0526 13.6131 35.7948 13.6131 35.7948C13.6131 35.7948 14.3546 38.0207 13.6131 38.0207C12.8709 38.0207 12.8709 38.7629 12.8709 38.7629C12.8709 38.7629 12.8709 41.7303 14.3546 42.4725C15.8382 43.2132 17.3227 43.9554 18.0649 44.6984C18.8064 45.4398 19.5486 44.6984 19.5486 45.4398C19.5486 46.1813 21.033 47.665 24.0003 47.665" stroke="#759ED6" stroke-width="1.7" stroke-miterlimit="10" stroke-linejoin="round"/>
<path d="M30.6772 15.0217C30.6772 14.2803 31.4195 12.7966 32.1617 12.7966C32.9031 12.7966 33.6446 12.7966 33.6446 12.7966L36.6127 9.82848C36.6127 9.82848 33.6446 9.08627 33.6446 8.3448C33.6446 7.60259 33.6446 6.86112 34.3861 6.11891C35.1283 5.37744 36.612 5.37744 36.612 5.37744" stroke="#759ED6" stroke-width="1.7" stroke-miterlimit="10" stroke-linejoin="round"/>
<path d="M46.9996 26.8932C46.9996 26.8932 44.7745 24.6673 44.7745 25.4087C44.7745 26.151 44.033 26.8932 44.033 28.3768C44.033 29.8605 43.2901 32.0872 43.2901 32.0872L41.8072 30.6042L42.5479 26.8939L40.322 24.6673H38.839C38.839 24.6673 39.5805 26.151 39.5805 26.8932C39.5805 27.6346 39.5805 29.8605 39.5805 29.8605C39.5805 29.8605 38.0976 32.8286 38.0976 33.5708C38.0976 34.313 37.3554 33.5708 36.6132 35.0538C35.8717 36.5382 35.1295 36.5382 34.3873 38.0219C33.6458 39.5055 32.1629 40.247 31.4199 41.7314C30.6777 43.2144 29.937 42.4737 29.937 41.7314C29.937 40.9892 28.4518 39.5063 29.194 38.7641C29.937 38.0219 29.194 37.2797 29.937 36.5382C30.6777 35.796 31.4199 35.796 30.6777 35.0538C29.937 34.3123 29.194 34.3123 29.194 33.5708C29.194 32.8294 29.194 30.6035 29.194 30.6035C29.194 30.6035 27.7103 28.3768 26.9689 29.1183C26.2274 29.8605 25.4852 30.6035 25.4852 30.6035L22.5171 28.3768L24.4334 23.1836" stroke="#759ED6" stroke-width="1.7" stroke-miterlimit="10" stroke-linejoin="round"/>
<path d="M30.6779 15.8197C30.6779 18.7207 27.2771 24.6592 26.2552 24.6592C25.2347 24.6592 21.834 18.7215 21.834 15.8197C21.834 13.329 23.8137 11.312 26.2552 11.312C28.6981 11.312 30.6779 13.329 30.6779 15.8197Z" stroke="#759ED6" stroke-width="1.7" stroke-miterlimit="10" stroke-linejoin="round"/>
<path d="M26.2107 16.5049C26.6141 16.5049 26.941 16.1729 26.941 15.7634C26.941 15.3539 26.6141 15.022 26.2107 15.022C25.8074 15.022 25.4805 15.3539 25.4805 15.7634C25.4805 16.1729 25.8074 16.5049 26.2107 16.5049Z" stroke="#759ED6" stroke-width="1.7" stroke-miterlimit="10" stroke-linejoin="round"/>
</svg>
