<svg width="36" height="31" viewBox="0 0 36 31" fill="none" xmlns="http://www.w3.org/2000/svg">
<path d="M4.98438 12.4219V8.79688C4.98438 8.79688 8.15625 3.35937 24.4688 6.98438V7.89652C24.4688 9.58123 23.504 10.9202 21.8225 10.8165C18.8609 10.6352 14.4039 10.5033 11.3281 11.0625C6.34375 11.9688 4.98438 12.4219 4.98438 12.4219Z" stroke="#698FBF" stroke-width="1.5" stroke-linecap="round" stroke-linejoin="round"/>
<path d="M12.6873 29.6406V24.1125C12.688 23.2323 12.4131 22.374 11.9011 21.658C11.3891 20.9421 10.6658 20.4044 9.83264 20.1205C7.39619 19.2917 4.07795 18.0406 2.71858 16.9531C0.452953 15.1406 0.906078 13.3281 1.81233 12.875C2.71858 12.4219 4.9842 12.4219 4.9842 12.4219" stroke="#698FBF" stroke-width="1.5" stroke-linecap="round" stroke-linejoin="round"/>
<path d="M4.88943 9.68139C4.88943 9.68139 2.11721 9.83908 4.07788 6.53126C5.78662 3.64893 8.83569 2 15.406 1.54688C21.9763 1.77344 23.1091 2.90626 25.3748 4.71876C27.6404 6.53126 28.5466 11.9688 27.1873 15.1406C26.3141 17.1797 22.2622 19.0284 19.476 20.0915C18.6782 20.3961 17.9918 20.936 17.5078 21.6395C17.0237 22.343 16.7648 23.177 16.7654 24.0309V29.6406" stroke="#698FBF" stroke-width="1.5" stroke-linecap="round" stroke-linejoin="round"/>
<path d="M35.0045 25.9962C35.4187 25.9937 35.7525 25.6559 35.75 25.2417C35.7475 24.8275 35.4097 24.4938 34.9955 24.4963L35.0045 25.9962ZM22.2104 25.3235L21.6815 24.7918C21.5392 24.9333 21.4596 25.1259 21.4604 25.3266C21.4613 25.5272 21.5425 25.7192 21.6859 25.8595L22.2104 25.3235ZM26.3943 30.4667C26.6903 30.7564 27.1652 30.7513 27.4549 30.4552C27.7446 30.1591 27.7394 29.6843 27.4433 29.3946L26.3943 30.4667ZM27.3478 21.2704C27.6414 20.9783 27.6426 20.5034 27.3505 20.2097C27.0584 19.9161 26.5835 19.9149 26.2898 20.207L27.3478 21.2704ZM34.9955 24.4963L22.2059 24.5735L22.215 26.0735L35.0045 25.9962L34.9955 24.4963ZM21.6859 25.8595L26.3943 30.4667L27.4433 29.3946L22.735 24.7874L21.6859 25.8595ZM22.7394 25.8552L27.3478 21.2704L26.2898 20.207L21.6815 24.7918L22.7394 25.8552Z" fill="#698FBF"/>
</svg>
