<svg width="27" height="27" viewBox="0 0 27 27" fill="none" xmlns="http://www.w3.org/2000/svg">
<path d="M22.8772 23.6164L13.8265 11.6065C14.6137 10.1717 14.9072 8.4867 14.6559 6.84415C14.4046 5.2016 13.6244 3.70528 12.4509 2.61509C11.2774 1.52491 9.78466 0.909735 8.23199 0.876427C6.67932 0.84312 5.16481 1.39378 3.95153 2.43277C2.73825 3.47175 1.90285 4.93341 1.59044 6.56387C1.27802 8.19433 1.50833 9.89057 2.24137 11.358C2.9744 12.8254 4.16384 13.9712 5.60309 14.5965C7.04233 15.2217 8.64046 15.2869 10.1199 14.7806L11.8996 17.1613L14.2442 17.8632L13.6272 19.4757L16.6646 21.1035L15.948 22.5838L18.6485 25.8749H22.4453L22.8772 23.6164ZM7.66143 5.78212C7.48581 5.54631 7.37935 5.26001 7.3555 4.95937C7.33165 4.65874 7.39149 4.35728 7.52744 4.09309C7.66339 3.82889 7.86936 3.61382 8.11933 3.47504C8.36929 3.33627 8.65202 3.28003 8.93179 3.31343C9.21157 3.34683 9.47583 3.46836 9.69118 3.66268C9.90652 3.85699 10.0633 4.11537 10.1417 4.40515C10.2201 4.69493 10.2166 5.00312 10.1316 5.29076C10.0466 5.5784 9.88397 5.83258 9.66425 6.02119C9.51816 6.1466 9.35043 6.23991 9.17066 6.29577C8.99089 6.35163 8.80261 6.36895 8.61659 6.34675C8.43057 6.32454 8.25046 6.26324 8.08656 6.16636C7.92266 6.06947 7.7782 5.9389 7.66143 5.78212V5.78212Z" stroke="#698FBF" stroke-linecap="round" stroke-linejoin="round"/>
<path d="M22.4261 25.8646L15.5776 16.8813" stroke="#698FBF" stroke-linecap="round" stroke-linejoin="round"/>
<path d="M2.96729 8.06104C2.96747 9.46036 3.45684 10.8088 4.33889 11.8405" stroke="#698FBF" stroke-linecap="round" stroke-linejoin="round"/>
<path d="M22.5632 1.39611C22.5632 1.10818 22.3454 0.874755 22.0768 0.874755C21.8081 0.874755 21.5903 1.10818 21.5903 1.39611L21.5903 12.8659C21.5903 13.1538 21.8081 13.3872 22.0768 13.3872C22.3454 13.3872 22.5632 13.1538 22.5632 12.8659L22.5632 1.39611Z" fill="#698FBF"/>
<path d="M26.2978 9.10029C26.5066 8.87644 26.5066 8.51352 26.2978 8.28967C26.0889 8.06583 25.7503 8.06583 25.5415 8.28967L22.0766 12.0033L18.6117 8.28967C18.4028 8.06583 18.0642 8.06583 17.8554 8.28967C17.6465 8.51352 17.6465 8.87644 17.8554 9.10029L21.6953 13.2159L21.6984 13.2193C21.9072 13.4432 22.2459 13.4432 22.4548 13.2193L22.4547 13.2193L26.2978 9.1003L26.2978 9.10029Z" fill="#698FBF"/>
</svg>
