<svg width="60" height="59" viewBox="0 0 60 59" fill="none" xmlns="http://www.w3.org/2000/svg">
<path d="M52.847 52.4409L31.1178 25.5386C33.0078 22.3247 33.7123 18.5503 33.109 14.8709C32.5057 11.1916 30.6327 7.83984 27.8152 5.39782C24.9978 2.9558 21.414 1.57781 17.6862 1.5032C13.9585 1.42859 10.3224 2.66207 7.40955 4.9894C4.49666 7.31674 2.491 10.5909 1.74094 14.2431C0.990888 17.8953 1.54383 21.6949 3.30372 24.9819C5.06361 28.2689 7.91926 30.8356 11.3747 32.2361C14.8301 33.6367 18.6669 33.7827 22.2187 32.6487L26.4917 37.9813L32.1205 39.5538L30.6392 43.1658L37.9317 46.812L36.2111 50.1278L42.6945 57.5H51.8101L52.847 52.4409ZM16.3164 12.492C15.8948 11.9638 15.6392 11.3224 15.5819 10.649C15.5247 9.97561 15.6683 9.30033 15.9947 8.70853C16.3211 8.11673 16.8156 7.63496 17.4158 7.32411C18.0159 7.01327 18.6947 6.88729 19.3664 6.9621C20.038 7.03691 20.6725 7.30915 21.1895 7.74441C21.7065 8.17968 22.0829 8.75844 22.2711 9.40756C22.4593 10.0567 22.4509 10.747 22.2468 11.3913C22.0428 12.0356 21.6524 12.605 21.1249 13.0275C20.7741 13.3084 20.3714 13.5174 19.9398 13.6426C19.5082 13.7677 19.0562 13.8065 18.6096 13.7567C18.163 13.707 17.7306 13.5697 17.3371 13.3527C16.9436 13.1356 16.5968 12.8432 16.3164 12.492V12.492Z" stroke="#064390" stroke-width="2" stroke-linecap="round" stroke-linejoin="round"/>
<path d="M51.7643 57.4771L35.3221 37.3545" stroke="#064390" stroke-width="2" stroke-linecap="round" stroke-linejoin="round"/>
<path d="M5.04675 17.5967C5.04719 20.7312 6.22209 23.7518 8.33975 26.0627" stroke="#064390" stroke-width="2" stroke-linecap="round" stroke-linejoin="round"/>
<path d="M47.7567 28.3601C47.7567 29.0051 48.2796 29.528 48.9246 29.528C49.5695 29.528 50.0924 29.0051 50.0924 28.3601L50.0924 2.66784C50.0924 2.02287 49.5695 1.5 48.9246 1.5C48.2796 1.5 47.7567 2.02287 47.7567 2.66784L47.7567 28.3601Z" fill="#064390"/>
<path d="M38.7904 11.1027C38.289 11.6041 38.289 12.4171 38.7904 12.9185C39.2918 13.4199 40.1048 13.4199 40.6062 12.9185L48.9248 4.59985L57.2435 12.9185C57.7449 13.4199 58.5578 13.4199 59.0592 12.9185C59.5607 12.4171 59.5607 11.6041 59.0592 11.1027L49.8402 1.88368L49.8328 1.87609C49.3313 1.37464 48.5183 1.37463 48.0168 1.87609L48.0169 1.87619L38.7904 11.1027L38.7904 11.1027Z" fill="#064390"/>
</svg>
