<svg width="27" height="27" viewBox="0 0 27 27" fill="none" xmlns="http://www.w3.org/2000/svg">
<path d="M23.6158 23.4915L14.2531 11.4815C15.0675 10.0467 15.371 8.36172 15.1111 6.71917C14.8511 5.07661 14.044 3.58029 12.8301 2.4901C11.6161 1.39991 10.0719 0.784735 8.46567 0.751427C6.85946 0.718119 5.29274 1.26878 4.03762 2.30777C2.78251 3.34676 1.91831 4.80842 1.59512 6.43889C1.27194 8.06935 1.51019 9.7656 2.26849 11.233C3.0268 12.7004 4.25725 13.8462 5.74612 14.4715C7.23499 15.0968 8.88822 15.1619 10.4186 14.6557L12.2598 17.0363L14.6851 17.7383L14.0469 19.3508L17.1891 20.9786L16.4477 22.4588L19.2413 25.75H23.169L23.6158 23.4915ZM7.87543 5.65713C7.69376 5.42133 7.58363 5.13502 7.55896 4.83439C7.53429 4.53375 7.59618 4.23229 7.73682 3.96809C7.87746 3.7039 8.09054 3.48882 8.34912 3.35005C8.6077 3.21128 8.90018 3.15504 9.1896 3.18844C9.47902 3.22183 9.75239 3.34337 9.97516 3.53769C10.1979 3.732 10.3601 3.99038 10.4412 4.28016C10.5223 4.56994 10.5187 4.87813 10.4307 5.16577C10.3428 5.45341 10.1746 5.7076 9.94731 5.89621C9.79618 6.02162 9.62267 6.11492 9.4367 6.17078C9.25074 6.22664 9.05596 6.24397 8.86353 6.22176C8.67109 6.19956 8.48477 6.13826 8.31522 6.04137C8.14567 5.94449 7.99623 5.81392 7.87543 5.65713V5.65713Z" stroke="#698FBF" stroke-linecap="round" stroke-linejoin="round"/>
<path d="M23.1491 25.7396L16.0645 16.7563" stroke="#698FBF" stroke-linecap="round" stroke-linejoin="round"/>
<path d="M3.01953 7.93604C3.01972 9.33537 3.52596 10.6838 4.43842 11.7155" stroke="#698FBF" stroke-linecap="round" stroke-linejoin="round"/>
<path d="M21.4228 12.7411C21.4228 13.0291 21.6481 13.2625 21.926 13.2625C22.2039 13.2625 22.4292 13.0291 22.4292 12.7411L22.4292 1.27136C22.4292 0.983426 22.2039 0.75 21.926 0.75C21.6481 0.75 21.4228 0.983425 21.4228 1.27136L21.4228 12.7411Z" fill="#698FBF"/>
<path d="M17.5591 5.03693C17.343 5.26078 17.343 5.6237 17.5591 5.84755C17.7751 6.07139 18.1254 6.07139 18.3414 5.84755L21.9258 2.13386L25.5102 5.84755C25.7262 6.07139 26.0765 6.07139 26.2926 5.84755C26.5086 5.6237 26.5086 5.26078 26.2926 5.03693L22.3202 0.921284L22.317 0.917899C22.101 0.694033 21.7506 0.694033 21.5346 0.917899L21.5346 0.917941L17.559 5.03692L17.5591 5.03693Z" fill="#698FBF"/>
</svg>
