<svg width="18" height="23" viewBox="0 0 18 23" fill="none" xmlns="http://www.w3.org/2000/svg">
<path d="M1.37271 21.834H8.18926C8.395 21.834 8.56197 21.6901 8.56197 21.5129C8.56197 21.3356 8.395 21.1917 8.18926 21.1917H1.37271C1 20.6872 1 20.1827 1 21.5129C1 21.6901 1.16697 21.834 1.37271 21.834Z" fill="white" stroke="white" stroke-width="0.5"/>
<path fill-rule="evenodd" clip-rule="evenodd" d="M3.67178 13.6743L1.0671 17.3953C1.02386 17.4579 1 17.5325 1 17.6093V20.5916C1 20.7974 1.16701 20.9644 1.37279 20.9644C1.4427 20.9644 1.50813 21.0803 1.56406 21.1794C1.67277 21.3719 1.74558 21.5009 1.74558 20.5916V17.7263L4.19555 14.2264C4.16438 14.1961 4.13338 14.1655 4.10254 14.1346C3.9528 13.9849 3.80921 13.8314 3.67178 13.6743Z" fill="white"/>
<path d="M1.0671 17.3953L0.86229 17.2519L0.861378 17.2532L1.0671 17.3953ZM3.67178 13.6743L3.85991 13.5097L3.64987 13.2697L3.46697 13.531L3.67178 13.6743ZM1.56406 21.1794L1.78176 21.0565H1.78176L1.56406 21.1794ZM1.74558 17.7263L1.54078 17.583L1.49558 17.6475V17.7263H1.74558ZM4.19555 14.2264L4.40035 14.3697L4.52232 14.1955L4.36989 14.0472L4.19555 14.2264ZM4.10254 14.1346L3.92576 14.3114V14.3114L4.10254 14.1346ZM1.27191 17.5387L3.87659 13.8177L3.46697 13.531L0.862295 17.2519L1.27191 17.5387ZM1.25 17.6093C1.25 17.5843 1.25777 17.5591 1.27283 17.5373L0.861378 17.2532C0.789946 17.3567 0.75 17.4806 0.75 17.6093H1.25ZM1.25 20.5916V17.6093H0.75V20.5916H1.25ZM1.37279 20.7144C1.30508 20.7144 1.25 20.6593 1.25 20.5916H0.75C0.75 20.9355 1.02894 21.2144 1.37279 21.2144V20.7144ZM1.78176 21.0565C1.75623 21.0112 1.7167 20.9402 1.67119 20.8815C1.64798 20.8516 1.61533 20.8143 1.57266 20.7828C1.52985 20.7513 1.46149 20.7144 1.37279 20.7144V21.2144C1.31904 21.2144 1.28508 21.192 1.27595 21.1853C1.26696 21.1786 1.26727 21.1765 1.27614 21.188C1.28408 21.1982 1.29418 21.2131 1.30685 21.234C1.31945 21.2547 1.33202 21.2769 1.34635 21.3023L1.78176 21.0565ZM1.49558 20.5916C1.49558 20.8169 1.49103 20.972 1.48322 21.0753C1.4793 21.1271 1.47489 21.1613 1.47097 21.1826C1.4661 21.2089 1.46476 21.1995 1.47694 21.1775C1.48906 21.1556 1.5571 21.0551 1.69463 21.0691C1.7461 21.0743 1.78133 21.0953 1.79732 21.1065C1.81395 21.1181 1.82328 21.1285 1.82542 21.1309C1.8292 21.1352 1.82658 21.1329 1.8161 21.1159C1.80659 21.1004 1.79594 21.0816 1.78176 21.0565L1.34635 21.3023C1.36722 21.3392 1.40706 21.4127 1.45115 21.4624C1.4663 21.4795 1.53227 21.5551 1.64391 21.5665C1.80059 21.5825 1.88622 21.4705 1.91424 21.4199C1.94231 21.3693 1.95517 21.3139 1.96266 21.2734C1.97109 21.2277 1.97719 21.174 1.9818 21.113C1.99104 20.9908 1.99558 20.8209 1.99558 20.5916H1.49558ZM1.49558 17.7263V20.5916H1.99558V17.7263H1.49558ZM3.99074 14.083L1.54078 17.583L1.95039 17.8697L4.40035 14.3697L3.99074 14.083ZM4.36989 14.0472C4.33954 14.0177 4.30935 13.9879 4.27931 13.9579L3.92576 14.3114C3.95741 14.3431 3.98923 14.3744 4.02121 14.4056L4.36989 14.0472ZM4.27931 13.9579C4.13349 13.812 3.9937 13.6625 3.85991 13.5097L3.48365 13.839C3.62473 14.0002 3.7721 14.1578 3.92576 14.3114L4.27931 13.9579Z" fill="white"/>
<path d="M10.7044 17.2364C8.20076 17.2364 5.71349 16.2708 3.8391 14.3964C0.572697 11.1308 0.0656996 5.98103 2.63349 2.15321C2.74831 1.98322 2.97944 1.93624 3.15092 2.05181C3.32166 2.16588 3.36789 2.39776 3.25307 2.5685C0.882859 6.10182 1.35109 10.8542 4.36623 13.8693C7.39628 16.8994 12.165 17.3579 15.7028 14.9579C15.8728 14.8438 16.1054 14.887 16.221 15.0578C16.3366 15.2285 16.2918 15.4596 16.1218 15.5752C14.4763 16.6913 12.5855 17.2364 10.7044 17.2364Z" fill="white" stroke="white" stroke-width="0.5"/>
<path d="M17.2826 14.5065C17.1872 14.5065 17.0918 14.47 17.0187 14.3977L3.83902 1.21722C3.69363 1.07183 3.69363 0.835485 3.83902 0.690096C3.98441 0.544707 4.22076 0.544707 4.36615 0.690096L17.5466 13.8705C17.692 14.0159 17.692 14.2523 17.5466 14.3977C17.4735 14.47 17.3781 14.5065 17.2826 14.5065Z" fill="white" stroke="white" stroke-width="0.5"/>
<path d="M17.1144 7.83207C16.9086 7.83207 16.7416 7.66506 16.7416 7.45928C16.7416 4.17051 14.0657 1.49461 10.777 1.49461C10.5712 1.49461 10.4042 1.3276 10.4042 1.12182C10.4042 0.916034 10.5712 0.749023 10.777 0.749023C14.4766 0.749023 17.4872 3.75894 17.4872 7.45928C17.4872 7.66506 17.3202 7.83207 17.1144 7.83207Z" fill="white" stroke="white" stroke-width="0.5"/>
<path d="M13.8123 6.66032C13.6065 6.66032 13.4395 6.49331 13.4395 6.28753C13.4395 5.46515 12.7707 4.79636 11.9484 4.79636C11.7426 4.79636 11.5756 4.62935 11.5756 4.42357C11.5756 4.21779 11.7426 4.05078 11.9484 4.05078C13.1815 4.05078 14.1851 5.05434 14.1851 6.28753C14.1851 6.49331 14.0181 6.66032 13.8123 6.66032Z" fill="white" stroke="white" stroke-width="0.5"/>
</svg>
