<svg width="37" height="31" viewBox="0 0 37 31" fill="none" xmlns="http://www.w3.org/2000/svg">
<path d="M4.98438 12.4219V8.79688C4.98438 8.79688 8.15625 3.35937 24.4688 6.98438V7.89652C24.4688 9.58123 23.504 10.9202 21.8225 10.8165C18.8609 10.6352 14.4039 10.5033 11.3281 11.0625C6.34375 11.9688 4.98438 12.4219 4.98438 12.4219Z" stroke="#698FBF" stroke-width="1.5" stroke-linecap="round" stroke-linejoin="round"/>
<path d="M12.6873 29.6406V24.1125C12.688 23.2323 12.4131 22.374 11.9011 21.658C11.3891 20.9421 10.6658 20.4044 9.83264 20.1205C7.39619 19.2917 4.07795 18.0406 2.71858 16.9531C0.452953 15.1406 0.906078 13.3281 1.81233 12.875C2.71858 12.4219 4.9842 12.4219 4.9842 12.4219" stroke="#698FBF" stroke-width="1.5" stroke-linecap="round" stroke-linejoin="round"/>
<path d="M4.88943 9.68139C4.88943 9.68139 2.11721 9.83908 4.07788 6.53126C5.78662 3.64893 8.83569 2 15.406 1.54688C21.9763 1.77344 23.1091 2.90626 25.3748 4.71876C27.6404 6.53126 28.5466 11.9688 27.1873 15.1406C26.3141 17.1797 22.2622 19.0284 19.476 20.0915C18.6782 20.3961 17.9918 20.936 17.5078 21.6395C17.0237 22.343 16.7648 23.177 16.7654 24.0309V29.6406" stroke="#698FBF" stroke-width="1.5" stroke-linecap="round" stroke-linejoin="round"/>
<path d="M22.9527 24.6036C22.5385 24.6016 22.2011 24.9357 22.1991 25.3499C22.1971 25.7642 22.5313 26.1016 22.9455 26.1036L22.9527 24.6036ZM35.7387 25.4154L36.2619 25.9528C36.4057 25.8128 36.4874 25.6211 36.4887 25.4204C36.4901 25.2197 36.411 25.0269 36.2691 24.885L35.7387 25.4154ZM31.611 20.2269C31.3182 19.934 30.8433 19.934 30.5504 20.2269C30.2575 20.5198 30.2575 20.9947 30.5504 21.2876L31.611 20.2269ZM30.5576 29.4124C30.2608 29.7013 30.2545 30.1761 30.5434 30.4729C30.8323 30.7697 31.3072 30.7761 31.604 30.4872L30.5576 29.4124ZM22.9455 26.1036L35.7351 26.1654L35.7424 24.6654L22.9527 24.6036L22.9455 26.1036ZM36.2691 24.885L31.611 20.2269L30.5504 21.2876L35.2084 25.9457L36.2691 24.885ZM35.2156 24.878L30.5576 29.4124L31.604 30.4872L36.2619 25.9528L35.2156 24.878Z" fill="#698FBF"/>
</svg>
