<svg width="65" height="66" viewBox="0 0 65 66" fill="none" xmlns="http://www.w3.org/2000/svg">
<path d="M63.6091 30.0195L56.4087 23.0877V11.1601C56.4087 9.67228 55.2084 8.46236 53.7324 8.46236H41.2354L34.1451 1.63429C33.1089 0.633826 31.4845 0.635802 30.4456 1.63495L23.3678 8.46236H10.9119C9.43591 8.46236 8.23563 9.67228 8.23563 11.1601V23.0746L1.03202 30.0208C0.507346 30.5273 0.206787 31.238 0.206787 31.9697V62.4178C0.206787 63.9056 1.40706 65.1155 2.88307 65.1155H61.7613C63.2373 65.1155 64.4376 63.9056 64.4376 62.4178V31.9704C64.4376 31.2373 64.1357 30.5266 63.6091 30.0195ZM61.0251 31.2617L56.4087 34.7012V26.8175L61.0251 31.2617ZM32.296 3.58451L37.3608 8.46236H27.2393L32.296 3.58451ZM53.7324 11.1601V36.6951L32.3222 52.6469L10.9119 36.6951V11.1601H53.7324ZM8.23563 34.7012L3.61813 31.2609L8.23563 26.8084V34.7012ZM2.88307 62.4178V34.0676L31.1278 55.1122C31.1284 55.1126 31.1291 55.1127 31.1296 55.1131L31.527 55.4092L31.574 55.3452C31.816 55.4449 32.0664 55.512 32.3222 55.512C32.5785 55.512 32.8289 55.4449 33.0705 55.3453L33.1173 55.4092L33.5149 55.113C33.5149 55.1129 33.5153 55.1129 33.5153 55.1128L61.7613 34.0676V62.4178H2.88307Z" fill="#064390"/>
<path d="M41.9721 21.0508L29.8721 35.3508L22.3721 29.4508L20.5721 31.8508L30.1721 39.0508L30.2721 39.1508L44.0721 22.8508L41.9721 21.0508Z" fill="#3363A3"/>
</svg>
