<svg width="12" height="12" viewBox="0 0 12 12" fill="none" xmlns="http://www.w3.org/2000/svg">
<path fill-rule="evenodd" clip-rule="evenodd" d="M7.97665 7.50335H8.50332L11.3338 10.3395C11.6079 10.6142 11.6077 11.059 11.3333 11.3333C11.0589 11.6077 10.6141 11.608 10.3395 11.3338L7.50332 8.50335V7.97668L7.32332 7.79001C6.56332 8.44335 5.57665 8.83668 4.50332 8.83668C2.10998 8.83668 0.169983 6.89668 0.169983 4.50335C0.169983 2.11001 2.10998 0.170013 4.50332 0.170013C6.89665 0.170013 8.83665 2.11001 8.83665 4.50335C8.83665 5.57668 8.44332 6.56335 7.78998 7.32335L7.97665 7.50335ZM1.50332 4.50335C1.50332 6.16335 2.84332 7.50335 4.50332 7.50335C6.16332 7.50335 7.50332 6.16335 7.50332 4.50335C7.50332 2.84335 6.16332 1.50335 4.50332 1.50335C2.84332 1.50335 1.50332 2.84335 1.50332 4.50335Z" fill="#649FF8"/>
</svg>
