<svg width="18" height="22" viewBox="0 0 18 22" fill="none" xmlns="http://www.w3.org/2000/svg">
<g opacity="0.25">
<path d="M1.24197 21.5415H8.05853C8.26426 21.5415 8.43123 21.3976 8.43123 21.2204C8.43123 21.0431 8.26426 20.8993 8.05853 20.8993H1.24197C0.869263 20.3947 0.869263 19.8902 0.869263 21.2204C0.869263 21.3976 1.03624 21.5415 1.24197 21.5415Z" fill="white" stroke="white" stroke-width="0.5"/>
<path fill-rule="evenodd" clip-rule="evenodd" d="M3.54105 13.3818L0.936365 17.1028C0.893121 17.1654 0.869263 17.24 0.869263 17.3168V20.2991C0.869263 20.5049 1.03627 20.6719 1.24205 20.6719C1.31196 20.6719 1.37739 20.7878 1.43332 20.8869C1.54203 21.0795 1.61485 21.2084 1.61485 20.2991V17.4338L4.06481 13.9339C4.03365 13.9036 4.00264 13.873 3.9718 13.8422C3.82206 13.6924 3.67847 13.5389 3.54105 13.3818Z" fill="white"/>
<path d="M0.936365 17.1028L0.731553 16.9594L0.730641 16.9608L0.936365 17.1028ZM3.54105 13.3818L3.72918 13.2172L3.51913 12.9772L3.33624 13.2385L3.54105 13.3818ZM1.43332 20.8869L1.65103 20.764H1.65103L1.43332 20.8869ZM1.61485 17.4338L1.41004 17.2905L1.36485 17.355V17.4338H1.61485ZM4.06481 13.9339L4.26962 14.0773L4.39158 13.903L4.23915 13.7547L4.06481 13.9339ZM3.9718 13.8422L3.79502 14.0189V14.0189L3.9718 13.8422ZM1.14117 17.2462L3.74585 13.5252L3.33624 13.2385L0.731557 16.9594L1.14117 17.2462ZM1.11926 17.3168C1.11926 17.2919 1.12703 17.2667 1.14209 17.2449L0.730641 16.9608C0.659209 17.0642 0.619263 17.1881 0.619263 17.3168H1.11926ZM1.11926 20.2991V17.3168H0.619263V20.2991H1.11926ZM1.24205 20.4219C1.17434 20.4219 1.11926 20.3668 1.11926 20.2991H0.619263C0.619263 20.643 0.898203 20.9219 1.24205 20.9219V20.4219ZM1.65103 20.764C1.62549 20.7188 1.58596 20.6477 1.54046 20.589C1.51724 20.5591 1.48459 20.5218 1.44192 20.4903C1.39911 20.4588 1.33076 20.4219 1.24205 20.4219V20.9219C1.1883 20.9219 1.15434 20.8995 1.14521 20.8928C1.13622 20.8862 1.13653 20.8841 1.1454 20.8955C1.15334 20.9057 1.16344 20.9207 1.17611 20.9415C1.18871 20.9622 1.20129 20.9844 1.21562 21.0098L1.65103 20.764ZM1.36485 20.2991C1.36485 20.5245 1.36029 20.6795 1.35248 20.7828C1.34857 20.8346 1.34415 20.8688 1.34023 20.8901C1.33536 20.9165 1.33402 20.907 1.3462 20.885C1.35832 20.8631 1.42636 20.7626 1.56389 20.7766C1.61537 20.7818 1.65059 20.8028 1.66658 20.814C1.68321 20.8256 1.69255 20.836 1.69468 20.8384C1.69847 20.8427 1.69584 20.8404 1.68536 20.8234C1.67585 20.8079 1.6652 20.7891 1.65103 20.764L1.21562 21.0098C1.23648 21.0468 1.27633 21.1202 1.32041 21.1699C1.33557 21.1871 1.40153 21.2626 1.51317 21.274C1.66985 21.29 1.75548 21.178 1.7835 21.1274C1.81157 21.0768 1.82443 21.0214 1.83192 20.9809C1.84035 20.9352 1.84645 20.8815 1.85106 20.8205C1.8603 20.6983 1.86485 20.5284 1.86485 20.2991H1.36485ZM1.36485 17.4338V20.2991H1.86485V17.4338H1.36485ZM3.86 13.7905L1.41004 17.2905L1.81965 17.5772L4.26962 14.0773L3.86 13.7905ZM4.23915 13.7547C4.2088 13.7252 4.17861 13.6954 4.14857 13.6654L3.79502 14.0189C3.82667 14.0506 3.85849 14.082 3.89047 14.1131L4.23915 13.7547ZM4.14857 13.6654C4.00276 13.5196 3.86296 13.3701 3.72918 13.2172L3.35292 13.5465C3.49399 13.7077 3.64136 13.8653 3.79502 14.0189L4.14857 13.6654Z" fill="white"/>
<path d="M10.5737 16.9439C8.07002 16.9439 5.58276 15.9784 3.70836 14.104C0.441959 10.8383 -0.0650377 5.68855 2.50275 1.86073C2.61757 1.69073 2.8487 1.64376 3.02019 1.75933C3.19093 1.8734 3.23715 2.10528 3.12233 2.27602C0.752122 5.80934 1.22035 10.5617 4.23549 13.5768C7.26554 16.6069 12.0343 17.0654 15.5721 14.6654C15.7421 14.5513 15.9747 14.5945 16.0903 14.7653C16.2058 14.936 16.1611 15.1672 15.9911 15.2827C14.3456 16.3989 12.4548 16.9439 10.5737 16.9439Z" fill="white" stroke="white" stroke-width="0.5"/>
<path d="M17.1519 14.214C17.0565 14.214 16.961 14.1775 16.888 14.1052L3.70828 0.924743C3.5629 0.779354 3.5629 0.543005 3.70828 0.397616C3.85367 0.252227 4.09002 0.252227 4.23541 0.397616L17.4158 13.578C17.5612 13.7234 17.5612 13.9598 17.4158 14.1052C17.3428 14.1775 17.2473 14.214 17.1519 14.214Z" fill="white" stroke="white" stroke-width="0.5"/>
<path d="M16.9837 7.53959C16.7779 7.53959 16.6109 7.37258 16.6109 7.16679C16.6109 3.87803 13.935 1.20213 10.6462 1.20213C10.4404 1.20213 10.2734 1.03512 10.2734 0.829335C10.2734 0.623554 10.4404 0.456543 10.6462 0.456543C14.3458 0.456543 17.3565 3.46646 17.3565 7.16679C17.3565 7.37258 17.1895 7.53959 16.9837 7.53959Z" fill="white" stroke="white" stroke-width="0.5"/>
<path d="M13.6816 6.36784C13.4758 6.36784 13.3088 6.20083 13.3088 5.99505C13.3088 5.17267 12.64 4.50388 11.8176 4.50388C11.6118 4.50388 11.4448 4.33687 11.4448 4.13109C11.4448 3.92531 11.6118 3.7583 11.8176 3.7583C13.0508 3.7583 14.0544 4.76186 14.0544 5.99505C14.0544 6.20083 13.8874 6.36784 13.6816 6.36784Z" fill="white" stroke="white" stroke-width="0.5"/>
</g>
</svg>
