<svg width="25" height="23" viewBox="0 0 25 23" fill="none" xmlns="http://www.w3.org/2000/svg">
<path d="M5.76968 22.3974H12.5862C12.792 22.3974 12.9589 22.2536 12.9589 22.0763C12.9589 21.8991 12.792 21.7552 12.5862 21.7552H5.76968C5.39697 21.2507 5.39697 20.7462 5.39697 22.0763C5.39697 22.2536 5.56395 22.3974 5.76968 22.3974Z" fill="#F7F9FB" stroke="#F7F9FB" stroke-width="0.5"/>
<path fill-rule="evenodd" clip-rule="evenodd" d="M8.06875 14.2378L5.46408 17.9588C5.42083 18.0214 5.39697 18.0959 5.39697 18.1727V21.1551C5.39697 21.3609 5.56398 21.5279 5.76976 21.5279C5.83967 21.5279 5.9051 21.6438 5.96103 21.7428C6.06974 21.9354 6.14256 22.0644 6.14256 21.1551V18.2898L8.59251 14.7899C8.56135 14.7595 8.53034 14.7289 8.49949 14.6981C8.34976 14.5484 8.20618 14.3948 8.06875 14.2378Z" fill="#F7F9FB"/>
<path d="M5.46408 17.9588L5.25926 17.8154L5.25835 17.8167L5.46408 17.9588ZM8.06875 14.2378L8.25688 14.0732L8.04684 13.8331L7.86394 14.0944L8.06875 14.2378ZM5.96103 21.7428L5.74333 21.8657L5.74333 21.8657L5.96103 21.7428ZM6.14256 18.2898L5.93775 18.1464L5.89256 18.211V18.2898H6.14256ZM8.59251 14.7899L8.79732 14.9332L8.91929 14.759L8.76685 14.6107L8.59251 14.7899ZM5.66888 18.1021L8.27356 14.3812L7.86394 14.0944L5.25927 17.8154L5.66888 18.1021ZM5.64697 18.1727C5.64697 18.1478 5.65474 18.1226 5.6698 18.1008L5.25835 17.8167C5.18692 17.9202 5.14697 18.0441 5.14697 18.1727H5.64697ZM5.64697 21.1551V18.1727H5.14697V21.1551H5.64697ZM5.76976 21.2779C5.70205 21.2779 5.64697 21.2228 5.64697 21.1551H5.14697C5.14697 21.4989 5.42591 21.7779 5.76976 21.7779V21.2779ZM6.17874 21.6199C6.1532 21.5747 6.11367 21.5036 6.06817 21.445C6.04495 21.415 6.0123 21.3778 5.96963 21.3463C5.92682 21.3147 5.85847 21.2779 5.76976 21.2779V21.7779C5.71602 21.7779 5.68205 21.7555 5.67292 21.7487C5.66393 21.7421 5.66424 21.74 5.67311 21.7514C5.68105 21.7617 5.69115 21.7766 5.70382 21.7974C5.71642 21.8181 5.729 21.8404 5.74333 21.8657L6.17874 21.6199ZM5.89256 21.1551C5.89256 21.3804 5.888 21.5354 5.88019 21.6388C5.87628 21.6906 5.87186 21.7248 5.86794 21.746C5.86307 21.7724 5.86173 21.7629 5.87391 21.741C5.88603 21.7191 5.95407 21.6185 6.0916 21.6325C6.14308 21.6378 6.1783 21.6588 6.19429 21.6699C6.21092 21.6815 6.22026 21.6919 6.22239 21.6943C6.22618 21.6986 6.22355 21.6964 6.21307 21.6793C6.20356 21.6638 6.19291 21.6451 6.17874 21.6199L5.74333 21.8657C5.76419 21.9027 5.80404 21.9761 5.84812 22.0259C5.86328 22.043 5.92924 22.1186 6.04088 22.13C6.19756 22.1459 6.28319 22.0339 6.31121 21.9834C6.33928 21.9327 6.35214 21.8774 6.35963 21.8368C6.36806 21.7912 6.37416 21.7374 6.37877 21.6765C6.38801 21.5542 6.39256 21.3844 6.39256 21.1551H5.89256ZM5.89256 18.2898V21.1551H6.39256V18.2898H5.89256ZM8.38771 14.6465L5.93775 18.1464L6.34736 18.4332L8.79732 14.9332L8.38771 14.6465ZM8.76685 14.6107C8.7365 14.5811 8.70631 14.5514 8.67627 14.5213L8.32272 14.8749C8.35437 14.9065 8.38619 14.9379 8.41818 14.969L8.76685 14.6107ZM8.67627 14.5213C8.53046 14.3755 8.39066 14.226 8.25688 14.0732L7.88062 14.4024C8.02169 14.5636 8.16906 14.7212 8.32272 14.8749L8.67627 14.5213Z" fill="#F7F9FB"/>
<path d="M15.1014 17.7998C12.5977 17.7998 10.1105 16.8343 8.23607 14.9599C4.96967 11.6943 4.46267 6.54451 7.03046 2.71668C7.14528 2.54669 7.37641 2.49972 7.5479 2.61529C7.71864 2.72936 7.76486 2.96124 7.65004 3.13197C5.27983 6.6653 5.74806 11.4176 8.7632 14.4328C11.7932 17.4628 16.562 17.9214 20.0998 15.5213C20.2698 15.4073 20.5024 15.4505 20.618 15.6212C20.7335 15.792 20.6888 16.0231 20.5188 16.1387C18.8733 17.2548 16.9825 17.7998 15.1014 17.7998Z" fill="#F7F9FB" stroke="#F7F9FB" stroke-width="0.5"/>
<path d="M21.6796 15.07C21.5842 15.07 21.4887 15.0334 21.4157 14.9611L8.23599 1.7807C8.09061 1.63531 8.09061 1.39896 8.23599 1.25357C8.38138 1.10818 8.61773 1.10818 8.76312 1.25357L21.9435 14.434C22.0889 14.5794 22.0889 14.8157 21.9435 14.9611C21.8705 15.0334 21.775 15.07 21.6796 15.07Z" fill="#F7F9FB" stroke="#F7F9FB" stroke-width="0.5"/>
<path d="M21.5115 8.39554C21.3057 8.39554 21.1387 8.22853 21.1387 8.02275C21.1387 4.73398 18.4628 2.05808 15.1741 2.05808C14.9683 2.05808 14.8013 1.89107 14.8013 1.68529C14.8013 1.47951 14.9683 1.3125 15.1741 1.3125C18.8736 1.3125 21.8843 4.32242 21.8843 8.02275C21.8843 8.22853 21.7173 8.39554 21.5115 8.39554Z" fill="#F7F9FB" stroke="#F7F9FB" stroke-width="0.5"/>
<path d="M18.2092 7.2238C18.0034 7.2238 17.8364 7.05679 17.8364 6.85101C17.8364 6.02863 17.1676 5.35984 16.3452 5.35984C16.1394 5.35984 15.9724 5.19283 15.9724 4.98705C15.9724 4.78127 16.1394 4.61426 16.3452 4.61426C17.5784 4.61426 18.582 5.61781 18.582 6.85101C18.582 7.05679 18.4149 7.2238 18.2092 7.2238Z" fill="#F7F9FB" stroke="#F7F9FB" stroke-width="0.5"/>
<path d="M23.3972 4.72314L1.83251 17.1735" stroke="#E36B6B" stroke-width="2" stroke-linecap="round" stroke-linejoin="round"/>
</svg>
