<svg width="51" height="55" viewBox="0 0 51 55" fill="none" xmlns="http://www.w3.org/2000/svg">
<path d="M49.5537 13.0696C43.6612 10.3428 33.6532 8.68726 25.5159 8.68726C19.7169 8.68726 7.3707 10.3428 1.47818 13.0696C1.10405 13.9461 1.01052 15.7964 1.10405 17.7441C1.19758 21.3474 4.56474 24.0742 7.27717 23.5872C12.8891 22.7108 19.0622 22.1265 25.4224 22.1265C31.7826 22.1265 37.9557 22.6134 43.5676 23.5872C46.3736 24.0742 49.7407 21.3474 49.8343 17.7441C50.0213 15.7964 49.9278 13.9461 49.5537 13.0696Z" stroke="white" stroke-width="1.3" stroke-miterlimit="10" stroke-linecap="round" stroke-linejoin="round"/>
<path d="M20.9865 53.7301V42.4332C20.9865 38.3044 17.8208 34.9833 14.022 34.9833H12.8236C5.5877 34.9833 1.08789 24.8406 1.08789 21.5196C1.08789 19.7244 1.08789 16.1341 1.08789 13.4414C1.08789 9.85105 4.70583 0.875244 25.5089 0.875244C44.5031 0.875244 49.93 8.95347 49.93 13.4414C49.93 15.4161 49.93 15.2365 49.93 21.5196C49.93 26.0075 45.0684 34.9833 37.8325 34.9833H36.6341C32.7448 34.9833 29.6696 38.3044 29.6696 42.4332V53.7301" stroke="white" stroke-width="1.3" stroke-miterlimit="10" stroke-linecap="round" stroke-linejoin="round"/>
</svg>
