<svg width="25" height="35" viewBox="0 0 25 35" fill="none" xmlns="http://www.w3.org/2000/svg">
<path fill-rule="evenodd" clip-rule="evenodd" d="M14.6905 23.2822V10.5084C14.6905 9.27286 13.7097 8.27112 12.5 8.27112C11.2903 8.27112 10.3095 9.27286 10.3095 10.5084V23.2822C8.1563 24.2437 6.72373 26.5761 7.07749 29.2009C7.41318 31.6933 9.42733 33.6878 11.8752 33.9647C15.1795 34.3383 17.9762 31.7062 17.9762 28.4067C17.9762 26.1135 16.6236 24.1452 14.6905 23.2822Z" stroke="#638BC2" stroke-width="1.1" stroke-linecap="round" stroke-linejoin="round"/>
<path d="M13.0476 11.6271H14.6905" stroke="#638BC2" stroke-width="1.1" stroke-linecap="round" stroke-linejoin="round"/>
<path d="M11.9524 13.8644H14.1429" stroke="#638BC2" stroke-width="1.1" stroke-linecap="round" stroke-linejoin="round"/>
<path d="M13.0476 16.1017H14.6905" stroke="#638BC2" stroke-width="1.1" stroke-linecap="round" stroke-linejoin="round"/>
<path d="M11.9524 18.339H14.1429" stroke="#638BC2" stroke-width="1.1" stroke-linecap="round" stroke-linejoin="round"/>
<path d="M13.0476 20.5763H14.6905" stroke="#638BC2" stroke-width="1.1" stroke-linecap="round" stroke-linejoin="round"/>
<path d="M10.1325 25.3271C9.50276 25.8328 9.03126 26.537 8.80893 27.3463" stroke="#638BC2" stroke-width="1.1" stroke-linecap="round" stroke-linejoin="round"/>
<path d="M20.1667 26.7288H24V13.3051L12.5 1L1 13.3051V26.7288H4.83333" stroke="#638BC2" stroke-width="1.1" stroke-linecap="round" stroke-linejoin="round"/>
</svg>
