<svg width="49" height="53" viewBox="0 0 49 53" fill="none" xmlns="http://www.w3.org/2000/svg">
<path d="M32.9463 13.0356H34.1748C34.7946 13.0301 35.2843 12.8696 35.644 12.5542C36.0093 12.2388 36.1919 11.7822 36.1919 11.1846C36.1919 10.609 36.0397 10.1636 35.7354 9.84814C35.4365 9.52718 34.9772 9.3667 34.3574 9.3667C33.8151 9.3667 33.3696 9.52441 33.021 9.83984C32.6724 10.1497 32.498 10.5565 32.498 11.0601H30.481C30.481 10.4403 30.6442 9.87581 30.9707 9.3667C31.3027 8.85758 31.762 8.46191 32.3486 8.17969C32.9408 7.89193 33.6021 7.74805 34.3325 7.74805C35.5389 7.74805 36.4852 8.05241 37.1714 8.66113C37.8631 9.26432 38.209 10.1055 38.209 11.1846C38.209 11.7269 38.0347 12.2388 37.686 12.7202C37.3429 13.1961 36.8975 13.5558 36.3496 13.7993C37.0137 14.0262 37.5173 14.3831 37.8604 14.8701C38.209 15.3571 38.3833 15.9382 38.3833 16.6133C38.3833 17.6979 38.0098 18.5612 37.2627 19.2031C36.5212 19.8451 35.5444 20.166 34.3325 20.166C33.1704 20.166 32.2186 19.8561 31.4771 19.2363C30.7355 18.6165 30.3647 17.792 30.3647 16.7627H32.3818C32.3818 17.2939 32.5589 17.7256 32.9131 18.0576C33.2728 18.3896 33.7542 18.5557 34.3574 18.5557C34.9827 18.5557 35.4753 18.3896 35.835 18.0576C36.1947 17.7256 36.3745 17.2441 36.3745 16.6133C36.3745 15.9769 36.1864 15.4871 35.8101 15.144C35.4338 14.8009 34.8748 14.6294 34.1333 14.6294H32.9463V13.0356Z" fill="#064390"/>
<path d="M27.7943 22.3897L28.0973 21.804H23.8962H17.3824V2.01025L1.70898 28.3986H12.434V51.4946L26.633 24.5913L27.7943 22.3897Z" stroke="#064390" stroke-width="2" stroke-linecap="round" stroke-linejoin="round"/>
<path d="M34.5303 1.0001C32.1175 1.00881 29.7538 1.68228 27.6987 2.94654C25.6436 4.21079 23.9767 6.01693 22.881 8.1666C21.7853 10.3163 21.3032 12.7263 21.4876 15.1321C21.6721 17.5378 22.5159 19.8462 23.9265 21.8037H28.1377L27.8247 22.3895L26.6633 24.6011C28.3261 25.8582 30.2643 26.7012 32.3176 27.0605C34.3709 27.4198 36.4802 27.285 38.471 26.6673C40.4619 26.0496 42.277 24.9667 43.7663 23.5082C45.2555 22.0497 46.3761 20.2576 47.0353 18.2801C47.6945 16.3026 47.8733 14.1965 47.557 12.1362C47.2406 10.0759 46.4382 8.12047 45.2162 6.43178C43.9942 4.7431 42.3876 3.36968 40.5294 2.42514C38.6712 1.48061 36.6148 0.992125 34.5303 1.0001V1.0001Z" stroke="#064390" stroke-width="2" stroke-linecap="round" stroke-linejoin="round"/>
</svg>
