<svg width="49" height="52" viewBox="0 0 49 52" fill="none" xmlns="http://www.w3.org/2000/svg">
<path d="M45.809 9.20034C45.809 9.30034 45.909 9.30034 45.909 9.40034L46.809 8.60034C47.209 8.20034 47.309 7.60034 46.909 7.10034L45.809 5.70034C45.409 5.30034 44.809 5.20034 44.309 5.60034L43.209 6.50034C44.209 7.40034 45.009 8.20034 45.809 9.20034Z" fill="#064390"/>
<path d="M22.4088 9.29968C22.5088 9.19968 22.5088 9.09968 22.6088 9.09968C23.4088 8.19968 24.2088 7.39968 25.2088 6.59968L24.2088 5.69968C23.8088 5.29968 23.1088 5.29968 22.7088 5.79968L21.5088 7.09968C21.1088 7.49968 21.1088 8.19968 21.6088 8.59968L22.4088 9.29968Z" fill="#064390"/>
<path d="M37.9088 3.7H30.5088V1C30.5088 0.4 30.9088 0 31.5088 0H36.9088C37.5088 0 37.9088 0.4 37.9088 1V3.7Z" fill="#064390"/>
<path d="M44.109 16.7C44.109 11.1 39.209 6.5 33.209 6.5V16.7H44.109Z" fill="#064390"/>
<path d="M34.209 3.7002C27.009 3.7002 21.209 9.5002 21.209 16.7002C21.209 18.4002 21.509 20.1002 22.209 21.6002H27.909L25.409 26.2002C27.709 28.3002 30.809 29.7002 34.209 29.7002C41.409 29.7002 47.209 23.9002 47.209 16.7002C47.209 9.5002 41.409 3.7002 34.209 3.7002Z" stroke="#064390" stroke-width="2" stroke-miterlimit="10" stroke-linecap="round" stroke-linejoin="round"/>
<path d="M17.209 2L1.70898 28.1H12.309V51L27.809 21.6H17.209V2Z" stroke="#064390" stroke-width="2" stroke-miterlimit="10" stroke-linecap="round" stroke-linejoin="round"/>
<path d="M44.109 16.9998C44.109 11.3998 39.209 6.7998 33.209 6.7998V16.9998H44.109Z" fill="#064390"/>
</svg>
