<svg width="42" height="59" viewBox="0 0 42 59" fill="none" xmlns="http://www.w3.org/2000/svg">
<path d="M38.4808 53.4444C38.3732 53.4444 38.2656 53.5512 38.1579 53.5512L2.53852 53.4444C2.00046 53.4444 1.4624 53.017 1.4624 52.376C1.4624 51.8418 1.89285 51.3076 2.53852 51.3076L38.0503 51.4145C38.5884 51.4145 39.1264 51.8418 39.1264 52.4828C39.2341 52.9102 38.9112 53.3375 38.4808 53.4444Z" fill="#064390"/>
<path d="M7.59612 58.7859C7.27329 58.8928 6.84284 58.7859 6.52001 58.5723L1.03182 53.4441C0.601373 53.0167 0.601373 52.3757 1.03182 51.9483L6.30478 46.3928C6.73523 45.9654 7.3809 45.9654 7.81135 46.3928C8.24179 46.8201 8.24179 47.4612 7.81135 47.8885L3.18405 52.803L7.91896 57.0765C8.3494 57.5039 8.3494 58.1449 7.91896 58.5723C7.91896 58.6791 7.70374 58.7859 7.59612 58.7859Z" fill="#064390"/>
<path d="M35.6828 58.8928C35.1448 59.1065 34.4991 58.7859 34.3915 58.2518C34.2839 57.9312 34.3915 57.5039 34.6067 57.1834L39.234 52.2688L34.4991 47.8885C34.0687 47.4612 34.0687 46.8201 34.4991 46.3928C34.9296 45.9654 35.5752 45.9654 36.0057 46.3928L41.4939 51.521C41.9243 51.9483 41.9243 52.5894 41.4939 53.0167L36.2209 58.6791C36.0057 58.7859 35.7904 58.8928 35.6828 58.8928Z" fill="#064390"/>
<path d="M23.9757 1L9.70898 24.5015H19.4423V45L33.709 18.6261H23.9757V1Z" stroke="#064390" stroke-width="2" stroke-miterlimit="10" stroke-linecap="round" stroke-linejoin="round"/>
</svg>
