<svg width="12" height="15" viewBox="0 0 12 15" fill="none" xmlns="http://www.w3.org/2000/svg">
<path fill-rule="evenodd" clip-rule="evenodd" d="M11.2139 5.08742C11.2139 2.69428 8.97524 0.754089 6.21393 0.754089C3.45261 0.754089 1.21393 2.69428 1.21393 5.08742C1.21393 6.91632 2.52314 8.47723 4.37182 9.11309V10.105H8.05603V9.11309C9.90472 8.47723 11.2139 6.91632 11.2139 5.08742Z" stroke="white" stroke-width="0.6" stroke-linecap="round" stroke-linejoin="round"/>
<path fill-rule="evenodd" clip-rule="evenodd" d="M6.21395 13.7541V13.7541C5.63263 13.7541 5.16132 13.3456 5.16132 12.8418H7.26658C7.26658 13.3456 6.79526 13.7541 6.21395 13.7541Z" stroke="white" stroke-width="0.6" stroke-linecap="round" stroke-linejoin="round"/>
<path fill-rule="evenodd" clip-rule="evenodd" d="M7.74814 12.8418H4.67972C4.50972 12.8418 4.37183 12.7223 4.37183 12.575V10.105H8.05604V12.575C8.05604 12.7223 7.91814 12.8418 7.74814 12.8418Z" stroke="white" stroke-width="0.6" stroke-linecap="round" stroke-linejoin="round"/>
<path d="M6.21392 10.105V6.91199" stroke="white" stroke-width="0.6" stroke-linecap="round" stroke-linejoin="round"/>
<path d="M4.10864 6.68393L5.16127 5.54358L6.21391 6.22779L7.26654 5.54358L8.31917 6.68393" stroke="white" stroke-width="0.6" stroke-linecap="round" stroke-linejoin="round"/>
<path d="M4.63501 11.0172H7.7929" stroke="white" stroke-width="0.6" stroke-linecap="round" stroke-linejoin="round"/>
<path d="M8.05604 11.9295H4.37183" stroke="white" stroke-width="0.6" stroke-linecap="round" stroke-linejoin="round"/>
</svg>
