<svg width="52" height="31" viewBox="0 0 52 31" fill="none" xmlns="http://www.w3.org/2000/svg">
<path d="M44.6875 11.421V17.1315H7.3125V11.421C7.3125 9.62626 5.85 8.15784 4.0625 8.15784C2.275 8.15784 0.8125 9.62626 0.8125 11.421V17.1315V26.1052H51.1875V17.1315V11.421C51.1875 9.62626 49.725 8.15784 47.9375 8.15784C46.15 8.15784 44.6875 9.62626 44.6875 11.421Z" stroke="#698FBF" stroke-width="1.3" stroke-miterlimit="10" stroke-linecap="round" stroke-linejoin="round"/>
<path d="M7.3125 30.1842H4.875L6.5 26.1052H9.75L7.3125 30.1842Z" stroke="#698FBF" stroke-width="1.3" stroke-miterlimit="10" stroke-linecap="round" stroke-linejoin="round"/>
<path d="M44.6875 30.1842H47.125L45.5 26.1052H42.25L44.6875 30.1842Z" stroke="#698FBF" stroke-width="1.3" stroke-miterlimit="10" stroke-linecap="round" stroke-linejoin="round"/>
<path d="M5.6875 8.1579V5.0579C5.6875 2.69211 7.55625 0.815796 9.9125 0.815796H42.1688C44.4438 0.815796 46.3125 2.69211 46.3125 5.0579V8.1579" stroke="#698FBF" stroke-width="1.3" stroke-miterlimit="10" stroke-linecap="round" stroke-linejoin="round"/>
<path d="M13.8125 7.34216L15.4375 8.97374" stroke="#698FBF" stroke-width="1.3" stroke-miterlimit="10" stroke-linecap="round" stroke-linejoin="round"/>
<path d="M13.8125 8.97374L15.4375 7.34216" stroke="#698FBF" stroke-width="1.3" stroke-miterlimit="10" stroke-linecap="round" stroke-linejoin="round"/>
<path d="M25.1875 7.34216L26.8125 8.97374" stroke="#698FBF" stroke-width="1.3" stroke-miterlimit="10" stroke-linecap="round" stroke-linejoin="round"/>
<path d="M25.1875 8.97374L26.8125 7.34216" stroke="#698FBF" stroke-width="1.3" stroke-miterlimit="10" stroke-linecap="round" stroke-linejoin="round"/>
<path d="M36.5625 7.34216L38.1875 8.97374" stroke="#698FBF" stroke-width="1.3" stroke-miterlimit="10" stroke-linecap="round" stroke-linejoin="round"/>
<path d="M36.5625 8.97374L38.1875 7.34216" stroke="#698FBF" stroke-width="1.3" stroke-miterlimit="10" stroke-linecap="round" stroke-linejoin="round"/>
</svg>
