<svg width="28" height="29" viewBox="0 0 28 29" fill="none" xmlns="http://www.w3.org/2000/svg">
<path d="M14.466 6.53173C15.9662 6.53173 17.1824 5.29341 17.1824 3.76586C17.1824 2.23832 15.9662 1 14.466 1C12.9657 1 11.7495 2.23832 11.7495 3.76586C11.7495 5.29341 12.9657 6.53173 14.466 6.53173Z" stroke="white" stroke-width="1.5" stroke-miterlimit="10"/>
<path d="M25.0734 16.8291C25.0734 22.7559 20.2441 27.6291 14.4231 27.6291" stroke="white" stroke-width="1.5" stroke-miterlimit="10"/>
<path d="M20.6519 20.4361C20.3648 20.7348 20.3742 21.2095 20.6728 21.4966C20.9714 21.7836 21.4462 21.7743 21.7333 21.4756L20.6519 20.4361ZM25.1595 16.829L25.8504 16.5373C25.7523 16.305 25.544 16.1375 25.296 16.0916C25.048 16.0457 24.7936 16.1275 24.6188 16.3093L25.1595 16.829ZM26.452 21.8184C26.6131 22.1999 27.0531 22.3787 27.4347 22.2176C27.8163 22.0564 27.995 21.6165 27.8339 21.2349L26.452 21.8184ZM21.7333 21.4756L25.7002 17.3488L24.6188 16.3093L20.6519 20.4361L21.7333 21.4756ZM24.4685 17.1208L26.452 21.8184L27.8339 21.2349L25.8504 16.5373L24.4685 17.1208Z" fill="white"/>
<path d="M3.81572 16.8291C3.81572 22.7559 8.645 27.6291 14.4229 27.6291" stroke="white" stroke-width="1.5" stroke-miterlimit="10"/>
<path d="M7.18581 21.0662C7.48918 21.3482 7.96374 21.3309 8.24577 21.0276C8.52779 20.7242 8.51049 20.2496 8.20712 19.9676L7.18581 21.0662ZM3.72955 16.8291L4.24021 16.2798C4.06095 16.1132 3.81167 16.0445 3.57236 16.0958C3.33304 16.1471 3.13382 16.3119 3.03862 16.5374L3.72955 16.8291ZM1.05516 21.2349C0.894038 21.6165 1.07277 22.0565 1.45436 22.2176C1.83595 22.3787 2.27591 22.2 2.43703 21.8184L1.05516 21.2349ZM8.20712 19.9676L4.24021 16.2798L3.2189 17.3784L7.18581 21.0662L8.20712 19.9676ZM3.03862 16.5374L1.05516 21.2349L2.43703 21.8184L4.42049 17.1208L3.03862 16.5374Z" fill="white"/>
<path d="M14.466 6.79529V28.1759" stroke="white" stroke-width="1.3" stroke-miterlimit="10"/>
</svg>
