<svg width="104" height="195" viewBox="0 0 104 195" fill="none" xmlns="http://www.w3.org/2000/svg">
<path fill-rule="evenodd" clip-rule="evenodd" d="M0.982717 0.0103149C1.67612 0.0199658 2.36871 0.0363864 3.0604 0.0595602L2.79253 8.05507C2.153 8.03365 1.5126 8.01846 0.871384 8.00954L0.982717 0.0103149ZM9.26783 0.45076C8.57824 0.386805 7.88748 0.329624 7.19562 0.279237L6.61453 8.25811C7.25378 8.30466 7.89198 8.35749 8.52907 8.41658L9.26783 0.45076ZM13.4269 0.920413C14.1145 1.01201 14.8006 1.11039 15.4853 1.21552L14.2711 9.12285C13.6389 9.02577 13.0054 8.93493 12.3705 8.85035L13.4269 0.920413ZM21.6455 2.352C20.9682 2.20583 20.2891 2.06637 19.6084 1.93365L18.0775 9.78581C18.7059 9.90832 19.3327 10.037 19.9578 10.172L21.6455 2.352ZM25.7144 3.31627C26.3859 3.48977 27.0555 3.66993 27.7229 3.85672L25.5668 11.5607C24.9509 11.3883 24.333 11.222 23.7132 11.0619L25.7144 3.31627ZM33.6927 5.72333C33.0377 5.49664 32.3803 5.27646 31.7206 5.06284L29.2561 12.6738C29.865 12.8709 30.4716 13.0741 31.0761 13.2833L33.6927 5.72333ZM37.6115 7.16866C38.2569 7.42156 38.8997 7.68088 39.5397 7.94658L36.4724 15.3352C35.8817 15.09 35.2885 14.8506 34.6928 14.6172L37.6115 7.16866ZM45.2484 10.5208C44.6251 10.2168 43.9988 9.91907 43.3694 9.62759L40.0073 16.8868C40.5883 17.1559 41.1665 17.4307 41.7418 17.7113L45.2484 10.5208ZM48.9561 12.4216C49.5665 12.7501 50.1735 13.0847 50.7772 13.4253L46.8462 20.3928C46.2888 20.0784 45.7283 19.7695 45.1648 19.4662L48.9561 12.4216ZM56.1292 16.6598C55.5469 16.2836 54.9609 15.9133 54.3712 15.5488L50.1649 22.3537C50.7094 22.6903 51.2506 23.0323 51.7884 23.3797L56.1292 16.6598ZM59.5865 18.992C60.1528 19.3906 60.7151 19.7948 61.2734 20.2046L56.5396 26.6538C56.024 26.2753 55.5046 25.9019 54.9815 25.5337L59.5865 18.992ZM66.1961 24.0486C65.6632 23.6063 65.1259 23.1693 64.5843 22.7376L59.5981 28.9936C60.0984 29.3924 60.5947 29.7961 61.087 30.2047L66.1961 24.0486ZM69.3531 26.7763C69.8679 27.2393 70.3782 27.7073 70.8837 28.1804L65.4178 34.0219C64.9507 33.5849 64.4793 33.1524 64.0037 32.7247L69.3531 26.7763ZM75.2552 32.5178C74.7784 32.0161 74.2965 31.5191 73.8098 31.0269L68.1212 36.6518C68.5709 37.1066 69.0161 37.5657 69.4566 38.0293L75.2552 32.5178ZM78.0754 35.6057C78.532 36.126 78.9834 36.6508 79.4296 37.1801L73.3132 42.3366C72.901 41.8477 72.484 41.3628 72.0622 40.8821L78.0754 35.6057ZM83.3168 42.0798C82.9024 41.5242 82.4825 40.9728 82.0572 40.4256L75.7406 45.3348C76.1335 45.8403 76.5213 46.3497 76.9041 46.8629L83.3168 42.0798ZM85.7449 45.4741C86.1375 46.0467 86.5243 46.6231 86.9054 47.2033L80.2188 51.5952C79.8668 51.0593 79.5095 50.5269 79.1469 49.9981L85.7449 45.4741ZM90.1844 52.5371C89.8396 51.9366 89.4889 51.3396 89.1323 50.7462L82.2752 54.867C82.6045 55.415 82.9284 55.9662 83.2468 56.5207L90.1844 52.5371ZM92.186 56.1899C92.5066 56.8038 92.821 57.4208 93.1294 58.041L85.9657 61.6022C85.6811 61.0297 85.3908 60.46 85.0948 59.8933L92.186 56.1899ZM95.7416 63.7174C95.4707 63.0788 95.1934 62.443 94.9098 61.8101L87.6092 65.0815C87.871 65.6656 88.1269 66.2525 88.377 66.8419L95.7416 63.7174ZM97.2826 67.561C97.5277 68.2095 97.7664 68.8607 97.9986 69.5143L90.4601 72.1921C90.2458 71.5888 90.0255 70.9879 89.7993 70.3893L97.2826 67.561ZM99.9147 75.473C99.7225 74.8069 99.5237 74.1429 99.3183 73.4812L91.6779 75.853C91.8675 76.4636 92.051 77.0764 92.2284 77.6911L99.9147 75.473ZM100.99 79.4997C101.155 80.1718 101.313 80.8458 101.465 81.5217L93.6588 83.2735C93.5188 82.6497 93.3727 82.0276 93.2204 81.4073L100.99 79.4997ZM102.647 87.6444C102.536 86.961 102.419 86.2791 102.294 85.5989L94.4246 87.0369C94.5394 87.6649 94.6479 88.2944 94.7503 88.9253L102.647 87.6444ZM103.233 91.7821C103.317 92.4688 103.393 93.1568 103.463 93.846L95.504 94.6524C95.4395 94.0157 95.3688 93.3803 95.2918 92.7461L103.233 91.7821ZM103.908 100.071C103.879 99.3773 103.843 98.6847 103.801 97.993L95.8156 98.4839C95.8549 99.1231 95.888 99.7633 95.9147 100.404L103.908 100.071ZM104 104.5C104 105.085 103.995 105.67 103.986 106.255L95.9866 106.123C95.9955 105.583 96 105.042 96 104.5L95.9998 104.312L95.9996 104.241L104 104.22L104 104.389L104 104.5ZM103.701 112.458C103.753 111.768 103.799 111.076 103.837 110.384L95.8493 109.94C95.8138 110.58 95.772 111.219 95.7239 111.857L103.701 112.458ZM103.304 116.624C103.224 117.313 103.138 118.001 103.045 118.687L95.1174 117.611C95.2034 116.977 95.2832 116.342 95.3568 115.705L103.304 116.624ZM102.014 124.873C102.149 124.193 102.276 123.512 102.397 122.829L94.5197 121.435C94.4081 122.065 94.2903 122.694 94.1663 123.321L102.014 124.873ZM101.123 128.952C100.961 129.626 100.792 130.299 100.617 130.97L92.8768 128.949C93.0384 128.33 93.1939 127.709 93.3433 127.086L101.123 128.952ZM98.8547 136.974C99.0698 136.316 99.2784 135.655 99.4805 134.991L91.8276 132.66C91.6412 133.272 91.4487 133.882 91.2501 134.49L98.8547 136.974ZM97.4747 140.927C97.2329 141.577 96.9847 142.224 96.73 142.869L89.2893 139.931C89.5243 139.335 89.7534 138.738 89.9765 138.138L97.4747 140.927ZM94.2598 148.612C94.5528 147.983 94.8395 147.352 95.1199 146.718L87.8032 143.483C87.5444 144.068 87.2797 144.651 87.0093 145.231L94.2598 148.612ZM92.421 152.357C92.103 152.974 91.7788 153.587 91.4486 154.196L84.414 150.387C84.7189 149.824 85.0182 149.258 85.3118 148.689L92.421 152.357ZM88.3093 159.6C88.6752 159.012 89.0352 158.419 89.3893 157.824L82.5126 153.736C82.1856 154.286 81.8531 154.833 81.5153 155.376L88.3093 159.6ZM86.0351 163.1C85.6462 163.674 85.2517 164.243 84.8516 164.808L78.3218 160.186C78.6914 159.664 79.0558 159.138 79.4149 158.609L86.0351 163.1ZM81.0912 169.798C81.5247 169.257 81.9529 168.712 82.3756 168.163L76.0347 163.285C75.6442 163.792 75.2487 164.296 74.8482 164.796L81.0912 169.798ZM78.4184 173.002C77.9639 173.525 77.5042 174.043 77.0394 174.557L71.105 169.193C71.5344 168.718 71.9591 168.238 72.379 167.755L78.4184 173.002ZM72.7704 179.01C73.265 178.523 73.7548 178.032 74.2397 177.536L68.5184 171.944C68.0704 172.403 67.6179 172.857 67.1609 173.306L72.7704 179.01ZM69.7463 181.868C69.2339 182.334 68.717 182.794 68.1955 183.249L62.9342 177.223C63.416 176.802 63.8936 176.377 64.367 175.947L69.7463 181.868ZM63.3577 187.225C63.906 186.801 64.4501 186.372 64.9899 185.937L59.9727 179.706C59.4741 180.108 58.9714 180.504 58.4649 180.896L63.3577 187.225ZM59.9994 189.716C59.4341 190.118 58.8648 190.514 58.2915 190.905L53.7854 184.295C54.3149 183.934 54.8407 183.568 55.3629 183.196L59.9994 189.716ZM54.8022 193.183C54.2143 193.551 53.6228 193.912 53.0277 194.268L48.9242 187.4C49.4738 187.072 50.02 186.738 50.5629 186.399L54.8022 193.183Z" fill="url(#paint0_linear)"/>
<defs>
<linearGradient id="paint0_linear" x1="3.03266" y1="7.30648" x2="3.03266" y2="193.422" gradientUnits="userSpaceOnUse">
<stop stop-color="#9BC8FF"/>
<stop offset="0.509211" stop-color="#4DCB2F"/>
<stop offset="1" stop-color="#DB5D5D"/>
</linearGradient>
</defs>
</svg>
