<svg id="Layer_1" data-name="Layer 1" xmlns="http://www.w3.org/2000/svg" viewBox="0 0 43.27 32.55"><title>MIST</title><path d="M390.94,651.09" transform="translate(-353.21 -650.73)" style="fill:none;stroke:#1c468c;stroke-linecap:round;stroke-linejoin:round;stroke-width:2px"/><line x1="29.79" y1="11.21" x2="29.79" y2="11.21" style="fill:none;stroke:#1c468c;stroke-linecap:round;stroke-linejoin:round;stroke-width:2px"/><line x1="20.79" y1="11.21" x2="25.79" y2="11.21" style="fill:none;stroke:#1c468c;stroke-linecap:round;stroke-linejoin:round;stroke-width:2px"/><line x1="33.79" y1="11.21" x2="37.79" y2="11.21" style="fill:none;stroke:#1c468c;stroke-linecap:round;stroke-linejoin:round;stroke-width:2px"/><path d="M382,672.15" transform="translate(-353.21 -650.73)" style="fill:none;stroke:#1c468c;stroke-linecap:round;stroke-linejoin:round;stroke-width:2px"/><line x1="13.79" y1="21.42" x2="23.79" y2="21.42" style="fill:none;stroke:#1c468c;stroke-linecap:round;stroke-linejoin:round;stroke-width:2px"/><line x1="4.79" y1="21.42" x2="8.28" y2="21.42" style="fill:none;stroke:#1c468c;stroke-linecap:round;stroke-linejoin:round;stroke-width:2px"/><line x1="28.35" y1="21.42" x2="29.79" y2="21.42" style="fill:none;stroke:#1c468c;stroke-linecap:round;stroke-linejoin:round;stroke-width:2px"/><line x1="34.35" y1="21.42" x2="35.79" y2="21.42" style="fill:none;stroke:#1c468c;stroke-linecap:round;stroke-linejoin:round;stroke-width:2px"/><line x1="39.59" y1="21.42" x2="42.27" y2="21.42" style="fill:none;stroke:#1c468c;stroke-linecap:round;stroke-linejoin:round;stroke-width:2px"/><line x1="24.79" y1="6.42" x2="28.28" y2="6.42" style="fill:none;stroke:#1c468c;stroke-linecap:round;stroke-linejoin:round;stroke-width:2px"/><line x1="17.79" y1="6.42" x2="19.28" y2="6.42" style="fill:none;stroke:#1c468c;stroke-linecap:round;stroke-linejoin:round;stroke-width:2px"/><line x1="12.03" y1="6.42" x2="12.63" y2="6.42" style="fill:none;stroke:#1c468c;stroke-linecap:round;stroke-linejoin:round;stroke-width:2px"/><line x1="32.35" y1="6.42" x2="36.18" y2="6.42" style="fill:none;stroke:#1c468c;stroke-linecap:round;stroke-linejoin:round;stroke-width:2px"/><line x1="23.8" y1="16.31" x2="26.79" y2="16.31" style="fill:none;stroke:#1c468c;stroke-linecap:round;stroke-linejoin:round;stroke-width:2px"/><line x1="30.65" y1="16.31" x2="30.77" y2="16.31" style="fill:none;stroke:#1c468c;stroke-linecap:round;stroke-linejoin:round;stroke-width:2px"/><line x1="35.18" y1="1" x2="36.46" y2="1" style="fill:none;stroke:#1c468c;stroke-linecap:round;stroke-linejoin:round;stroke-width:2px"/><line x1="26.18" y1="1" x2="30.25" y2="1" style="fill:none;stroke:#1c468c;stroke-linecap:round;stroke-linejoin:round;stroke-width:2px"/><line x1="20.91" y1="31.55" x2="22.18" y2="31.55" style="fill:none;stroke:#1c468c;stroke-linecap:round;stroke-linejoin:round;stroke-width:2px"/><line x1="10.08" y1="31.55" x2="15.96" y2="31.55" style="fill:none;stroke:#1c468c;stroke-linecap:round;stroke-linejoin:round;stroke-width:2px"/><line x1="10.91" y1="16.55" x2="12.18" y2="16.55" style="fill:none;stroke:#1c468c;stroke-linecap:round;stroke-linejoin:round;stroke-width:2px"/><line x1="16.4" y1="16.55" x2="19.05" y2="16.55" style="fill:none;stroke:#1c468c;stroke-linecap:round;stroke-linejoin:round;stroke-width:2px"/><line x1="1.08" y1="16.55" x2="6.96" y2="16.55" style="fill:none;stroke:#1c468c;stroke-linecap:round;stroke-linejoin:round;stroke-width:2px"/><line x1="1" y1="26.52" x2="12.49" y2="26.52" style="fill:none;stroke:#1c468c;stroke-linecap:round;stroke-linejoin:round;stroke-width:2px"/><line x1="17.31" y1="26.52" x2="21.79" y2="26.52" style="fill:none;stroke:#1c468c;stroke-linecap:round;stroke-linejoin:round;stroke-width:2px"/><line x1="30.31" y1="26.52" x2="32.79" y2="26.52" style="fill:none;stroke:#1c468c;stroke-linecap:round;stroke-linejoin:round;stroke-width:2px"/><line x1="26.31" y1="26.52" x2="26.79" y2="26.52" style="fill:none;stroke:#1c468c;stroke-linecap:round;stroke-linejoin:round;stroke-width:2px"/></svg>