<svg id="Layer_1" data-name="Layer 1" xmlns="http://www.w3.org/2000/svg" viewBox="0 0 34.13 42.34"><title>MODERATE RAIN</title><path d="M385.47,684.08c1-3-1.07-13-1.67-13.17s-8.12,6.7-9.09,9.67a5.65,5.65,0,0,0,10.76,3.49Z" transform="translate(-357.93 -646.4)" style="fill:none;stroke:#1c468c;stroke-linecap:round;stroke-linejoin:round;stroke-width:1.5px"/><path d="M369.71,669.1c1-3-1.07-13-1.67-13.17s-8.12,6.7-9.09,9.67a5.65,5.65,0,0,0,10.76,3.49Z" transform="translate(-357.93 -646.4)" style="fill:none;stroke:#1c468c;stroke-linecap:round;stroke-linejoin:round;stroke-width:1.5px"/><path d="M391.05,660.32c1-3-1.07-13-1.67-13.17s-8.12,6.7-9.09,9.67a5.65,5.65,0,1,0,10.76,3.49Z" transform="translate(-357.93 -646.4)" style="fill:none;stroke:#1c468c;stroke-linecap:round;stroke-linejoin:round;stroke-width:1.5px"/></svg>