<svg width="21" height="22" viewBox="0 0 21 22" fill="none" xmlns="http://www.w3.org/2000/svg">
<path d="M5 10C5 10 8.56757 6.81818 11 8.69835" stroke="#71DA36" stroke-width="1.2" stroke-linecap="round"/>
<path d="M1 18.5385L5.41968 18.9032C6.13962 18.9626 6.83198 18.6129 7.21141 17.9982L14 7" stroke="#71DA36" stroke-width="1.2" stroke-linecap="round"/>
<path d="M13 10C13 10 13.4839 13.5556 18 12.8971" stroke="#71DA36" stroke-width="1.2" stroke-linecap="round"/>
<path d="M10 16C10 16 15.6691 17.3235 16 21" stroke="#71DA36" stroke-width="1.2" stroke-linecap="round"/>
<path fill-rule="evenodd" clip-rule="evenodd" d="M16.5 8C18.433 8 20 6.433 20 4.5C20 2.567 18.433 1 16.5 1C14.567 1 13 2.567 13 4.5C13 6.433 14.567 8 16.5 8Z" stroke="#71DA36" stroke-width="1.2"/>
</svg>
