<svg width="94" height="97" viewBox="0 0 94 97" fill="none" xmlns="http://www.w3.org/2000/svg">
<path d="M16.1562 36.7812V25.0312C16.1562 25.0312 26.4375 7.40625 79.3125 19.1562V22.1128C79.3125 27.5737 76.1855 31.9138 70.735 31.5775C61.1352 30.99 46.6886 30.5626 36.7187 32.375C20.5625 35.3125 16.1562 36.7812 16.1562 36.7812Z" stroke="#0E5195" stroke-width="3" stroke-linecap="round" stroke-linejoin="round"/>
<path d="M41.125 92.5938V74.675C41.1272 71.822 40.236 69.0399 38.5765 66.7192C36.9169 64.3985 34.5724 62.6556 31.8719 61.7353C23.9744 59.049 13.2188 54.9938 8.8125 51.4688C1.46875 45.5938 2.9375 39.7188 5.875 38.25C8.8125 36.7812 16.1563 36.7812 16.1563 36.7812" stroke="#0E5195" stroke-width="3" stroke-linecap="round" stroke-linejoin="round"/>
<path d="M15.8494 27.8983C15.8494 27.8983 6.86359 28.4094 13.2189 17.6875C18.7575 8.34482 28.6407 3 49.9376 1.53125C71.2345 2.26562 74.9064 5.93754 82.2501 11.8125C89.5939 17.6875 92.5314 35.3125 88.1251 45.5938C85.2948 52.2032 72.1613 58.1957 63.1299 61.6413C60.5441 62.6289 58.3193 64.3788 56.7503 66.6591C55.1813 68.9394 54.3421 71.6427 54.3439 74.4107V92.5938" stroke="#0E5195" stroke-width="3" stroke-linecap="round" stroke-linejoin="round"/>
</svg>
