<svg width="65" height="38" viewBox="0 0 65 38" fill="none" xmlns="http://www.w3.org/2000/svg">
<path d="M23.5088 36.0996H26.3088H53.0088H57.1088C60.8088 36.0996 63.9088 33.0996 63.9088 29.2996C63.9088 25.5996 60.9088 22.4996 57.1088 22.4996H55.7088C55.0088 18.8996 51.7088 16.0996 47.9088 16.0996" stroke="#064390" stroke-width="2" stroke-miterlimit="10" stroke-linecap="round" stroke-linejoin="round"/>
<path d="M15.909 13.2002C14.209 14.1002 12.909 15.6002 12.209 17.4002" stroke="#064390" stroke-width="2" stroke-miterlimit="10" stroke-linecap="round" stroke-linejoin="round"/>
<path d="M59.709 13.8C59.009 10.2 55.709 7.4 51.909 7.4C50.509 7.4 49.309 7.7 48.109 8.3C46.709 4.1 42.709 1 37.909 1C32.009 1 27.109 5.8 27.109 11.8C27.109 12.5 27.209 13.2 27.309 13.8C25.309 11.4 22.309 9.8 18.909 9.8C13.009 9.8 8.10898 14.6 8.10898 20.6C8.10898 21.3 8.20899 22 8.30899 22.6C4.60899 22.7 1.70898 25.7 1.70898 29.4C1.70898 33.1 4.70897 36.2 8.50897 36.2H11.309" stroke="#064390" stroke-width="2" stroke-miterlimit="10" stroke-linecap="round" stroke-linejoin="round"/>
<path d="M27.6089 13.9004C27.6089 13.9004 33.1089 16.0004 31.9089 21.0004C31.9089 21.0004 37.0089 19.2004 40.9089 22.4004C44.8089 25.6004 42.0089 31.3004 42.0089 31.3004" stroke="#064390" stroke-width="2" stroke-miterlimit="10" stroke-linecap="round" stroke-linejoin="round"/>
</svg>
