<svg id="Layer_1" data-name="Layer 1" xmlns="http://www.w3.org/2000/svg" viewBox="0 0 64 37.11"><title>OVERCAST</title><path d="M388.78,689" transform="translate(-343 -644.91)" style="fill:none;stroke:#1c468c;stroke-linecap:round;stroke-linejoin:round;stroke-width:2px"/><path d="M398,661.46" transform="translate(-343 -644.91)" style="fill:none;stroke:#1c468c;stroke-linecap:round;stroke-linejoin:round;stroke-width:2px"/><path d="M365.7,681h33.52a6.78,6.78,0,0,0,0-13.57h-1.36a8,8,0,0,0-7.82-6.38" transform="translate(-343 -644.91)" style="fill:none;stroke:#1c468c;stroke-linecap:round;stroke-linejoin:round;stroke-width:2px"/><path d="M358.12,658.12a8.41,8.41,0,0,0-3.73,4.21" transform="translate(-343 -644.91)" style="fill:none;stroke:#1c468c;stroke-linecap:round;stroke-linejoin:round;stroke-width:2px"/><path d="M401.9,658.68a8,8,0,0,0-11.58-5.44,10.76,10.76,0,0,0-20.78,5.45h0a10.75,10.75,0,0,0-18.94,8.78,6.78,6.78,0,0,0,.21,13.56h2.75" transform="translate(-343 -644.91)" style="fill:none;stroke:#1c468c;stroke-linecap:round;stroke-linejoin:round;stroke-width:2px"/><path d="M369.78,658.81s5.47,2.1,4.28,7.06c0,0,5.07-1.8,9,1.35s1.06,8.92,1.06,8.92" transform="translate(-343 -644.91)" style="fill:none;stroke:#1c468c;stroke-linecap:round;stroke-linejoin:round;stroke-width:2px"/></svg>