<svg id="Layer_1" data-name="Layer 1" xmlns="http://www.w3.org/2000/svg" viewBox="0 0 64 49"><title>PARTLY CLOUDY</title><path d="M391.15,682.7a8.29,8.29,0,0,0-10.7-7.94,12.44,12.44,0,1,0-24.59-3.68A10,10,0,1,0,353.61,691v0H383.3v0A8.29,8.29,0,0,0,391.15,682.7Z" transform="translate(-343 -643)" style="fill:none;stroke:#1c468c;stroke-linecap:round;stroke-linejoin:round;stroke-width:2px"/><path d="M390.72,678.68a14,14,0,1,0-19.33-19.51" transform="translate(-343 -643)" style="fill:none;stroke:#1c468c;stroke-linecap:round;stroke-linejoin:round;stroke-width:2px"/><line x1="40" y1="6" x2="40" y2="1" style="fill:none;stroke:#1c468c;stroke-linecap:round;stroke-linejoin:round;stroke-width:2px"/><line x1="63" y1="23" x2="58" y2="23" style="fill:none;stroke:#1c468c;stroke-linecap:round;stroke-linejoin:round;stroke-width:2px"/><line x1="53" y1="11" x2="56.5" y2="7.5" style="fill:none;stroke:#1c468c;stroke-linecap:round;stroke-linejoin:round;stroke-width:2px"/><line x1="56.5" y1="41" x2="53" y2="37.5" style="fill:none;stroke:#1c468c;stroke-linecap:round;stroke-linejoin:round;stroke-width:2px"/><line x1="27" y1="11.5" x2="23.5" y2="8" style="fill:none;stroke:#1c468c;stroke-linecap:round;stroke-linejoin:round;stroke-width:2px"/><path d="M351.61,674.42a7,7,0,0,0-4.06,3.86" transform="translate(-343 -643)" style="fill:none;stroke:#1c468c;stroke-linecap:round;stroke-linejoin:round;stroke-width:2px"/></svg>