<svg width="79" height="47" viewBox="0 0 79 47" fill="none" xmlns="http://www.w3.org/2000/svg">
<path d="M62.4089 35.7C66.2089 33.2 68.7089 28.9 68.7089 24C68.7089 16.3 62.4089 10 54.7089 10C49.9089 10 45.6089 12.4 43.1089 16.2" stroke="#064390" stroke-width="2" stroke-miterlimit="10" stroke-linecap="round" stroke-linejoin="round"/>
<path d="M54.709 6V1" stroke="#064390" stroke-width="2" stroke-miterlimit="10" stroke-linecap="round" stroke-linejoin="round"/>
<path d="M77.709 23H72.709" stroke="#064390" stroke-width="2" stroke-miterlimit="10" stroke-linecap="round" stroke-linejoin="round"/>
<path d="M67.709 11L71.209 7.5" stroke="#064390" stroke-width="2" stroke-miterlimit="10" stroke-linecap="round" stroke-linejoin="round"/>
<path d="M71.209 41L67.709 37.5" stroke="#064390" stroke-width="2" stroke-miterlimit="10" stroke-linecap="round" stroke-linejoin="round"/>
<path d="M41.709 11.5L38.209 8" stroke="#064390" stroke-width="2" stroke-miterlimit="10" stroke-linecap="round" stroke-linejoin="round"/>
<path d="M11.6089 26.2998C13.0089 26.2998 14.3089 26.5998 15.4089 27.0998C16.6089 27.5998 17.6089 28.2998 18.5089 29.1998C19.4089 30.0998 20.1089 31.1998 20.6089 32.2998" stroke="#064390" stroke-width="2" stroke-miterlimit="10" stroke-linecap="round" stroke-linejoin="round"/>
<path d="M48.809 26.2998C47.509 26.2998 46.209 26.5998 45.109 26.9998C43.509 20.2998 37.409 15.2998 30.209 15.2998C23.009 15.2998 16.909 20.2998 15.309 26.9998C14.109 26.4998 12.909 26.2998 11.609 26.2998C6.20898 26.2998 1.70898 30.6998 1.70898 36.1998C1.70898 41.6998 6.10898 45.9998 11.609 45.9998C14.909 45.9998 45.509 45.9998 48.909 45.9998C54.309 45.9998 58.809 41.5998 58.809 36.0998C58.809 30.5998 54.309 26.2998 48.809 26.2998Z" stroke="#064390" stroke-width="2" stroke-miterlimit="10" stroke-linecap="round" stroke-linejoin="round"/>
</svg>
