<svg id="Layer_1" data-name="Layer 1" xmlns="http://www.w3.org/2000/svg" viewBox="0 0 39.25 41.71"><title>PATCHY SLEET POSSIBLE</title><path d="M378.65,659.17c.93-2.86-1-12.48-1.6-12.67s-7.82,6.45-8.74,9.31a5.44,5.44,0,0,0,10.35,3.36Z" transform="translate(-355.84 -645.75)" style="fill:none;stroke:#1c468c;stroke-linecap:round;stroke-linejoin:round;stroke-width:1.5px"/><path d="M394.09,673.08c.93-2.86-1-12.48-1.6-12.67s-7.82,6.45-8.74,9.31a5.44,5.44,0,0,0,10.35,3.36Z" transform="translate(-355.84 -645.75)" style="fill:none;stroke:#1c468c;stroke-linecap:round;stroke-linejoin:round;stroke-width:1.5px"/><path d="M375.69,682.95c.93-2.86-1-12.48-1.6-12.67s-7.82,6.45-8.74,9.31a5.44,5.44,0,0,0,10.35,3.36Z" transform="translate(-355.84 -645.75)" style="fill:none;stroke:#1c468c;stroke-linecap:round;stroke-linejoin:round;stroke-width:1.5px"/><line x1="0.75" y1="20.68" x2="5.12" y2="25.05" style="fill:none;stroke:#1c468c;stroke-linecap:round;stroke-linejoin:round;stroke-width:1.5px"/><line x1="0.75" y1="25.05" x2="5.12" y2="20.68" style="fill:none;stroke:#1c468c;stroke-linecap:round;stroke-linejoin:round;stroke-width:1.5px"/><line x1="31.65" y1="2.15" x2="36.02" y2="6.51" style="fill:none;stroke:#1c468c;stroke-linecap:round;stroke-linejoin:round;stroke-width:1.5px"/><line x1="31.65" y1="6.51" x2="36.02" y2="2.15" style="fill:none;stroke:#1c468c;stroke-linecap:round;stroke-linejoin:round;stroke-width:1.5px"/></svg>