<svg id="Layer_1" data-name="Layer 1" xmlns="http://www.w3.org/2000/svg" viewBox="0 0 39.55 41.51"><title>PATCHY RAIN POSSIBLE</title><path d="M365.76,667.24c.87-2.69-1-11.76-1.51-11.93s-7.36,6.07-8.24,8.76a5.12,5.12,0,0,0,9.75,3.17Z" transform="translate(-355.01 -646.08)" style="fill:none;stroke:#1c468c;stroke-linecap:round;stroke-linejoin:round;stroke-width:1.5px"/><path d="M383.27,658.76c.87-2.69-1-11.76-1.51-11.93s-7.36,6.07-8.24,8.76a5.12,5.12,0,1,0,9.75,3.17Z" transform="translate(-355.01 -646.08)" style="fill:none;stroke:#1c468c;stroke-linecap:round;stroke-linejoin:round;stroke-width:1.5px"/><path d="M374.24,683.29c.87-2.69-1-11.76-1.51-11.93s-7.36,6.07-8.24,8.76a5.12,5.12,0,0,0,9.75,3.17Z" transform="translate(-355.01 -646.08)" style="fill:none;stroke:#1c468c;stroke-linecap:round;stroke-linejoin:round;stroke-width:1.5px"/><path d="M393.58,675.33c.87-2.69-1-11.76-1.51-11.93s-7.36,6.07-8.24,8.76a5.12,5.12,0,1,0,9.75,3.17Z" transform="translate(-355.01 -646.08)" style="fill:none;stroke:#1c468c;stroke-linecap:round;stroke-linejoin:round;stroke-width:1.5px"/></svg>