<svg id="Layer_1" data-name="Layer 1" xmlns="http://www.w3.org/2000/svg" viewBox="0 0 36.11 42.81"><title>PATCHY SNOW POSSIBLE</title><line x1="29.14" y1="29.64" x2="33.37" y2="33.87" style="fill:none;stroke:#1c468c;stroke-linecap:round;stroke-linejoin:round;stroke-width:1.5px"/><line x1="29.14" y1="33.87" x2="33.37" y2="29.64" style="fill:none;stroke:#1c468c;stroke-linecap:round;stroke-linejoin:round;stroke-width:1.5px"/><line x1="0.75" y1="14.7" x2="4.98" y2="18.92" style="fill:none;stroke:#1c468c;stroke-linecap:round;stroke-linejoin:round;stroke-width:1.5px"/><line x1="0.75" y1="18.92" x2="4.98" y2="14.7" style="fill:none;stroke:#1c468c;stroke-linecap:round;stroke-linejoin:round;stroke-width:1.5px"/><line x1="20.4" y1="13.76" x2="14.62" y2="16.82" style="fill:none;stroke:#1c468c;stroke-linecap:round;stroke-linejoin:round;stroke-width:1.5px"/><polyline points="17.19 19.68 17.93 15.07 13.7 13.08" style="fill:none;stroke:#1c468c;stroke-linecap:round;stroke-linejoin:round;stroke-width:1.5px"/><line x1="28.66" y1="9.4" x2="34.44" y2="6.34" style="fill:none;stroke:#1c468c;stroke-linecap:round;stroke-linejoin:round;stroke-width:1.5px"/><polyline points="35.36 10.08 31.14 8.09 31.87 3.48" style="fill:none;stroke:#1c468c;stroke-linecap:round;stroke-linejoin:round;stroke-width:1.5px"/><line x1="26.71" y1="15.71" x2="29.77" y2="21.49" style="fill:none;stroke:#1c468c;stroke-linecap:round;stroke-linejoin:round;stroke-width:1.5px"/><polyline points="32.63 18.91 28.02 18.18 26.03 22.41" style="fill:none;stroke:#1c468c;stroke-linecap:round;stroke-linejoin:round;stroke-width:1.5px"/><line x1="22.35" y1="7.45" x2="19.29" y2="1.67" style="fill:none;stroke:#1c468c;stroke-linecap:round;stroke-linejoin:round;stroke-width:1.5px"/><polyline points="23.03 0.75 21.04 4.97 16.43 4.24" style="fill:none;stroke:#1c468c;stroke-linecap:round;stroke-linejoin:round;stroke-width:1.5px"/><circle cx="381.37" cy="657.08" r="3.74" transform="translate(-619.7 -391.12) rotate(-27.86)" style="fill:none;stroke:#1c468c;stroke-linecap:round;stroke-linejoin:round;stroke-width:1.5px"/><line x1="9.86" y1="35.6" x2="5.44" y2="37.94" style="fill:none;stroke:#1c468c;stroke-linecap:round;stroke-linejoin:round;stroke-width:1.20000004768372px"/><polyline points="7.41 40.13 7.96 36.6 4.74 35.08" style="fill:none;stroke:#1c468c;stroke-linecap:round;stroke-linejoin:round;stroke-width:1.20000004768372px"/><line x1="16.17" y1="32.26" x2="20.59" y2="29.93" style="fill:none;stroke:#1c468c;stroke-linecap:round;stroke-linejoin:round;stroke-width:1.20000004768372px"/><polyline points="21.3 32.79 18.07 31.26 18.63 27.74" style="fill:none;stroke:#1c468c;stroke-linecap:round;stroke-linejoin:round;stroke-width:1.20000004768372px"/><line x1="14.68" y1="37.09" x2="17.02" y2="41.51" style="fill:none;stroke:#1c468c;stroke-linecap:round;stroke-linejoin:round;stroke-width:1.20000004768372px"/><polyline points="19.21 39.54 15.69 38.98 14.16 42.21" style="fill:none;stroke:#1c468c;stroke-linecap:round;stroke-linejoin:round;stroke-width:1.20000004768372px"/><line x1="11.35" y1="30.78" x2="9.01" y2="26.36" style="fill:none;stroke:#1c468c;stroke-linecap:round;stroke-linejoin:round;stroke-width:1.20000004768372px"/><polyline points="11.87 25.65 10.35 28.88 6.82 28.32" style="fill:none;stroke:#1c468c;stroke-linecap:round;stroke-linejoin:round;stroke-width:1.5px"/><circle cx="369.85" cy="679.44" r="2.86" transform="translate(-631.48 -393.91) rotate(-27.86)" style="fill:none;stroke:#1c468c;stroke-linecap:round;stroke-linejoin:round;stroke-width:1.20000004768372px"/></svg>