<svg width="59" height="62" viewBox="0 0 59 62" fill="none" xmlns="http://www.w3.org/2000/svg">
<path d="M1.70898 33C1.70898 48.5 14.209 61 29.709 61C45.209 61 57.709 48.5 57.709 33" stroke="#064390" stroke-width="2" stroke-miterlimit="10" stroke-linecap="round" stroke-linejoin="round"/>
<path d="M37.7092 35L35.4092 42" stroke="#064390" stroke-width="2" stroke-miterlimit="10" stroke-linecap="round" stroke-linejoin="round"/>
<path d="M30.7092 45L28.4092 52" stroke="#064390" stroke-width="2" stroke-miterlimit="10" stroke-linecap="round" stroke-linejoin="round"/>
<path d="M42.7092 45L40.4092 52" stroke="#064390" stroke-width="2" stroke-miterlimit="10" stroke-linecap="round" stroke-linejoin="round"/>
<path d="M18.7092 45L16.4092 52" stroke="#064390" stroke-width="2" stroke-miterlimit="10" stroke-linecap="round" stroke-linejoin="round"/>
<path d="M25.7092 35L23.4092 42" stroke="#064390" stroke-width="2" stroke-miterlimit="10" stroke-linecap="round" stroke-linejoin="round"/>
<path d="M13.7092 35L11.4092 42" stroke="#064390" stroke-width="2" stroke-miterlimit="10" stroke-linecap="round" stroke-linejoin="round"/>
<path d="M49.7092 35L47.4092 42" stroke="#064390" stroke-width="2" stroke-miterlimit="10" stroke-linecap="round" stroke-linejoin="round"/>
<path d="M11.709 11C12.909 11 14.109 11.3 15.209 11.7C16.309 12.2 17.209 12.8 18.109 13.6C18.909 14.4 19.609 15.4 20.009 16.5" stroke="#064390" stroke-width="2" stroke-miterlimit="10" stroke-linecap="round" stroke-linejoin="round"/>
<path d="M45.709 11C44.509 11 43.309 11.2 42.309 11.7C40.809 5.6 35.309 1 28.709 1C22.109 1 16.609 5.6 15.109 11.7C14.109 11.2 12.909 11 11.709 11C6.70898 11 2.70898 15 2.70898 20C2.70898 25 6.70898 29 11.709 29C14.809 29 42.609 29 45.709 29C50.709 29 54.709 25 54.709 20C54.709 15 50.709 11 45.709 11Z" stroke="#064390" stroke-width="2" stroke-miterlimit="10" stroke-linecap="round" stroke-linejoin="round"/>
</svg>
