<svg width="54" height="33" viewBox="0 0 54 33" fill="none" xmlns="http://www.w3.org/2000/svg">
<path d="M19.909 27.2002C20.609 25.2002 19.209 18.3002 18.809 18.1002C18.409 18.0002 13.209 22.7002 12.509 24.8002C11.809 26.8002 13.009 29.0002 15.009 29.7002C17.009 30.4002 19.309 29.3002 19.909 27.2002Z" stroke="#064390" stroke-width="2" stroke-miterlimit="10" stroke-linecap="round" stroke-linejoin="round"/>
<path d="M9.10921 16.9C9.80921 14.9 8.40922 8.00001 8.00922 7.80001C7.60922 7.60001 2.40921 12.4 1.70921 14.5C1.00921 16.6 2.20921 18.7 4.20921 19.4C6.20921 20.1 8.40921 18.9 9.10921 16.9Z" stroke="#064390" stroke-width="2" stroke-miterlimit="10" stroke-linecap="round" stroke-linejoin="round"/>
<path d="M23.8089 10.8004C24.5089 8.8004 23.1089 1.9004 22.7089 1.7004C22.3089 1.5004 17.1089 6.3004 16.4089 8.4004C15.7089 10.4004 16.9089 12.6004 18.9089 13.3004C20.9089 14.0004 23.1089 12.9004 23.8089 10.8004Z" stroke="#064390" stroke-width="2" stroke-miterlimit="10" stroke-linecap="round" stroke-linejoin="round"/>
<path d="M39.709 31.7002C46.8887 31.7002 52.709 25.8799 52.709 18.7002C52.709 11.5205 46.8887 5.7002 39.709 5.7002C32.5293 5.7002 26.709 11.5205 26.709 18.7002C26.709 25.8799 32.5293 31.7002 39.709 31.7002Z" stroke="#064390" stroke-width="2" stroke-miterlimit="10" stroke-linecap="round" stroke-linejoin="round"/>
<path d="M51.209 11.2003C51.209 11.3003 51.309 11.3003 51.309 11.4003L52.209 10.6003C52.609 10.2003 52.709 9.60034 52.309 9.10034L51.209 7.70034C50.809 7.30034 50.209 7.20034 49.709 7.60034L48.709 8.50034C49.609 9.30034 50.509 10.2003 51.209 11.2003Z" fill="#064390"/>
<path d="M43.4088 5.7H36.0088V3C36.0088 2.4 36.4088 2 37.0088 2H42.4088C43.0088 2 43.4088 2.4 43.4088 3V5.7Z" fill="#064390"/>
<path d="M49.609 18.7C49.609 13 44.709 8.5 38.709 8.5V18.7H49.609Z" fill="#064390"/>
</svg>
