<svg width="60" height="56" viewBox="0 0 60 56" fill="none" xmlns="http://www.w3.org/2000/svg">
<path d="M26.8091 41.5996C26.8091 39.6996 23.7091 34.0996 23.3091 34.0996C22.9091 34.0996 19.8091 39.5996 19.8091 41.5996C19.8091 43.5996 21.4091 45.0996 23.3091 45.0996C25.2091 45.0996 26.8091 43.4996 26.8091 41.5996Z" stroke="#064390" stroke-width="2" stroke-miterlimit="10" stroke-linecap="round" stroke-linejoin="round"/>
<path d="M35.8091 33.5996C35.8091 31.6996 32.7091 26.0996 32.3091 26.0996C31.9091 26.0996 28.8091 31.5996 28.8091 33.5996C28.8091 35.5996 30.4091 37.0996 32.3091 37.0996C34.2091 37.0996 35.8091 35.4996 35.8091 33.5996Z" stroke="#064390" stroke-width="2" stroke-miterlimit="10" stroke-linecap="round" stroke-linejoin="round"/>
<path d="M34.8091 50.5996C34.8091 48.6996 31.7091 43.0996 31.3091 43.0996C30.9091 43.0996 27.8091 48.5996 27.8091 50.5996C27.8091 52.5996 29.4091 54.0996 31.3091 54.0996C33.2091 54.0996 34.8091 52.4996 34.8091 50.5996Z" stroke="#064390" stroke-width="2" stroke-miterlimit="10" stroke-linecap="round" stroke-linejoin="round"/>
<path d="M44.8091 41.5996C44.8091 39.6996 41.7091 34.0996 41.3091 34.0996C40.9091 34.0996 37.8091 39.5996 37.8091 41.5996C37.8091 43.5996 39.4091 45.0996 41.3091 45.0996C43.2091 45.0996 44.8091 43.4996 44.8091 41.5996Z" stroke="#064390" stroke-width="2" stroke-miterlimit="10" stroke-linecap="round" stroke-linejoin="round"/>
<path d="M11.709 12.0996C13.109 12.0996 14.309 12.3996 15.509 12.8996C16.709 13.3996 17.709 14.1996 18.609 15.0996C19.509 15.9996 20.209 17.0996 20.609 18.2996" stroke="#064390" stroke-width="2" stroke-miterlimit="10" stroke-linecap="round" stroke-linejoin="round"/>
<path d="M48.4087 32.4998C53.8087 32.5998 58.3087 28.2998 58.4087 22.8998C58.5087 17.4998 54.2087 12.9998 48.8087 12.8998C47.5087 12.8998 46.2087 13.0998 45.1087 13.5998C43.6087 6.89978 37.7087 1.79978 30.5087 1.69978C23.3087 1.59978 17.2087 6.39978 15.5087 12.9998C14.4087 12.4998 13.1087 12.1998 11.8087 12.1998C6.30874 11.9998 1.80874 16.2998 1.70874 21.7998C1.60874 27.2998 5.90874 31.6998 11.3087 31.7998C12.2087 31.7998 14.9087 31.8998 18.5087 31.8998" stroke="#064390" stroke-width="2" stroke-miterlimit="10" stroke-linecap="round" stroke-linejoin="round"/>
</svg>
