<svg width="55" height="50" viewBox="0 0 55 50" fill="none" xmlns="http://www.w3.org/2000/svg">
<path d="M12.109 40.7C12.109 39.2 9.70898 35 9.40898 35C9.10898 35 6.70898 39.2 6.70898 40.7C6.70898 42.2 7.90898 43.4 9.40898 43.4C10.909 43.4 12.109 42.2 12.109 40.7Z" stroke="#064390" stroke-width="2" stroke-miterlimit="10" stroke-linecap="round" stroke-linejoin="round"/>
<path d="M47.109 39.7C47.109 38.2 44.709 34 44.409 34C44.109 34 41.709 38.2 41.709 39.7C41.709 41.2 42.909 42.4 44.409 42.4C45.909 42.4 47.109 41.2 47.109 39.7Z" stroke="#064390" stroke-width="2" stroke-miterlimit="10" stroke-linecap="round" stroke-linejoin="round"/>
<path d="M21.7091 45.7996C21.7091 44.2996 19.3091 40.0996 19.0091 40.0996C18.7091 40.0996 16.3091 44.2996 16.3091 45.7996C16.3091 47.2996 17.5091 48.4996 19.0091 48.4996C20.5091 48.4996 21.7091 47.2996 21.7091 45.7996Z" stroke="#064390" stroke-width="2" stroke-miterlimit="10" stroke-linecap="round" stroke-linejoin="round"/>
<path d="M29.8092 39.7C29.8092 38.2 27.4092 34 27.1092 34C26.8092 34 24.4092 38.2 24.4092 39.7C24.4092 41.2 25.6092 42.4 27.1092 42.4C28.6092 42.4 29.8092 41.2 29.8092 39.7Z" stroke="#064390" stroke-width="2" stroke-miterlimit="10" stroke-linecap="round" stroke-linejoin="round"/>
<path d="M37.7091 45.7996C37.7091 44.2996 35.3091 40.0996 35.0091 40.0996C34.7091 40.0996 32.3091 44.2996 32.3091 45.7996C32.3091 47.2996 33.5091 48.4996 35.0091 48.4996C36.5091 48.4996 37.7091 47.2996 37.7091 45.7996Z" stroke="#064390" stroke-width="2" stroke-miterlimit="10" stroke-linecap="round" stroke-linejoin="round"/>
<path d="M10.709 11C11.909 11 13.109 11.3 14.209 11.7C15.309 12.2 16.209 12.8 17.109 13.6C17.909 14.4 18.609 15.4 19.009 16.5" stroke="#064390" stroke-width="2" stroke-miterlimit="10" stroke-linecap="round" stroke-linejoin="round"/>
<path d="M44.709 11C43.509 11 42.309 11.2 41.309 11.7C39.809 5.6 34.309 1 27.709 1C21.109 1 15.609 5.6 14.109 11.7C13.109 11.2 11.909 11 10.709 11C5.70898 11 1.70898 15 1.70898 20C1.70898 25 5.70898 29 10.709 29C13.809 29 41.609 29 44.709 29C49.709 29 53.709 25 53.709 20C53.709 15 49.709 11 44.709 11Z" stroke="#064390" stroke-width="2" stroke-miterlimit="10" stroke-linecap="round" stroke-linejoin="round"/>
</svg>
