<svg width="72" height="72" viewBox="0 0 72 72" fill="none" xmlns="http://www.w3.org/2000/svg">
<path fill-rule="evenodd" clip-rule="evenodd" d="M41.4197 43.9136L29.3333 56H21.3333V64H13.3333V72H0V58.6667L28.0864 30.5803C27.1684 28.1166 26.6667 25.4502 26.6667 22.6667C26.6667 10.1482 36.8149 0 49.3333 0C61.8518 0 72 10.1482 72 22.6667C72 35.1851 61.8518 45.3333 49.3333 45.3333C46.5498 45.3333 43.8834 44.8316 41.4197 43.9136ZM29.33 33.3366L2.66667 60V69.3333H10.6667V61.3333H18.6667V53.3333H28L38.6634 42.67C34.704 40.5536 31.4464 37.296 29.33 33.3366ZM69.3333 22.6667C69.3333 11.621 60.379 2.66667 49.3333 2.66667C38.2876 2.66667 29.3333 11.621 29.3333 22.6667C29.3333 33.7124 38.2876 42.6667 49.3333 42.6667C60.379 42.6667 69.3333 33.7124 69.3333 22.6667ZM64 16C64 11.5817 60.4183 8 56 8C51.5817 8 48 11.5817 48 16C48 20.4183 51.5817 24 56 24C60.4183 24 64 20.4183 64 16ZM61.3333 16C61.3333 13.0545 58.9455 10.6667 56 10.6667C53.0545 10.6667 50.6667 13.0545 50.6667 16C50.6667 18.9455 53.0545 21.3333 56 21.3333C58.9455 21.3333 61.3333 18.9455 61.3333 16Z" fill="#0E5195"/>
</svg>
