<svg width="414" height="133" viewBox="0 0 414 133" fill="none" xmlns="http://www.w3.org/2000/svg">
<path fill-rule="evenodd" clip-rule="evenodd" d="M0 61.5131C0 61.5131 6.75392 66.3054 11.0253 68.4942C16.0023 71.0447 19.2401 71.7918 24.8069 72.9821C35.932 75.3608 42.8313 74.4805 54.0038 73.0549C54.1931 73.0308 54.3835 73.0065 54.5752 72.9821C58.3659 72.4988 62.1024 71.3794 65.4578 70.3743C69.2878 69.227 72.6213 68.2284 74.972 68.4942C79.3822 68.9929 81.7548 69.1587 85.9973 68.4942C90.0867 67.8537 92.9677 66.193 95.8437 64.5352C97.7718 63.4238 99.6977 62.3137 101.984 61.5131C107.68 59.5185 120.727 53.5347 120.727 53.5347C120.727 53.5347 140.021 50.0442 141.675 47.5509C143.329 45.0577 149.393 53.5347 149.393 53.5347C149.393 53.5347 155.904 60.0126 161.521 61.5131C166.269 62.7818 169.677 63.3358 174.2 61.5131C178.513 59.775 182.469 53.5347 182.469 53.5347C182.469 53.5347 187.588 49.9751 190.738 47.5509C198.787 41.3551 209.767 30.4155 210.54 29.6428C210.571 29.6114 210.593 29.588 210.622 29.5546C211.24 28.8491 218.963 20.0449 221.609 18.1306C224.111 16.32 234.789 14.9203 236.738 14.6775C236.942 14.6521 237.136 14.5985 237.322 14.5128C239.149 13.6739 249.42 8.88592 251.928 6.163C252.782 5.23622 253.371 4.40513 253.893 3.66974C255.055 2.03109 255.88 0.867574 258.543 0.179202C262.057 -0.728862 266.484 2.08373 267.249 2.59433C267.327 2.64638 267.405 2.69385 267.489 2.7365L279.943 9.10377C280.009 9.13783 280.074 9.16666 280.144 9.19351C280.991 9.51932 286.978 11.8652 291.068 14.64C295.047 17.3394 296.782 19.6328 297.083 20.0555C297.117 20.1021 297.15 20.1476 297.185 20.1924L309.811 36.082L315.324 44.559C315.324 44.559 319.734 52.5374 321.939 53.5347C322.771 53.9112 324.157 55.1069 325.914 56.6232C328.811 59.1234 332.718 62.4954 336.823 64.505C340.901 66.5017 343.321 67.5842 347.848 68.4942C351.801 69.2888 354.725 69.0527 357.995 68.7886C359.767 68.6455 361.641 68.4942 363.835 68.4942H414V133H0V61.5131Z" fill="#12459C"/>
</svg>
