<svg width="375" height="133" viewBox="0 0 375 133" fill="none" xmlns="http://www.w3.org/2000/svg">
<path fill-rule="evenodd" clip-rule="evenodd" d="M0 61.5131C0 61.5131 6.11768 66.3054 9.98668 68.4942C14.4949 71.0447 17.4277 71.7918 22.47 72.9821C32.5471 75.3608 38.7965 74.4805 48.9165 73.0549C49.0879 73.0308 49.2604 73.0065 49.4341 72.9821C52.8677 72.4988 56.2522 71.3794 59.2915 70.3743C62.7607 69.227 65.7802 68.2284 67.9095 68.4942C71.9041 68.9929 74.0533 69.1587 77.8961 68.4942C81.6002 67.8537 84.2098 66.193 86.8149 64.5352C88.5614 63.4238 90.3059 62.3137 92.3768 61.5131C97.5366 59.5185 109.354 53.5347 109.354 53.5347C109.354 53.5347 126.831 50.0442 128.329 47.5509C129.827 45.0577 135.32 53.5347 135.32 53.5347C135.32 53.5347 141.218 60.0126 146.305 61.5131C150.606 62.7818 153.693 63.3358 157.79 61.5131C161.696 59.775 165.28 53.5347 165.28 53.5347C165.28 53.5347 169.917 49.9751 172.77 47.5509C180.057 41.3586 189.995 30.4278 190.705 29.6441C190.735 29.6116 190.755 29.5877 190.782 29.5533C191.349 28.8386 198.338 20.0438 200.732 18.1306C202.977 16.337 212.49 14.9466 214.385 14.6846C214.606 14.6541 214.813 14.5908 215.011 14.4898C216.783 13.59 225.943 8.86201 228.196 6.163C228.969 5.23622 229.503 4.40514 229.975 3.66975C231.028 2.03109 231.775 0.867577 234.188 0.179202C237.351 -0.723334 241.332 2.04963 242.06 2.58475C242.139 2.64262 242.22 2.69656 242.305 2.7446L253.558 9.09606C253.627 9.13525 253.695 9.16858 253.768 9.19978C254.588 9.54832 259.967 11.8824 263.648 14.64C267.253 17.34 268.825 19.6339 269.097 20.0558C269.127 20.1022 269.157 20.1476 269.19 20.1924L280.626 36.082L285.619 44.559C285.619 44.559 289.614 52.5374 291.611 53.5347C292.365 53.9112 293.62 55.1069 295.212 56.6232C297.836 59.1234 301.375 62.4954 305.093 64.505C308.787 66.5017 310.979 67.5842 315.08 68.4942C318.66 69.2888 321.309 69.0527 324.271 68.7886C325.876 68.6455 327.573 68.4942 329.561 68.4942H375V133H0V61.5131Z" fill="#12459C"/>
</svg>
