<svg width="375" height="194" viewBox="0 0 375 194" fill="none" xmlns="http://www.w3.org/2000/svg">
<path opacity="0.8" d="M189.689 16.9945C165.309 17.3341 151.632 1.10833 151.632 1.10833C151.632 1.10833 140.334 16.6459 114.765 16.9945C89.1956 17.343 76.1136 1.10833 76.1136 1.10833C76.1136 1.10833 61.8423 16.786 38.6514 16.9945C12.4874 16.9945 0 1.10833 0 1.10833V194L377 185V0C377 0 366.891 16.9945 341.322 16.9945C315.752 16.9945 302.076 0 302.076 0C302.076 0 288.994 16.9945 262.83 16.9945C236.666 16.9945 225.962 1.10833 225.962 1.10833C225.962 1.10833 214.069 16.6548 189.689 16.9945Z" fill="#D0E4FF"/>
</svg>
