<svg width="20" height="20" viewBox="0 0 20 20" fill="none" xmlns="http://www.w3.org/2000/svg">
<g clip-path="url(#clip0)">
<path d="M19.646 0.350891V19.6491" stroke="#638BC2" stroke-width="1.1" stroke-miterlimit="10" stroke-linecap="round" stroke-linejoin="round"/>
<path d="M19.4691 1.57892H16.6372" stroke="#638BC2" stroke-miterlimit="10" stroke-linecap="round" stroke-linejoin="round"/>
<path d="M19.469 3.33331H18.0531" stroke="#638BC2" stroke-miterlimit="10" stroke-linecap="round" stroke-linejoin="round"/>
<path d="M19.4691 5.4386H16.6372" stroke="#638BC2" stroke-miterlimit="10" stroke-linecap="round" stroke-linejoin="round"/>
<path d="M19.469 7.19299H18.0531" stroke="#638BC2" stroke-miterlimit="10" stroke-linecap="round" stroke-linejoin="round"/>
<path d="M19.4691 9.29822H16.6372" stroke="#638BC2" stroke-miterlimit="10" stroke-linecap="round" stroke-linejoin="round"/>
<path d="M19.469 11.0526H18.0531" stroke="#638BC2" stroke-miterlimit="10" stroke-linecap="round" stroke-linejoin="round"/>
<path d="M19.4691 13.1579H16.6372" stroke="#638BC2" stroke-miterlimit="10" stroke-linecap="round" stroke-linejoin="round"/>
<path d="M19.469 14.9123H18.0531" stroke="#638BC2" stroke-miterlimit="10" stroke-linecap="round" stroke-linejoin="round"/>
<path d="M0.354004 17.7193C0.778783 18.7368 1.62834 19.4737 2.83188 19.4737C4.03542 19.4737 4.88498 18.7368 5.30976 17.7193C5.73453 18.7368 6.58409 19.4737 7.78763 19.4737C8.99117 19.4737 9.84073 18.7368 10.2655 17.7193C10.6903 18.7368 11.5398 19.4737 12.7434 19.4737C13.9469 19.4737 14.7965 18.7368 15.2213 17.7193" stroke="#638BC2" stroke-width="1.1" stroke-miterlimit="10" stroke-linecap="round" stroke-linejoin="round"/>
<path d="M0.354004 14.5614C0.778783 15.5789 1.62834 16.3158 2.83188 16.3158C4.03542 16.3158 4.88498 15.5789 5.30976 14.5614C5.73453 15.5789 6.58409 16.3158 7.78763 16.3158C8.99117 16.3158 9.84073 15.5789 10.2655 14.5614C10.6903 15.5789 11.5398 16.3158 12.7434 16.3158C13.9469 16.3158 14.7965 15.5789 15.2213 14.5614" stroke="#638BC2" stroke-width="1.1" stroke-miterlimit="10" stroke-linecap="round" stroke-linejoin="round"/>
</g>
<defs>
<clipPath id="clip0">
<rect width="20" height="20" fill="white"/>
</clipPath>
</defs>
</svg>
