<svg width="414" height="192" viewBox="0 0 414 192" fill="none" xmlns="http://www.w3.org/2000/svg">
<path opacity="0.8" d="M208.306 16.8193C181.533 17.1554 166.514 1.09691 166.514 1.09691C166.514 1.09691 154.107 16.4743 126.028 16.8193C97.9495 17.1643 83.5836 1.09691 83.5836 1.09691C83.5836 1.09691 67.9117 16.6129 42.4448 16.8193C13.7129 16.8193 0 1.09691 0 1.09691V192L414 183.093V0C414 0 402.899 16.8193 374.82 16.8193C346.741 16.8193 331.722 0 331.722 0C331.722 0 317.356 16.8193 288.625 16.8193C259.893 16.8193 248.139 1.09691 248.139 1.09691C248.139 1.09691 235.079 16.4831 208.306 16.8193Z" fill="#D0E4FF"/>
</svg>
