<svg width="30" height="31" viewBox="0 0 30 31" fill="none" xmlns="http://www.w3.org/2000/svg">
<path d="M28.4638 12.6237L26.3582 12.262C26.1389 11.545 25.8569 10.8533 25.5122 10.1934L26.753 8.43571C27.2794 7.68696 27.198 6.66534 26.5525 6.01811L24.685 4.12718C24.334 3.77184 23.8703 3.57513 23.3752 3.57513C22.9867 3.57513 22.6169 3.69569 22.3036 3.92413L20.5614 5.18052C19.8846 4.81883 19.1764 4.52059 18.4432 4.29851L18.0923 2.19183C17.9419 1.28443 17.1711 0.624512 16.2624 0.624512H13.624C12.7154 0.624512 11.9445 1.28443 11.7941 2.19183L11.4307 4.34927C10.7288 4.57136 10.0457 4.86325 9.39395 5.21859L7.67057 3.9622C7.35723 3.73376 6.98122 3.6132 6.59268 3.6132C6.0976 3.6132 5.62759 3.80991 5.28292 4.16525L3.40914 6.05618C2.76993 6.70342 2.68219 7.72503 3.20861 8.47379L4.46197 10.2568C4.11729 10.9231 3.84155 11.6148 3.62848 12.3318L1.5479 12.6871C0.651748 12.8394 0 13.6199 0 14.54V17.2114C0 18.1315 0.651748 18.912 1.5479 19.0643L3.67862 19.4323C3.89795 20.143 4.18623 20.8346 4.53717 21.4946L3.30261 23.2332C2.7762 23.982 2.85766 25.0036 3.50315 25.6508L5.37065 27.5417C5.7216 27.8971 6.18534 28.0938 6.68042 28.0938C7.06896 28.0938 7.4387 27.9732 7.75204 27.7448L9.51302 26.4757C10.146 26.812 10.8102 27.0849 11.4933 27.3006L11.8443 29.4327C11.9947 30.3401 12.7655 31 13.6742 31H16.3188C17.2275 31 17.9983 30.3401 18.1487 29.4327L18.5059 27.3006C19.214 27.0785 19.8971 26.793 20.5489 26.444L22.2848 27.7004C22.5981 27.9288 22.9741 28.0494 23.3627 28.0494C23.8577 28.0494 24.3215 27.8527 24.6724 27.4973L26.5399 25.6064C27.1791 24.9592 27.2669 23.9376 26.7405 23.1888L25.4996 21.4248C25.8443 20.7585 26.1326 20.0669 26.3457 19.3562L28.4513 19.0008C29.3475 18.8485 29.9992 18.068 29.9992 17.148V14.4765C30.0117 13.5565 29.36 12.776 28.4638 12.6237ZM28.3197 17.148C28.3197 17.2305 28.2633 17.3003 28.1818 17.3129L25.5498 17.7571C25.2176 17.8142 24.9544 18.0617 24.873 18.3853C24.6348 19.3181 24.2713 20.2128 23.7825 21.044C23.6133 21.3359 23.6259 21.6976 23.8201 21.9768L25.368 24.185C25.4119 24.2485 25.4056 24.3437 25.3492 24.4008L23.4817 26.2917C23.4379 26.3361 23.394 26.3425 23.3627 26.3425C23.3251 26.3425 23.2937 26.3298 23.2687 26.3107L21.0941 24.7434C20.8246 24.5467 20.4611 24.534 20.1729 24.7054C19.3519 25.2003 18.4683 25.5683 17.5471 25.8095C17.2212 25.8919 16.9768 26.1648 16.9267 26.4948L16.4817 29.1598C16.4692 29.2423 16.4002 29.2994 16.3188 29.2994H13.6804C13.599 29.2994 13.53 29.2423 13.5175 29.1598L13.0788 26.4948C13.0224 26.1584 12.778 25.8919 12.4584 25.8095C11.5623 25.5747 10.6974 25.213 9.88902 24.7434C9.75742 24.6673 9.60702 24.6292 9.46288 24.6292C9.29368 24.6292 9.11821 24.68 8.97407 24.7878L6.78069 26.3678C6.74935 26.3869 6.71802 26.3996 6.68668 26.3996C6.66162 26.3996 6.61148 26.3932 6.56762 26.3488L4.70011 24.4579C4.6437 24.4008 4.63744 24.3119 4.68131 24.2421L6.22294 22.053C6.41721 21.7738 6.42975 21.4057 6.26054 21.1138C5.77173 20.2889 5.39572 19.3942 5.15758 18.4615C5.06985 18.1378 4.80664 17.8904 4.48077 17.8333L1.82991 17.3764C1.74844 17.3637 1.69204 17.2939 1.69204 17.2114V14.54C1.69204 14.4575 1.74844 14.3877 1.82991 14.375L4.44317 13.9308C4.77531 13.8737 5.04478 13.6263 5.12625 13.2963C5.35812 12.3635 5.71533 11.4625 6.19787 10.6312C6.36708 10.3393 6.34828 9.97765 6.15401 9.7048L4.59357 7.4839C4.5497 7.42045 4.55597 7.32527 4.61237 7.26816L6.47988 5.37723C6.52375 5.33281 6.56762 5.32646 6.59895 5.32646C6.63655 5.32646 6.66788 5.33915 6.69295 5.35819L8.855 6.91916C9.13074 7.11587 9.49422 7.12856 9.78249 6.95723C10.5972 6.46229 11.4808 6.08157 12.402 5.84044C12.7216 5.7516 12.966 5.4851 13.0224 5.15514L13.4736 2.47103C13.4862 2.38854 13.5551 2.33143 13.6366 2.33143H16.2749C16.3564 2.33143 16.4253 2.38854 16.4378 2.47103L16.8765 5.11706C16.9329 5.45337 17.1773 5.72622 17.5032 5.80871C18.4495 6.04984 19.3519 6.42422 20.1917 6.92551C20.4799 7.09683 20.8371 7.08414 21.1129 6.88743L23.2749 5.31377C23.3063 5.29473 23.3376 5.28204 23.3689 5.28204C23.394 5.28204 23.4441 5.28839 23.488 5.33281L25.3555 7.22374C25.4119 7.28085 25.4182 7.36968 25.3743 7.43948L23.8264 9.64134C23.6321 9.91419 23.6196 10.2822 23.7888 10.5741C24.2776 11.4054 24.6411 12.3001 24.8792 13.2328C24.9607 13.5628 25.2302 13.8103 25.556 13.861L28.1881 14.3116C28.2696 14.3243 28.326 14.3941 28.326 14.4765V17.148H28.3197Z" fill="white"/>
<path d="M15.0027 9.25488C11.4306 9.25488 8.52905 12.1928 8.52905 15.8097C8.52905 19.4266 11.4306 22.3645 15.0027 22.3645C18.5747 22.3645 21.4763 19.4266 21.4763 15.8097C21.4763 12.1928 18.5747 9.25488 15.0027 9.25488ZM15.0027 20.6512C12.3643 20.6512 10.2211 18.4811 10.2211 15.8097C10.2211 13.1383 12.3643 10.9681 15.0027 10.9681C17.641 10.9681 19.7842 13.1383 19.7842 15.8097C19.7842 18.4811 17.641 20.6512 15.0027 20.6512Z" fill="white"/>
</svg>
