<svg width="24" height="23" viewBox="0 0 24 23" fill="none" xmlns="http://www.w3.org/2000/svg">
<path d="M9.51849 16.5294C13.7352 16.5294 17.1852 13.7255 17.1852 10.2745C17.1852 6.82351 13.7352 4.01959 9.51849 4.01959" stroke="#638BC2" stroke-width="1.1" stroke-miterlimit="10" stroke-linecap="round" stroke-linejoin="round"/>
<path d="M22.2963 5.22745C21.0185 2.72549 18.463 1 15.4815 1C13.0111 1 10.7963 2.16471 9.43335 4.01961" stroke="#638BC2" stroke-width="1.1" stroke-miterlimit="10" stroke-linecap="round" stroke-linejoin="round"/>
<path d="M20.0389 7.94507C20.6778 9.0235 21.0186 10.2313 21.0186 11.5686C21.0186 15.9686 16.9297 19.549 11.8611 19.549H2.70374" stroke="#638BC2" stroke-width="1.1" stroke-miterlimit="10" stroke-linecap="round" stroke-linejoin="round"/>
<path d="M10.0722 3.76074C10.6259 3.63133 11.2648 3.5882 11.8611 3.5882C14.6722 3.5882 17.2278 4.70976 18.8889 6.47839" stroke="#638BC2" stroke-width="1.1" stroke-miterlimit="10" stroke-linecap="round" stroke-linejoin="round"/>
<path d="M7.38889 16.5294H4.40741" stroke="#638BC2" stroke-width="1.1" stroke-miterlimit="10" stroke-linecap="round" stroke-linejoin="round"/>
<path d="M9.51852 4.06274C8.4963 4.66667 7.81482 5.78823 7.81482 7.03921C7.81482 8.93725 9.34815 10.4902 11.2222 10.4902" stroke="#638BC2" stroke-width="1.1" stroke-miterlimit="10" stroke-linecap="round" stroke-linejoin="round"/>
<path d="M1 21.7059H9.09259" stroke="#638BC2" stroke-width="1.1" stroke-miterlimit="10" stroke-linecap="round" stroke-linejoin="round"/>
<path d="M10.7963 21.7059H14.2037" stroke="#638BC2" stroke-width="1.1" stroke-miterlimit="10" stroke-linecap="round" stroke-linejoin="round"/>
<path d="M23.1481 20.4118C23.1481 19.4627 21.4444 17.3922 21.4444 17.3922C21.4444 17.3922 19.7407 19.4627 19.7407 20.4118C19.7407 21.3608 20.5074 22.1372 21.4444 22.1372C22.3815 22.1372 23.1481 21.3608 23.1481 20.4118Z" stroke="#638BC2" stroke-width="1.1" stroke-miterlimit="10" stroke-linecap="round" stroke-linejoin="round"/>
</svg>
