<svg width="18" height="32" viewBox="0 0 18 32" fill="none" xmlns="http://www.w3.org/2000/svg">
<path fill-rule="evenodd" clip-rule="evenodd" d="M16.2535 31.4386H1.74669C1.10275 31.4386 0.58075 30.9339 0.58075 30.3113V4.49571C0.58075 3.87311 1.10275 3.36841 1.74669 3.36841H16.2535C16.8969 3.36841 17.4195 3.87311 17.4195 4.49571V30.3113C17.4195 30.9339 16.8969 31.4386 16.2535 31.4386Z" stroke="#638BC2" stroke-width="1.1" stroke-linecap="round" stroke-linejoin="round"/>
<mask id="mask0" mask-type="alpha" maskUnits="userSpaceOnUse" x="0" y="0" width="18" height="32">
<path fill-rule="evenodd" clip-rule="evenodd" d="M0 32H18V0H0V32Z" fill="white"/>
</mask>
<g mask="url(#mask0)">
<path fill-rule="evenodd" clip-rule="evenodd" d="M4.06451 3.36842H13.9355V0.561401H4.06451V3.36842Z" stroke="#638BC2" stroke-width="1.1" stroke-linecap="round" stroke-linejoin="round"/>
<path fill-rule="evenodd" clip-rule="evenodd" d="M13.0645 17.4035C13.0645 15.2331 11.2448 13.4737 9 13.4737C6.75523 13.4737 4.93549 15.2331 4.93549 17.4035C4.93549 19.5739 6.75523 21.3333 9 21.3333C11.2448 21.3333 13.0645 19.5739 13.0645 17.4035Z" stroke="#638BC2" stroke-width="1.1" stroke-linecap="round" stroke-linejoin="round"/>
<path d="M14.5161 17.4035H15.6774" stroke="#638BC2" stroke-width="1.1" stroke-linecap="round" stroke-linejoin="round"/>
<path d="M2.32257 17.4035H3.48386" stroke="#638BC2" stroke-width="1.1" stroke-linecap="round" stroke-linejoin="round"/>
<path d="M9.00001 12.0702V10.9474" stroke="#638BC2" stroke-width="1.1" stroke-linecap="round" stroke-linejoin="round"/>
<path d="M9.00001 23.8596V22.7368" stroke="#638BC2" stroke-width="1.1" stroke-linecap="round" stroke-linejoin="round"/>
<path d="M12.9007 13.6321L13.7217 12.8383" stroke="#638BC2" stroke-width="1.1" stroke-linecap="round" stroke-linejoin="round"/>
<path d="M4.27832 21.9688L5.09935 21.1749" stroke="#638BC2" stroke-width="1.1" stroke-linecap="round" stroke-linejoin="round"/>
<path d="M12.9007 21.1749L13.7217 21.9688" stroke="#638BC2" stroke-width="1.1" stroke-linecap="round" stroke-linejoin="round"/>
<path d="M4.27832 12.8383L5.09935 13.6321" stroke="#638BC2" stroke-width="1.1" stroke-linecap="round" stroke-linejoin="round"/>
</g>
</svg>
