<svg width="24" height="21" viewBox="0 0 24 21" fill="none" xmlns="http://www.w3.org/2000/svg">
<path d="M11.0999 1.47579L1.06605 18.6043C0.691339 19.2387 1.14931 20 1.85709 20H21.9664C22.6741 20 23.1321 19.1964 22.7574 18.6043L12.682 1.47579C12.3489 0.841402 11.4746 0.841402 11.0999 1.47579Z" stroke="#638BC2" stroke-miterlimit="10" stroke-linecap="round" stroke-linejoin="round"/>
<path d="M11.8909 17.0395C13.9603 17.0395 15.6379 15.3353 15.6379 13.2332C15.6379 11.131 13.9603 9.42682 11.8909 9.42682C9.82142 9.42682 8.1438 11.131 8.1438 13.2332C8.1438 15.3353 9.82142 17.0395 11.8909 17.0395Z" stroke="#638BC2" stroke-miterlimit="10" stroke-linecap="round" stroke-linejoin="round"/>
<path d="M11.8909 18.3083V18.7312" stroke="#638BC2" stroke-miterlimit="10" stroke-linecap="round" stroke-linejoin="round"/>
<path d="M11.8909 8.15803V7.73511" stroke="#638BC2" stroke-miterlimit="10" stroke-linecap="round" stroke-linejoin="round"/>
<path d="M15.4298 16.8281L15.7212 17.1241" stroke="#638BC2" stroke-miterlimit="10" stroke-linecap="round" stroke-linejoin="round"/>
<path d="M8.35198 9.63827L8.06055 9.34222" stroke="#638BC2" stroke-miterlimit="10" stroke-linecap="round" stroke-linejoin="round"/>
<path d="M8.35198 16.8281L8.06055 17.1241" stroke="#638BC2" stroke-miterlimit="10" stroke-linecap="round" stroke-linejoin="round"/>
<path d="M15.4298 9.63827L15.7212 9.34222" stroke="#638BC2" stroke-miterlimit="10" stroke-linecap="round" stroke-linejoin="round"/>
<path d="M16.887 13.2332H17.3033" stroke="#638BC2" stroke-miterlimit="10" stroke-linecap="round" stroke-linejoin="round"/>
<path d="M6.47839 12.8102H6.89473" stroke="#638BC2" stroke-miterlimit="10" stroke-linecap="round" stroke-linejoin="round"/>
</svg>
