<svg width="35" height="35" viewBox="0 0 35 35" fill="none" xmlns="http://www.w3.org/2000/svg">
<path d="M32.35 15.85C31.855 15.85 31.415 16.07 31.14 16.4H30.095C29.875 13.76 28.83 11.285 27.18 9.36L27.895 8.645C28.335 8.645 28.83 8.535 29.16 8.15C29.82 7.49 29.82 6.445 29.16 5.84C28.5 5.18 27.455 5.18 26.85 5.84C26.52 6.17 26.355 6.665 26.355 7.105L25.64 7.82C23.715 6.17 21.295 5.125 18.6 4.905V3.86C18.93 3.585 19.15 3.145 19.15 2.65C19.15 1.715 18.435 1 17.5 1C16.565 1 15.85 1.715 15.85 2.65C15.85 3.145 16.07 3.585 16.4 3.86V4.905C13.76 5.125 11.285 6.17 9.36 7.82L8.645 7.105C8.645 6.665 8.535 6.17 8.15 5.84C7.49 5.18 6.445 5.18 5.84 5.84C5.18 6.5 5.18 7.545 5.84 8.15C6.17 8.48 6.665 8.645 7.105 8.645L7.82 9.36C6.17 11.285 5.125 13.705 4.905 16.4H3.86C3.585 16.07 3.145 15.85 2.65 15.85C1.715 15.85 1 16.565 1 17.5C1 18.435 1.715 19.15 2.65 19.15C3.145 19.15 3.585 18.93 3.86 18.6H4.905C5.125 21.24 6.17 23.715 7.82 25.64L7.105 26.355C6.665 26.355 6.17 26.465 5.84 26.85C5.18 27.51 5.18 28.555 5.84 29.16C6.5 29.82 7.545 29.82 8.15 29.16C8.48 28.83 8.645 28.335 8.645 27.895L9.36 27.18C11.285 28.83 13.705 29.875 16.4 30.095V31.14C16.07 31.415 15.85 31.855 15.85 32.35C15.85 33.285 16.565 34 17.5 34C18.435 34 19.15 33.285 19.15 32.35C19.15 31.855 18.93 31.415 18.6 31.14V30.095C21.24 29.875 23.715 28.83 25.64 27.18L26.355 27.895C26.355 28.335 26.465 28.83 26.85 29.16C27.51 29.82 28.555 29.82 29.16 29.16C29.82 28.5 29.82 27.455 29.16 26.85C28.83 26.52 28.335 26.355 27.895 26.355L27.18 25.64C28.83 23.715 29.875 21.295 30.095 18.6H31.14C31.415 18.93 31.855 19.15 32.35 19.15C33.285 19.15 34 18.435 34 17.5C34 16.565 33.285 15.85 32.35 15.85ZM27.345 16.4H20.635C20.58 16.29 20.525 16.18 20.525 16.07L25.255 11.34C26.355 12.77 27.125 14.475 27.345 16.4ZM23.66 9.745L18.93 14.475C18.82 14.42 18.71 14.365 18.6 14.365V7.655C20.525 7.875 22.23 8.645 23.66 9.745ZM16.4 7.655V14.365C16.29 14.42 16.18 14.475 16.07 14.475L11.34 9.745C12.77 8.645 14.475 7.875 16.4 7.655ZM9.745 11.34L14.475 16.07C14.42 16.18 14.365 16.29 14.365 16.4H7.655C7.875 14.475 8.645 12.77 9.745 11.34ZM7.655 18.6H14.365C14.42 18.71 14.475 18.82 14.475 18.93L9.745 23.66C8.645 22.23 7.875 20.525 7.655 18.6ZM11.34 25.255L16.07 20.525C16.18 20.58 16.29 20.635 16.4 20.635V27.345C14.475 27.125 12.77 26.355 11.34 25.255ZM18.6 27.345V20.635C18.71 20.58 18.82 20.525 18.93 20.525L23.66 25.255C22.23 26.355 20.525 27.125 18.6 27.345ZM25.255 23.66L20.525 18.93C20.58 18.82 20.635 18.71 20.635 18.6H27.345C27.125 20.525 26.355 22.23 25.255 23.66Z" stroke="white" stroke-width="1.2" stroke-miterlimit="10" stroke-linecap="round" stroke-linejoin="round"/>
</svg>
