<svg width="48" height="40" viewBox="0 0 48 40" fill="none" xmlns="http://www.w3.org/2000/svg">
<path d="M32.8518 26.4211H39.7438C43.2647 26.4211 46.1114 23.5544 46.1114 20.0088C46.1114 16.4632 43.2647 13.5965 39.7438 13.5965H38.4703C37.7961 10.1264 34.7247 7.56145 31.1289 7.56145C29.8553 7.56145 28.6567 7.86321 27.6079 8.46672C26.2595 4.46847 22.5139 1.52637 18.0191 1.52637C12.4006 1.52637 7.90587 6.05268 7.90587 11.7106C7.90587 12.3895 7.98079 12.993 8.0557 13.5965C4.60971 13.672 1.91284 16.5386 1.91284 20.0088C1.91284 23.5544 4.75953 26.4211 8.28043 26.4211H13.0749" stroke="#84A4D3" stroke-width="2" stroke-miterlimit="10" stroke-linecap="round" stroke-linejoin="round"/>
<path d="M15.1986 5.77014C13.6254 6.6754 12.3519 8.0333 11.6777 9.76839" stroke="#84A4D3" stroke-width="2" stroke-miterlimit="10" stroke-linecap="round" stroke-linejoin="round"/>
<path d="M24.3868 15.8596L17.27 27.9298H22.1394V38.4912L29.2561 24.9123H24.3868V15.8596Z" stroke="#84A4D3" stroke-width="2" stroke-miterlimit="10" stroke-linecap="round" stroke-linejoin="round"/>
</svg>
