<svg width="60" height="51" viewBox="0 0 60 51" fill="none" xmlns="http://www.w3.org/2000/svg">
<path d="M33.7109 19.4014L24.2109 35.4014H30.7109V49.4014L40.2109 31.4014H33.7109V19.4014Z" stroke="#064390" stroke-width="2" stroke-miterlimit="10" stroke-linecap="round" stroke-linejoin="round"/>
<path d="M11.6108 11.4014C13.0108 11.4014 14.2108 11.7014 15.4108 12.2014C16.6108 12.7014 17.6108 13.5014 18.5108 14.4014C19.4108 15.3014 20.1108 16.4014 20.5108 17.6014" stroke="#064390" stroke-width="2" stroke-miterlimit="10" stroke-linecap="round" stroke-linejoin="round"/>
<path d="M48.3107 31.8015C53.7107 31.9015 58.2107 27.6015 58.3107 22.2015C58.4107 16.8015 54.1107 12.3015 48.7107 12.2015C47.4107 12.2015 46.1107 12.4015 45.0107 12.9015C43.5107 6.20153 37.6107 1.10153 30.4107 1.00153C23.2107 0.901534 17.1107 5.70153 15.4107 12.3015C14.3107 11.8015 13.0107 11.5015 11.7107 11.5015C6.31069 11.4015 1.81069 15.7015 1.71069 21.1015C1.61069 26.5015 5.91069 31.0015 11.3107 31.1015C12.2107 31.1015 14.9107 31.2015 18.5107 31.2015" stroke="#064390" stroke-width="2" stroke-miterlimit="10" stroke-linecap="round" stroke-linejoin="round"/>
</svg>
