<svg width="49" height="38" viewBox="0 0 49 38" fill="none" xmlns="http://www.w3.org/2000/svg">
<path d="M36.284 30.1948C36.284 26.7246 33.5122 23.9334 30.0662 23.9334C29.4669 23.9334 28.8676 24.0088 28.2683 24.2351C28.3432 23.6316 28.4181 23.1035 28.4181 22.5C28.4181 17.2948 24.223 13.1456 19.1289 13.1456C14.3345 13.1456 10.3641 16.8421 9.83972 21.5193C9.39024 21.4439 8.94077 21.3684 8.49129 21.3684C4.37108 21.3684 1 24.7632 1 28.9123C1 32.986 4.22125 36.3053 8.19164 36.4562H30.4408C33.662 36.2298 36.284 33.5141 36.284 30.1948Z" stroke="#84A4D3" stroke-width="2" stroke-miterlimit="10" stroke-linecap="round" stroke-linejoin="round"/>
<path d="M35.9096 27.1773C38.7563 25.2913 40.6291 22.0474 40.6291 18.351C40.6291 12.5422 35.9096 7.78955 30.1413 7.78955C26.5455 7.78955 23.3242 9.60008 21.4514 12.4667" stroke="#84A4D3" stroke-width="2" stroke-miterlimit="10" stroke-linecap="round" stroke-linejoin="round"/>
<path d="M30.1411 4.77193V1" stroke="#84A4D3" stroke-width="2" stroke-miterlimit="10" stroke-linecap="round" stroke-linejoin="round"/>
<path d="M47.3711 17.5966H43.6255" stroke="#84A4D3" stroke-width="2" stroke-miterlimit="10" stroke-linecap="round" stroke-linejoin="round"/>
<path d="M39.8799 8.54392L42.5018 5.90356" stroke="#84A4D3" stroke-width="2" stroke-miterlimit="10" stroke-linecap="round" stroke-linejoin="round"/>
<path d="M42.5018 31.1755L39.8799 28.5352" stroke="#84A4D3" stroke-width="2" stroke-miterlimit="10" stroke-linecap="round" stroke-linejoin="round"/>
<path d="M20.4025 8.92111L17.7805 6.28076" stroke="#84A4D3" stroke-width="2" stroke-miterlimit="10" stroke-linecap="round" stroke-linejoin="round"/>
<path d="M7.61855 24.9333C6.27012 25.4614 5.14642 26.5176 4.54712 27.8755" stroke="#84A4D3" stroke-width="2" stroke-miterlimit="10" stroke-linecap="round" stroke-linejoin="round"/>
</svg>
