<svg width="29" height="27" viewBox="0 0 29 27" fill="none" xmlns="http://www.w3.org/2000/svg">
<path d="M5.8761 0.564697H1V20.7367H5.8761V0.564697Z" stroke="#638BC2" stroke-miterlimit="10" stroke-linecap="round" stroke-linejoin="round"/>
<path d="M4.41315 9.69012H5.87598" stroke="#638BC2" stroke-miterlimit="10" stroke-linecap="round" stroke-linejoin="round"/>
<path d="M4.41315 5.84784H5.87598" stroke="#638BC2" stroke-miterlimit="10" stroke-linecap="round" stroke-linejoin="round"/>
<path d="M3.43793 11.6113H5.38837" stroke="#638BC2" stroke-miterlimit="10" stroke-linecap="round" stroke-linejoin="round"/>
<path d="M3.43793 7.76892H5.38837" stroke="#638BC2" stroke-miterlimit="10" stroke-linecap="round" stroke-linejoin="round"/>
<path d="M3.43793 3.92676H5.38837" stroke="#638BC2" stroke-miterlimit="10" stroke-linecap="round" stroke-linejoin="round"/>
<path d="M4.41315 13.5323H5.87598" stroke="#638BC2" stroke-miterlimit="10" stroke-linecap="round" stroke-linejoin="round"/>
<path d="M3.43793 15.4535H5.38837" stroke="#638BC2" stroke-miterlimit="10" stroke-linecap="round" stroke-linejoin="round"/>
<path d="M4.41315 17.3747H5.87598" stroke="#638BC2" stroke-miterlimit="10" stroke-linecap="round" stroke-linejoin="round"/>
<path d="M1.48755 23.1381C2.07268 24.5309 3.24294 25.5395 4.90081 25.5395C6.55868 25.5395 7.72894 24.5309 8.31407 23.1381C8.8992 24.5309 10.0695 25.5395 11.7273 25.5395C13.3852 25.5395 14.5555 24.5309 15.1406 23.1381C15.7257 24.5309 16.896 25.5395 18.5538 25.5395C20.2117 25.5395 21.382 24.5309 21.9671 23.1381" stroke="#638BC2" stroke-miterlimit="10" stroke-linecap="round" stroke-linejoin="round"/>
<path d="M27.7696 20.4965C27.7696 20.4965 24.5026 22.1295 21.1869 16.174C17.8711 10.2185 13.2388 13.4844 13.2388 13.4844C15.1893 13.4844 16.7984 15.0693 16.7984 16.9905C16.7984 18.9116 15.1893 20.4965 13.2388 20.4965H10.0206" stroke="#638BC2" stroke-miterlimit="10" stroke-linecap="round" stroke-linejoin="round"/>
</svg>
