<svg width="31" height="29" viewBox="0 0 31 29" fill="none" xmlns="http://www.w3.org/2000/svg">
<path d="M7.75 14.3843C11.4779 14.3843 14.5 11.3882 14.5 7.69217C14.5 3.99619 11.4779 1 7.75 1C4.02208 1 1 3.99619 1 7.69217C1 11.3882 4.02208 14.3843 7.75 14.3843Z" stroke="#638BC2" stroke-width="1.1" stroke-miterlimit="10" stroke-linecap="round" stroke-linejoin="round"/>
<path d="M7.75 2.43408V3.39014" stroke="#638BC2" stroke-miterlimit="10" stroke-linecap="round" stroke-linejoin="round"/>
<path d="M7.75 11.9943V12.9503" stroke="#638BC2" stroke-miterlimit="10" stroke-linecap="round" stroke-linejoin="round"/>
<path d="M2.44641 7.69214H3.41071" stroke="#638BC2" stroke-miterlimit="10" stroke-linecap="round" stroke-linejoin="round"/>
<path d="M12.0892 7.69214H13.0535" stroke="#638BC2" stroke-miterlimit="10" stroke-linecap="round" stroke-linejoin="round"/>
<path d="M7.75 4.82416V7.69214H6.30359" stroke="#638BC2" stroke-miterlimit="10" stroke-linecap="round" stroke-linejoin="round"/>
<path d="M2.44641 25.3787C3.02498 26.7649 4.18213 27.7687 5.82141 27.7687C7.4607 27.7687 8.61784 26.7649 9.19641 25.3787C9.77498 26.7649 10.9321 27.7687 12.5714 27.7687C14.2107 27.7687 15.3678 26.7649 15.9464 25.3787C16.525 26.7649 17.6821 27.7687 19.3214 27.7687C20.9607 27.7687 22.1178 26.7649 22.6964 25.3787" stroke="#638BC2" stroke-width="1.1" stroke-miterlimit="10" stroke-linecap="round" stroke-linejoin="round"/>
<path d="M30.1214 22.5106C30.1214 22.5106 26.891 24.1358 23.6125 18.2084C20.3339 12.2811 15.7536 15.5316 15.7536 15.5316C17.6821 15.5316 19.2732 17.109 19.2732 19.0211C19.2732 20.9331 17.6821 22.5106 15.7536 22.5106H12.5714" stroke="#638BC2" stroke-width="1.1" stroke-miterlimit="10" stroke-linecap="round" stroke-linejoin="round"/>
</svg>
