<svg id="Layer_1" data-name="Layer 1" xmlns="http://www.w3.org/2000/svg" viewBox="0 0 61 51"><title>THUNDERY OUTBREAKS POSSIBLE</title><path d="M387.34,676h9.16a8.5,8.5,0,0,0,0-17h-1.7a10,10,0,0,0-14.52-6.82,13.49,13.49,0,0,0-26,6.83,8.5,8.5,0,0,0,.26,17h6.45" transform="translate(-345 -642)" style="fill:none;stroke:#1c468c;stroke-linecap:round;stroke-linejoin:round;stroke-width:2px"/><path d="M362.44,647.3a10.54,10.54,0,0,0-4.68,5.28" transform="translate(-345 -642)" style="fill:none;stroke:#1c468c;stroke-linecap:round;stroke-linejoin:round;stroke-width:2px"/><polygon points="31 20 21.5 36 28 36 28 50 37.5 32 31 32 31 20" style="fill:none;stroke:#1c468c;stroke-linecap:round;stroke-linejoin:round;stroke-width:2px"/></svg>