<svg width="31" height="25" viewBox="0 0 31 25" fill="none" xmlns="http://www.w3.org/2000/svg">
<path d="M7 8.08097L10.5 13.5339L14 8.08097H11.8125V0.645203H9.1875V8.08097H7Z" stroke="#638BC2" stroke-width="1.1" stroke-miterlimit="10" stroke-linecap="round" stroke-linejoin="round"/>
<path d="M18 6.0981L22 0.645203L26 6.0981H23.5V13.5339H20.5V6.0981H18Z" stroke="#638BC2" stroke-width="1.1" stroke-miterlimit="10" stroke-linecap="round" stroke-linejoin="round"/>
<path d="M1 22.4567C1.62857 23.6068 2.88571 24.4396 4.66667 24.4396C6.44762 24.4396 7.70476 23.6068 8.33333 22.4567C8.96191 23.6068 10.219 24.4396 12 24.4396C13.781 24.4396 15.0381 23.6068 15.6667 22.4567C16.2952 23.6068 17.5524 24.4396 19.3333 24.4396C21.1143 24.4396 22.3714 23.6068 23 22.4567" stroke="#638BC2" stroke-width="1.1" stroke-miterlimit="10" stroke-linecap="round" stroke-linejoin="round"/>
<path d="M8 17.4996C8.62857 19.2246 9.88571 20.4738 11.6667 20.4738C13.4476 20.4738 14.7048 19.2246 15.3333 17.4996C15.9619 19.2246 17.219 20.4738 19 20.4738C20.781 20.4738 22.0381 19.2246 22.6667 17.4996C23.2952 19.2246 24.5524 20.4738 26.3333 20.4738C28.1143 20.4738 29.3714 19.2246 30 17.4996" stroke="#638BC2" stroke-width="1.1" stroke-miterlimit="10" stroke-linecap="round" stroke-linejoin="round"/>
</svg>
