<svg width="313" height="313" viewBox="0 0 313 313" fill="none" xmlns="http://www.w3.org/2000/svg">
<g filter="url(#filter0_i)">
<path d="M304.5 155.5C304.5 237.238 238.238 303.5 156.5 303.5C74.7619 303.5 8.5 237.238 8.5 155.5C8.5 73.7619 74.7619 7.5 156.5 7.5C238.238 7.5 304.5 73.7619 304.5 155.5Z" stroke="#B4BFD6" stroke-opacity="0.26" stroke-width="15"/>
</g>
<path d="M296.066 32.1117C295.919 32.1117 295.806 32.0727 295.728 31.9947C295.65 31.9167 295.594 31.856 295.559 31.8127L291.919 26.4047V31.7607C291.919 31.856 291.885 31.9384 291.815 32.0077C291.746 32.077 291.664 32.1117 291.568 32.1117H290.515C290.42 32.1117 290.338 32.077 290.268 32.0077C290.199 31.9384 290.164 31.856 290.164 31.7607V23.3627C290.164 23.2674 290.199 23.185 290.268 23.1157C290.338 23.0464 290.42 23.0117 290.515 23.0117H291.425C291.573 23.0117 291.685 23.0507 291.763 23.1287C291.841 23.2067 291.898 23.2674 291.932 23.3107L295.572 28.7187V23.3627C295.572 23.2674 295.607 23.185 295.676 23.1157C295.746 23.0464 295.828 23.0117 295.923 23.0117H296.976C297.072 23.0117 297.154 23.0464 297.223 23.1157C297.293 23.185 297.327 23.2674 297.327 23.3627V31.7607C297.327 31.856 297.293 31.9384 297.223 32.0077C297.154 32.077 297.072 32.1117 296.976 32.1117H296.066ZM307.364 30.4867C307.459 30.4867 307.541 30.5214 307.611 30.5907C307.68 30.66 307.715 30.7424 307.715 30.8377V31.7607C307.715 31.856 307.68 31.9384 307.611 32.0077C307.541 32.077 307.459 32.1117 307.364 32.1117H301.657C301.561 32.1117 301.479 32.077 301.41 32.0077C301.34 31.9384 301.306 31.856 301.306 31.7607V23.3627C301.306 23.2674 301.34 23.185 301.41 23.1157C301.479 23.0464 301.561 23.0117 301.657 23.0117H307.26C307.355 23.0117 307.437 23.0464 307.507 23.1157C307.576 23.185 307.611 23.2674 307.611 23.3627V24.2857C307.611 24.381 307.576 24.4634 307.507 24.5327C307.437 24.602 307.355 24.6367 307.26 24.6367H303.061V26.7037H306.974C307.069 26.7037 307.151 26.7384 307.221 26.8077C307.29 26.877 307.325 26.9594 307.325 27.0547V27.9777C307.325 28.073 307.29 28.1554 307.221 28.2247C307.151 28.294 307.069 28.3287 306.974 28.3287H303.061V30.4867H307.364Z" fill="#4B79BD"/>
<path d="M285.447 288.383C286.028 288.383 286.539 288.461 286.981 288.617C287.423 288.773 287.792 288.968 288.086 289.202C288.381 289.436 288.602 289.696 288.749 289.982C288.905 290.259 288.992 290.523 289.009 290.775C289.018 290.879 288.983 290.965 288.905 291.035C288.836 291.095 288.754 291.126 288.658 291.126H287.748C287.601 291.126 287.488 291.1 287.41 291.048C287.341 290.987 287.276 290.909 287.215 290.814C287.085 290.597 286.886 290.411 286.617 290.255C286.357 290.09 285.967 290.008 285.447 290.008C285.222 290.008 285.005 290.034 284.797 290.086C284.598 290.129 284.42 290.198 284.264 290.294C284.117 290.38 284 290.489 283.913 290.619C283.827 290.749 283.783 290.896 283.783 291.061C283.783 291.26 283.822 291.425 283.9 291.555C283.987 291.676 284.126 291.784 284.316 291.88C284.516 291.966 284.776 292.049 285.096 292.127C285.417 292.205 285.816 292.296 286.292 292.4C286.812 292.512 287.259 292.647 287.631 292.803C288.013 292.95 288.32 293.132 288.554 293.349C288.797 293.557 288.975 293.799 289.087 294.077C289.209 294.354 289.269 294.67 289.269 295.026C289.269 295.416 289.183 295.78 289.009 296.118C288.836 296.447 288.589 296.733 288.268 296.976C287.948 297.21 287.553 297.396 287.085 297.535C286.617 297.673 286.093 297.743 285.512 297.743C285.027 297.743 284.563 297.686 284.121 297.574C283.679 297.452 283.285 297.283 282.938 297.067C282.6 296.841 282.327 296.573 282.119 296.261C281.911 295.949 281.794 295.602 281.768 295.221C281.76 295.117 281.79 295.034 281.859 294.974C281.937 294.904 282.024 294.87 282.119 294.87H283.029C283.177 294.87 283.289 294.896 283.367 294.948C283.445 295 283.51 295.078 283.562 295.182C283.623 295.294 283.697 295.407 283.783 295.52C283.87 295.632 283.987 295.732 284.134 295.819C284.282 295.905 284.464 295.979 284.68 296.04C284.906 296.092 285.183 296.118 285.512 296.118C285.772 296.118 286.024 296.1 286.266 296.066C286.509 296.022 286.721 295.957 286.903 295.871C287.085 295.775 287.233 295.663 287.345 295.533C287.458 295.394 287.514 295.225 287.514 295.026C287.514 294.835 287.454 294.679 287.332 294.558C287.211 294.436 287.025 294.332 286.773 294.246C286.531 294.159 286.227 294.077 285.863 293.999C285.499 293.921 285.079 293.821 284.602 293.7C284.169 293.596 283.788 293.474 283.458 293.336C283.138 293.188 282.869 293.011 282.652 292.803C282.444 292.595 282.288 292.352 282.184 292.075C282.08 291.789 282.028 291.451 282.028 291.061C282.028 290.671 282.115 290.311 282.288 289.982C282.462 289.652 282.7 289.371 283.003 289.137C283.307 288.903 283.666 288.721 284.082 288.591C284.507 288.452 284.962 288.383 285.447 288.383ZM298.765 295.988C298.86 295.988 298.943 296.022 299.012 296.092C299.081 296.161 299.116 296.243 299.116 296.339V297.262C299.116 297.357 299.081 297.439 299.012 297.509C298.943 297.578 298.86 297.613 298.765 297.613H293.058C292.963 297.613 292.88 297.578 292.811 297.509C292.742 297.439 292.707 297.357 292.707 297.262V288.864C292.707 288.768 292.742 288.686 292.811 288.617C292.88 288.547 292.963 288.513 293.058 288.513H298.661C298.756 288.513 298.839 288.547 298.908 288.617C298.977 288.686 299.012 288.768 299.012 288.864V289.787C299.012 289.882 298.977 289.964 298.908 290.034C298.839 290.103 298.756 290.138 298.661 290.138H294.462V292.205H298.375C298.47 292.205 298.553 292.239 298.622 292.309C298.691 292.378 298.726 292.46 298.726 292.556V293.479C298.726 293.574 298.691 293.656 298.622 293.726C298.553 293.795 298.47 293.83 298.375 293.83H294.462V295.988H298.765Z" fill="#4B79BD"/>
<path d="M11.6655 32.1117C11.5181 32.1117 11.4055 32.0727 11.3275 31.9947C11.2495 31.9167 11.1931 31.856 11.1585 31.8127L7.51846 26.4047V31.7607C7.51846 31.856 7.4838 31.9384 7.41446 32.0077C7.34513 32.077 7.2628 32.1117 7.16746 32.1117H6.11446C6.01913 32.1117 5.9368 32.077 5.86746 32.0077C5.79813 31.9384 5.76346 31.856 5.76346 31.7607V23.3627C5.76346 23.2674 5.79813 23.185 5.86746 23.1157C5.9368 23.0464 6.01913 23.0117 6.11446 23.0117H7.02446C7.1718 23.0117 7.28446 23.0507 7.36246 23.1287C7.44046 23.2067 7.4968 23.2674 7.53146 23.3107L11.1715 28.7187V23.3627C11.1715 23.2674 11.2061 23.185 11.2755 23.1157C11.3448 23.0464 11.4271 23.0117 11.5225 23.0117H12.5755C12.6708 23.0117 12.7531 23.0464 12.8225 23.1157C12.8918 23.185 12.9265 23.2674 12.9265 23.3627V31.7607C12.9265 31.856 12.8918 31.9384 12.8225 32.0077C12.7531 32.077 12.6708 32.1117 12.5755 32.1117H11.6655ZM21.1039 27.7827L19.9859 31.6697C19.9425 31.7997 19.8862 31.908 19.8169 31.9947C19.7562 32.0727 19.6609 32.1117 19.5309 32.1117H18.4779C18.3479 32.1117 18.2439 32.0727 18.1659 31.9947C18.0965 31.908 18.0489 31.7997 18.0229 31.6697L16.3589 23.4667C16.3502 23.4234 16.3459 23.3887 16.3459 23.3627C16.3459 23.2674 16.3805 23.185 16.4499 23.1157C16.5192 23.0464 16.6015 23.0117 16.6969 23.0117H17.6589C17.7455 23.0117 17.8279 23.0377 17.9059 23.0897C17.9839 23.1417 18.0359 23.2327 18.0619 23.3627L19.1539 28.8747L20.1159 25.4037C20.1332 25.343 20.1722 25.265 20.2329 25.1697C20.3022 25.0744 20.4149 25.0267 20.5709 25.0267H21.6369C21.7929 25.0267 21.9012 25.0744 21.9619 25.1697C22.0312 25.265 22.0745 25.343 22.0919 25.4037L23.0539 28.8747L24.1459 23.3627C24.1719 23.2327 24.2239 23.1417 24.3019 23.0897C24.3799 23.0377 24.4622 23.0117 24.5489 23.0117H25.5109C25.6062 23.0117 25.6885 23.0464 25.7579 23.1157C25.8272 23.185 25.8619 23.2674 25.8619 23.3627C25.8619 23.3887 25.8575 23.4234 25.8489 23.4667L24.1849 31.6697C24.1589 31.7997 24.1069 31.908 24.0289 31.9947C23.9595 32.0727 23.8599 32.1117 23.7299 32.1117H22.6769C22.5469 32.1117 22.4472 32.0727 22.3779 31.9947C22.3172 31.908 22.2652 31.7997 22.2219 31.6697L21.1039 27.7827Z" fill="#4B79BD"/>
<path d="M12.4631 288.383C13.0438 288.383 13.5551 288.461 13.9971 288.617C14.4391 288.773 14.8075 288.968 15.1021 289.202C15.3968 289.436 15.6178 289.696 15.7651 289.982C15.9211 290.259 16.0078 290.523 16.0251 290.775C16.0338 290.879 15.9991 290.965 15.9211 291.035C15.8518 291.095 15.7695 291.126 15.6741 291.126H14.7641C14.6168 291.126 14.5041 291.1 14.4261 291.048C14.3568 290.987 14.2918 290.909 14.2311 290.814C14.1011 290.597 13.9018 290.411 13.6331 290.255C13.3731 290.09 12.9831 290.008 12.4631 290.008C12.2378 290.008 12.0211 290.034 11.8131 290.086C11.6138 290.129 11.4361 290.198 11.2801 290.294C11.1328 290.38 11.0158 290.489 10.9291 290.619C10.8425 290.749 10.7991 290.896 10.7991 291.061C10.7991 291.26 10.8381 291.425 10.9161 291.555C11.0028 291.676 11.1415 291.784 11.3321 291.88C11.5315 291.966 11.7915 292.049 12.1121 292.127C12.4328 292.205 12.8315 292.296 13.3081 292.4C13.8281 292.512 14.2745 292.647 14.6471 292.803C15.0285 292.95 15.3361 293.132 15.5701 293.349C15.8128 293.557 15.9905 293.799 16.1031 294.077C16.2245 294.354 16.2851 294.67 16.2851 295.026C16.2851 295.416 16.1985 295.78 16.0251 296.118C15.8518 296.447 15.6048 296.733 15.2841 296.976C14.9635 297.21 14.5691 297.396 14.1011 297.535C13.6331 297.673 13.1088 297.743 12.5281 297.743C12.0428 297.743 11.5791 297.686 11.1371 297.574C10.6951 297.452 10.3008 297.283 9.95413 297.067C9.61613 296.841 9.34313 296.573 9.13513 296.261C8.92713 295.949 8.81013 295.602 8.78413 295.221C8.77547 295.117 8.8058 295.034 8.87513 294.974C8.95313 294.904 9.0398 294.87 9.13513 294.87H10.0451C10.1925 294.87 10.3051 294.896 10.3831 294.948C10.4611 295 10.5261 295.078 10.5781 295.182C10.6388 295.294 10.7125 295.407 10.7991 295.52C10.8858 295.632 11.0028 295.732 11.1501 295.819C11.2975 295.905 11.4795 295.979 11.6961 296.04C11.9215 296.092 12.1988 296.118 12.5281 296.118C12.7881 296.118 13.0395 296.1 13.2821 296.066C13.5248 296.022 13.7371 295.957 13.9191 295.871C14.1011 295.775 14.2485 295.663 14.3611 295.533C14.4738 295.394 14.5301 295.225 14.5301 295.026C14.5301 294.835 14.4695 294.679 14.3481 294.558C14.2268 294.436 14.0405 294.332 13.7891 294.246C13.5465 294.159 13.2431 294.077 12.8791 293.999C12.5151 293.921 12.0948 293.821 11.6181 293.7C11.1848 293.596 10.8035 293.474 10.4741 293.336C10.1535 293.188 9.8848 293.011 9.66813 292.803C9.46013 292.595 9.30413 292.352 9.20013 292.075C9.09613 291.789 9.04413 291.451 9.04413 291.061C9.04413 290.671 9.1308 290.311 9.30413 289.982C9.47747 289.652 9.7158 289.371 10.0191 289.137C10.3225 288.903 10.6821 288.721 11.0981 288.591C11.5228 288.452 11.9778 288.383 12.4631 288.383ZM23.8456 293.284L22.7276 297.171C22.6843 297.301 22.628 297.409 22.5586 297.496C22.498 297.574 22.4026 297.613 22.2726 297.613H21.2196C21.0896 297.613 20.9856 297.574 20.9076 297.496C20.8383 297.409 20.7906 297.301 20.7646 297.171L19.1006 288.968C19.092 288.924 19.0876 288.89 19.0876 288.864C19.0876 288.768 19.1223 288.686 19.1916 288.617C19.261 288.547 19.3433 288.513 19.4386 288.513H20.4006C20.4873 288.513 20.5696 288.539 20.6476 288.591C20.7256 288.643 20.7776 288.734 20.8036 288.864L21.8956 294.376L22.8576 290.905C22.875 290.844 22.914 290.766 22.9746 290.671C23.044 290.575 23.1566 290.528 23.3126 290.528H24.3786C24.5346 290.528 24.643 290.575 24.7036 290.671C24.773 290.766 24.8163 290.844 24.8336 290.905L25.7956 294.376L26.8876 288.864C26.9136 288.734 26.9656 288.643 27.0436 288.591C27.1216 288.539 27.204 288.513 27.2906 288.513H28.2526C28.348 288.513 28.4303 288.547 28.4996 288.617C28.569 288.686 28.6036 288.768 28.6036 288.864C28.6036 288.89 28.5993 288.924 28.5906 288.968L26.9266 297.171C26.9006 297.301 26.8486 297.409 26.7706 297.496C26.7013 297.574 26.6016 297.613 26.4716 297.613H25.4186C25.2886 297.613 25.189 297.574 25.1196 297.496C25.059 297.409 25.007 297.301 24.9636 297.171L23.8456 293.284Z" fill="#4B79BD"/>
<path opacity="0.5" d="M161.43 47.4116C161.203 47.4116 161.03 47.3516 160.91 47.2316C160.79 47.1116 160.703 47.0183 160.65 46.9516L155.05 38.6316V46.8716C155.05 47.0183 154.996 47.145 154.89 47.2516C154.783 47.3583 154.656 47.4116 154.51 47.4116H152.89C152.743 47.4116 152.616 47.3583 152.51 47.2516C152.403 47.145 152.35 47.0183 152.35 46.8716V33.9516C152.35 33.805 152.403 33.6783 152.51 33.5716C152.616 33.465 152.743 33.4116 152.89 33.4116H154.29C154.516 33.4116 154.69 33.4716 154.81 33.5916C154.93 33.7116 155.016 33.805 155.07 33.8716L160.67 42.1916V33.9516C160.67 33.805 160.723 33.6783 160.83 33.5716C160.936 33.465 161.063 33.4116 161.21 33.4116H162.83C162.976 33.4116 163.103 33.465 163.21 33.5716C163.316 33.6783 163.37 33.805 163.37 33.9516V46.8716C163.37 47.0183 163.316 47.145 163.21 47.2516C163.103 47.3583 162.976 47.4116 162.83 47.4116H161.43Z" fill="#4B79BD"/>
<path opacity="0.5" d="M157.736 267.212C158.629 267.212 159.416 267.332 160.096 267.572C160.776 267.812 161.342 268.112 161.796 268.472C162.249 268.832 162.589 269.232 162.816 269.672C163.056 270.098 163.189 270.505 163.216 270.892C163.229 271.052 163.176 271.185 163.056 271.292C162.949 271.385 162.822 271.432 162.676 271.432H161.276C161.049 271.432 160.876 271.392 160.756 271.312C160.649 271.218 160.549 271.098 160.456 270.952C160.256 270.618 159.949 270.332 159.536 270.092C159.136 269.838 158.536 269.712 157.736 269.712C157.389 269.712 157.056 269.752 156.736 269.832C156.429 269.898 156.156 270.005 155.916 270.152C155.689 270.285 155.509 270.452 155.376 270.652C155.242 270.852 155.176 271.078 155.176 271.332C155.176 271.638 155.236 271.892 155.356 272.092C155.489 272.278 155.702 272.445 155.996 272.592C156.302 272.725 156.702 272.852 157.196 272.972C157.689 273.092 158.302 273.232 159.036 273.392C159.836 273.565 160.522 273.772 161.096 274.012C161.682 274.238 162.156 274.518 162.516 274.852C162.889 275.172 163.162 275.545 163.336 275.972C163.522 276.398 163.616 276.885 163.616 277.432C163.616 278.032 163.482 278.592 163.216 279.112C162.949 279.618 162.569 280.058 162.076 280.432C161.582 280.792 160.976 281.078 160.256 281.292C159.536 281.505 158.729 281.612 157.836 281.612C157.089 281.612 156.376 281.525 155.696 281.352C155.016 281.165 154.409 280.905 153.876 280.572C153.356 280.225 152.936 279.812 152.616 279.332C152.296 278.852 152.116 278.318 152.076 277.732C152.062 277.572 152.109 277.445 152.216 277.352C152.336 277.245 152.469 277.192 152.616 277.192H154.016C154.242 277.192 154.416 277.232 154.536 277.312C154.656 277.392 154.756 277.512 154.836 277.672C154.929 277.845 155.042 278.018 155.176 278.192C155.309 278.365 155.489 278.518 155.716 278.652C155.942 278.785 156.222 278.898 156.556 278.992C156.902 279.072 157.329 279.112 157.836 279.112C158.236 279.112 158.622 279.085 158.996 279.032C159.369 278.965 159.696 278.865 159.976 278.732C160.256 278.585 160.482 278.412 160.656 278.212C160.829 277.998 160.916 277.738 160.916 277.432C160.916 277.138 160.822 276.898 160.636 276.712C160.449 276.525 160.162 276.365 159.776 276.232C159.402 276.098 158.936 275.972 158.376 275.852C157.816 275.732 157.169 275.578 156.436 275.392C155.769 275.232 155.182 275.045 154.676 274.832C154.182 274.605 153.769 274.332 153.436 274.012C153.116 273.692 152.876 273.318 152.716 272.892C152.556 272.452 152.476 271.932 152.476 271.332C152.476 270.732 152.609 270.178 152.876 269.672C153.142 269.165 153.509 268.732 153.976 268.372C154.442 268.012 154.996 267.732 155.636 267.532C156.289 267.318 156.989 267.212 157.736 267.212Z" fill="#4B79BD"/>
<path opacity="0.5" d="M279.568 161.912C279.715 161.912 279.842 161.965 279.948 162.072C280.055 162.178 280.108 162.305 280.108 162.452V163.872C280.108 164.018 280.055 164.145 279.948 164.252C279.842 164.358 279.715 164.412 279.568 164.412H270.788C270.642 164.412 270.515 164.358 270.408 164.252C270.302 164.145 270.248 164.018 270.248 163.872V150.952C270.248 150.805 270.302 150.678 270.408 150.572C270.515 150.465 270.642 150.412 270.788 150.412H279.408C279.555 150.412 279.682 150.465 279.788 150.572C279.895 150.678 279.948 150.805 279.948 150.952V152.372C279.948 152.518 279.895 152.645 279.788 152.752C279.682 152.858 279.555 152.912 279.408 152.912H272.948V156.092H278.968C279.115 156.092 279.242 156.145 279.348 156.252C279.455 156.358 279.508 156.485 279.508 156.632V158.052C279.508 158.198 279.455 158.325 279.348 158.432C279.242 158.538 279.115 158.592 278.968 158.592H272.948V161.912H279.568Z" fill="#4B79BD"/>
<path opacity="0.5" d="M39.8625 157.752L38.1425 163.732C38.0759 163.932 37.9892 164.098 37.8825 164.232C37.7892 164.352 37.6425 164.412 37.4425 164.412H35.8225C35.6225 164.412 35.4625 164.352 35.3425 164.232C35.2359 164.098 35.1625 163.932 35.1225 163.732L32.5625 151.112C32.5492 151.045 32.5425 150.992 32.5425 150.952C32.5425 150.805 32.5959 150.678 32.7025 150.572C32.8092 150.465 32.9359 150.412 33.0825 150.412H34.5625C34.6959 150.412 34.8225 150.452 34.9425 150.532C35.0625 150.612 35.1425 150.752 35.1825 150.952L36.8625 159.432L38.3425 154.092C38.3692 153.998 38.4292 153.878 38.5225 153.732C38.6292 153.585 38.8025 153.512 39.0425 153.512H40.6825C40.9225 153.512 41.0892 153.585 41.1825 153.732C41.2892 153.878 41.3559 153.998 41.3825 154.092L42.8625 159.432L44.5425 150.952C44.5825 150.752 44.6625 150.612 44.7825 150.532C44.9025 150.452 45.0292 150.412 45.1625 150.412H46.6425C46.7892 150.412 46.9159 150.465 47.0225 150.572C47.1292 150.678 47.1825 150.805 47.1825 150.952C47.1825 150.992 47.1759 151.045 47.1625 151.112L44.6025 163.732C44.5625 163.932 44.4825 164.098 44.3625 164.232C44.2559 164.352 44.1025 164.412 43.9025 164.412H42.2825C42.0825 164.412 41.9292 164.352 41.8225 164.232C41.7292 164.098 41.6492 163.932 41.5825 163.732L39.8625 157.752Z" fill="#4B79BD"/>
<path d="M157.468 11.7017H155.494V27.067H157.468V11.7017Z" fill="#768EAE"/>
<path d="M157.468 283.932H155.494V299.297H157.468V283.932Z" fill="#768EAE"/>
<path d="M133.342 19.7022L131.818 19.9724L133.435 29.1423L134.96 28.8721L133.342 19.7022Z" fill="#768EAE"/>
<path d="M179.554 281.838L178.03 282.108L179.646 291.278L181.171 291.008L179.554 281.838Z" fill="#768EAE"/>
<path d="M111.832 35.06L108.658 26.3297L110.09 25.7865L113.303 34.5556L111.832 35.06Z" fill="#768EAE"/>
<path d="M202.872 285.213L199.698 276.444L201.131 275.939L204.343 284.669L202.872 285.213Z" fill="#768EAE"/>
<path d="M91.5873 44.644L86.9423 36.5733L88.2971 35.7972L92.942 43.8679L91.5873 44.644Z" fill="#768EAE"/>
<path d="M224.704 275.202L220.02 267.131L221.375 266.355L226.02 274.426L224.704 275.202Z" fill="#768EAE"/>
<path d="M73.356 57.6037L67.3562 50.4643L68.5562 49.4554L74.5172 56.6337L73.356 57.6037Z" fill="#768EAE"/>
<path d="M244.445 261.544L238.445 254.404L239.645 253.396L245.645 260.535L244.445 261.544Z" fill="#768EAE"/>
<path d="M57.6017 73.5512L50.4795 67.537L51.4472 66.3729L58.6081 72.3483L57.6017 73.5512Z" fill="#768EAE"/>
<path d="M261.515 244.626L254.393 238.651L255.361 237.448L262.522 243.462L261.515 244.626Z" fill="#768EAE"/>
<path d="M44.8669 91.9431L36.8157 87.2869L37.5898 85.9677L45.6411 90.6238L44.8669 91.9431Z" fill="#768EAE"/>
<path d="M275.411 225.032L267.321 220.376L268.095 219.056L276.185 223.713L275.411 225.032Z" fill="#768EAE"/>
<path d="M35.5384 112.314L26.7904 109.093L27.3323 107.657L36.0803 110.839L35.5384 112.314Z" fill="#768EAE"/>
<path d="M285.669 203.342L276.921 200.16L277.424 198.686L286.21 201.906L285.669 203.342Z" fill="#768EAE"/>
<path d="M20.9721 130.805L20.7041 132.333L29.8918 133.952L30.1598 132.424L20.9721 130.805Z" fill="#768EAE"/>
<path d="M283.093 177.022L282.825 178.55L292.013 180.17L292.281 178.641L283.093 177.022Z" fill="#768EAE"/>
<path d="M28.0677 154.491H12.7007V156.47H28.0677V154.491Z" fill="#768EAE"/>
<path d="M300.3 154.491H284.933V156.47H300.3V154.491Z" fill="#768EAE"/>
<path d="M29.8843 177.056L20.6975 178.683L20.9669 180.212L30.1537 178.585L29.8843 177.056Z" fill="#768EAE"/>
<path d="M292.02 130.794L282.833 132.422L283.103 133.95L292.29 132.323L292.02 130.794Z" fill="#768EAE"/>
<path d="M27.3323 203.342L26.7904 201.906L35.5384 198.686L36.0803 200.16L27.3323 203.342Z" fill="#768EAE"/>
<path d="M277.424 112.314L276.921 110.839L285.669 107.657L286.21 109.093L277.424 112.314Z" fill="#768EAE"/>
<path d="M37.5898 225.032L36.8157 223.713L44.8669 219.056L45.6411 220.376L37.5898 225.032Z" fill="#768EAE"/>
<path d="M268.095 91.9431L267.321 90.6238L275.411 85.9677L276.185 87.2869L268.095 91.9431Z" fill="#768EAE"/>
<path d="M51.4859 244.626L50.4795 243.462L57.6017 237.448L58.6081 238.651L51.4859 244.626Z" fill="#768EAE"/>
<path d="M255.361 73.5512L254.393 72.3483L261.515 66.3729L262.522 67.537L255.361 73.5512Z" fill="#768EAE"/>
<path d="M68.5562 261.544L67.3562 260.535L73.356 253.396L74.5172 254.366L68.5562 261.544Z" fill="#768EAE"/>
<path d="M239.645 57.6037L238.445 56.5949L244.445 49.4554L245.645 50.4643L239.645 57.6037Z" fill="#768EAE"/>
<path d="M88.2971 275.202L86.9423 274.426L91.626 266.355L92.942 267.131L88.2971 275.202Z" fill="#768EAE"/>
<path d="M221.375 44.644L220.02 43.8679L224.704 35.7972L226.02 36.5733L221.375 44.644Z" fill="#768EAE"/>
<path d="M110.09 285.213L108.658 284.669L111.832 275.939L113.303 276.444L110.09 285.213Z" fill="#768EAE"/>
<path d="M201.131 35.06L199.698 34.5556L202.872 25.7865L204.343 26.3297L201.131 35.06Z" fill="#768EAE"/>
<path d="M133.429 281.845L131.82 291.017L133.345 291.286L134.954 282.114L133.429 281.845Z" fill="#768EAE"/>
<path d="M179.654 19.6936L178.044 28.8654L179.569 29.1342L181.178 19.9625L179.654 19.6936Z" fill="#768EAE"/>
<path d="M152.163 21.7022L151.505 21.7252L151.666 26.3398L152.324 26.3168L152.163 21.7022Z" fill="#B4BFD6" fill-opacity="0.7"/>
<path d="M161.338 284.663L160.68 284.686L160.842 289.301L161.499 289.278L161.338 284.663Z" fill="#B4BFD6" fill-opacity="0.7"/>
<path d="M147.482 21.967L146.826 22.0131L147.147 26.6193L147.804 26.5733L147.482 21.967Z" fill="#B4BFD6" fill-opacity="0.7"/>
<path d="M165.83 284.433L165.174 284.479L165.496 289.085L166.152 289.039L165.83 284.433Z" fill="#B4BFD6" fill-opacity="0.7"/>
<path d="M142.825 22.3541L142.171 22.4231L142.653 27.0151L143.307 26.9461L142.825 22.3541Z" fill="#B4BFD6" fill-opacity="0.7"/>
<path d="M170.297 283.995L169.643 284.064L170.125 288.656L170.78 288.587L170.297 283.995Z" fill="#B4BFD6" fill-opacity="0.7"/>
<path d="M138.172 22.8868L137.52 22.9788L138.162 27.5509L138.814 27.4589L138.172 22.8868Z" fill="#B4BFD6" fill-opacity="0.7"/>
<path d="M174.79 283.438L174.139 283.53L174.781 288.102L175.433 288.01L174.79 283.438Z" fill="#B4BFD6" fill-opacity="0.7"/>
<path d="M129.289 29.1626L128.321 24.6229L128.979 24.5065L129.947 29.0074L129.289 29.1626Z" fill="#B4BFD6" fill-opacity="0.7"/>
<path d="M183.683 281.843L183.039 281.98L183.999 286.496L184.643 286.359L183.683 281.843Z" fill="#B4BFD6" fill-opacity="0.7"/>
<path d="M124.915 30.1714L123.792 25.7093L124.45 25.5541L125.534 30.0162L124.915 30.1714Z" fill="#B4BFD6" fill-opacity="0.7"/>
<path d="M188.551 285.446L187.428 280.983L188.086 280.828L189.209 285.29L188.551 285.446Z" fill="#B4BFD6" fill-opacity="0.7"/>
<path d="M120.541 31.3354L119.264 26.912L119.922 26.7568L121.199 31.1802L120.541 31.3354Z" fill="#B4BFD6" fill-opacity="0.7"/>
<path d="M193.08 284.243L191.802 279.819L192.421 279.664L193.699 284.088L193.08 284.243Z" fill="#B4BFD6" fill-opacity="0.7"/>
<path d="M116.244 32.6936L114.812 28.309L115.431 28.115L116.864 32.4607L116.244 32.6936Z" fill="#B4BFD6" fill-opacity="0.7"/>
<path d="M197.531 282.885L196.099 278.539L196.757 278.306L198.15 282.691L197.531 282.885Z" fill="#B4BFD6" fill-opacity="0.7"/>
<path d="M107.767 35.7978L106.025 31.5297L106.645 31.2581L108.387 35.5262L107.767 35.7978Z" fill="#B4BFD6" fill-opacity="0.7"/>
<path d="M206.318 279.742L204.614 275.474L205.195 275.202L206.937 279.47L206.318 279.742Z" fill="#B4BFD6" fill-opacity="0.7"/>
<path d="M103.626 37.5824L101.768 33.353L102.348 33.0814L104.245 37.3108L103.626 37.5824Z" fill="#B4BFD6" fill-opacity="0.7"/>
<path d="M210.614 277.918L208.756 273.689L209.376 273.417L211.234 277.647L210.614 277.918Z" fill="#B4BFD6" fill-opacity="0.7"/>
<path d="M99.5226 39.4838L97.5097 35.332L98.1291 35.0604L100.142 39.1734L99.5226 39.4838Z" fill="#B4BFD6" fill-opacity="0.7"/>
<path d="M214.872 275.939L212.859 271.826L213.44 271.516L215.453 275.668L214.872 275.939Z" fill="#B4BFD6" fill-opacity="0.7"/>
<path d="M95.5357 41.5401L93.3681 37.4659L93.9487 37.1555L96.1163 41.2297L95.5357 41.5401Z" fill="#B4BFD6" fill-opacity="0.7"/>
<path d="M219.014 273.844L216.885 269.77L217.466 269.46L219.633 273.534L219.014 273.844Z" fill="#B4BFD6" fill-opacity="0.7"/>
<path d="M87.7167 46.08L85.278 42.1611L85.8587 41.8119L88.2973 45.7308L87.7167 46.08Z" fill="#B4BFD6" fill-opacity="0.7"/>
<path d="M227.143 269.188L224.704 265.269L225.246 264.92L227.684 268.839L227.143 269.188Z" fill="#B4BFD6" fill-opacity="0.7"/>
<path d="M83.962 48.5244L81.3686 44.7219L81.9105 44.3339L84.504 48.1752L83.962 48.5244Z" fill="#B4BFD6" fill-opacity="0.7"/>
<path d="M231.052 266.666L228.497 262.824L229.039 262.475L231.594 266.278L231.052 266.666Z" fill="#B4BFD6" fill-opacity="0.7"/>
<path d="M80.246 51.1242L77.5364 47.3992L78.0783 47.0112L80.7879 50.7362L80.246 51.1242Z" fill="#B4BFD6" fill-opacity="0.7"/>
<path d="M234.884 263.989L232.174 260.264L232.716 259.876L235.426 263.601L234.884 263.989Z" fill="#B4BFD6" fill-opacity="0.7"/>
<path d="M76.6462 53.8403L73.8206 50.2317L74.3625 49.8049L77.1882 53.4523L76.6462 53.8403Z" fill="#B4BFD6" fill-opacity="0.7"/>
<path d="M238.639 261.195L235.813 257.547L236.316 257.159L239.142 260.768L238.639 261.195Z" fill="#B4BFD6" fill-opacity="0.7"/>
<path d="M69.7562 59.6606L66.6983 56.246L67.1628 55.8192L70.2594 59.2337L69.7562 59.6606Z" fill="#B4BFD6" fill-opacity="0.7"/>
<path d="M245.8 255.181L242.703 251.766L243.206 251.339L246.303 254.754L245.8 255.181Z" fill="#B4BFD6" fill-opacity="0.7"/>
<path d="M66.466 62.7647L63.292 59.4278L63.7565 59.001L66.9692 62.2991L66.466 62.7647Z" fill="#B4BFD6" fill-opacity="0.7"/>
<path d="M249.245 251.999L246.032 248.701L246.497 248.235L249.709 251.572L249.245 251.999Z" fill="#B4BFD6" fill-opacity="0.7"/>
<path d="M63.2921 65.9464L59.9632 62.7647L60.4277 62.2991L63.7566 65.4808L63.2921 65.9464Z" fill="#B4BFD6" fill-opacity="0.7"/>
<path d="M252.535 248.701L249.206 245.519L249.67 245.054L252.999 248.235L252.535 248.701Z" fill="#B4BFD6" fill-opacity="0.7"/>
<path d="M60.2342 69.2832L56.7892 66.1791L57.2537 65.6747L60.66 68.7788L60.2342 69.2832Z" fill="#B4BFD6" fill-opacity="0.7"/>
<path d="M255.748 245.325L252.303 242.221L252.767 241.717L256.173 244.821L255.748 245.325Z" fill="#B4BFD6" fill-opacity="0.7"/>
<path d="M54.4279 76.1899L50.828 73.3574L51.2151 72.8142L54.8537 75.6855L54.4279 76.1899Z" fill="#B4BFD6" fill-opacity="0.7"/>
<path d="M261.747 238.186L258.109 235.314L258.535 234.81L262.173 237.642L261.747 238.186Z" fill="#B4BFD6" fill-opacity="0.7"/>
<path d="M51.7571 79.7983L48.0024 77.0822L48.3895 76.5389L52.1442 79.255L51.7571 79.7983Z" fill="#B4BFD6" fill-opacity="0.7"/>
<path d="M264.573 234.461L260.857 231.745L261.244 231.201L264.96 233.918L264.573 234.461Z" fill="#B4BFD6" fill-opacity="0.7"/>
<path d="M49.1636 83.4845L45.3315 80.9236L45.7186 80.3804L49.5507 82.9413L49.1636 83.4845Z" fill="#B4BFD6" fill-opacity="0.7"/>
<path d="M267.283 230.619L263.451 228.059L263.799 227.515L267.631 230.076L267.283 230.619Z" fill="#B4BFD6" fill-opacity="0.7"/>
<path d="M46.725 87.287L42.8155 84.8425L43.1639 84.2993L47.0734 86.7438L46.725 87.287Z" fill="#B4BFD6" fill-opacity="0.7"/>
<path d="M269.837 226.701L265.928 224.256L266.276 223.713L270.186 226.157L269.837 226.701Z" fill="#B4BFD6" fill-opacity="0.7"/>
<path d="M42.2349 95.125L38.1705 92.9521L38.4802 92.3701L42.5445 94.543L42.2349 95.125Z" fill="#B4BFD6" fill-opacity="0.7"/>
<path d="M274.521 218.63L270.457 216.457L270.766 215.875L274.831 218.048L274.521 218.63Z" fill="#B4BFD6" fill-opacity="0.7"/>
<path d="M40.1834 99.1214L36.0416 97.1037L36.3513 96.5217L40.493 98.5394L40.1834 99.1214Z" fill="#B4BFD6" fill-opacity="0.7"/>
<path d="M276.65 214.478L272.508 212.46L272.779 211.839L276.921 213.896L276.65 214.478Z" fill="#B4BFD6" fill-opacity="0.7"/>
<path d="M38.2867 103.234L34.0676 101.372L34.3385 100.751L38.5577 102.614L38.2867 103.234Z" fill="#B4BFD6" fill-opacity="0.7"/>
<path d="M278.624 210.249L274.405 208.386L274.676 207.765L278.895 209.628L278.624 210.249Z" fill="#B4BFD6" fill-opacity="0.7"/>
<path d="M36.5449 107.386L32.2871 105.679L32.5193 105.058L36.7772 106.765L36.5449 107.386Z" fill="#B4BFD6" fill-opacity="0.7"/>
<path d="M280.482 205.942L276.185 204.234L276.456 203.614L280.714 205.321L280.482 205.942Z" fill="#B4BFD6" fill-opacity="0.7"/>
<path d="M33.487 115.884L29.113 114.448L29.3066 113.827L33.6806 115.263L33.487 115.884Z" fill="#B4BFD6" fill-opacity="0.7"/>
<path d="M283.695 197.173L279.282 195.737L279.514 195.116L283.888 196.552L283.695 197.173Z" fill="#B4BFD6" fill-opacity="0.7"/>
<path d="M32.1709 120.191L27.7582 118.91L27.913 118.289L32.3644 119.57L32.1709 120.191Z" fill="#B4BFD6" fill-opacity="0.7"/>
<path d="M280.818 190.801L280.637 191.436L285.066 192.706L285.247 192.072L280.818 190.801Z" fill="#B4BFD6" fill-opacity="0.7"/>
<path d="M26.692 122.793L26.5331 123.433L31.003 124.548L31.1619 123.908L26.692 122.793Z" fill="#B4BFD6" fill-opacity="0.7"/>
<path d="M286.288 188.21L281.798 187.084L281.953 186.464L286.443 187.55L286.288 188.21Z" fill="#B4BFD6" fill-opacity="0.7"/>
<path d="M25.6537 127.358L25.517 128.003L30.0228 128.962L30.1595 128.317L25.6537 127.358Z" fill="#B4BFD6" fill-opacity="0.7"/>
<path d="M287.333 183.67L282.843 182.7L282.959 182.04L287.488 183.01L287.333 183.67Z" fill="#B4BFD6" fill-opacity="0.7"/>
<path d="M24.008 136.549L23.9166 137.202L28.4782 137.843L28.5696 137.19L24.008 136.549Z" fill="#B4BFD6" fill-opacity="0.7"/>
<path d="M284.502 173.179L284.411 173.832L288.972 174.473L289.064 173.82L284.502 173.179Z" fill="#B4BFD6" fill-opacity="0.7"/>
<path d="M23.4095 141.16L23.3408 141.816L27.9217 142.299L27.9904 141.643L23.4095 141.16Z" fill="#B4BFD6" fill-opacity="0.7"/>
<path d="M285.051 168.681L284.983 169.337L289.563 169.819L289.632 169.163L285.051 168.681Z" fill="#B4BFD6" fill-opacity="0.7"/>
<path d="M23.0001 145.843L22.9543 146.501L27.5495 146.823L27.5953 146.165L23.0001 145.843Z" fill="#B4BFD6" fill-opacity="0.7"/>
<path d="M285.439 164.192L285.394 164.85L289.989 165.171L290.034 164.513L285.439 164.192Z" fill="#B4BFD6" fill-opacity="0.7"/>
<path d="M22.7361 150.499L22.7131 151.158L27.3166 151.32L27.3396 150.661L22.7361 150.499Z" fill="#B4BFD6" fill-opacity="0.7"/>
<path d="M285.669 159.697L285.646 160.356L290.249 160.517L290.272 159.858L285.669 159.697Z" fill="#B4BFD6" fill-opacity="0.7"/>
<path d="M27.32 159.689L22.7166 159.85L22.7395 160.509L27.343 160.348L27.32 159.689Z" fill="#B4BFD6" fill-opacity="0.7"/>
<path d="M290.226 150.494L285.622 150.655L285.645 151.314L290.249 151.153L290.226 150.494Z" fill="#B4BFD6" fill-opacity="0.7"/>
<path d="M27.5367 164.192L22.9416 164.514L22.9874 165.172L27.5826 164.85L27.5367 164.192Z" fill="#B4BFD6" fill-opacity="0.7"/>
<path d="M289.985 145.839L285.39 146.161L285.436 146.819L290.031 146.497L289.985 145.839Z" fill="#B4BFD6" fill-opacity="0.7"/>
<path d="M27.9362 168.683L23.3553 169.166L23.4241 169.822L28.005 169.339L27.9362 168.683Z" fill="#B4BFD6" fill-opacity="0.7"/>
<path d="M289.586 141.172L285.005 141.658L285.074 142.314L289.655 141.828L289.586 141.172Z" fill="#B4BFD6" fill-opacity="0.7"/>
<path d="M28.4587 173.143L23.8976 173.788L23.9894 174.441L28.5505 173.797L28.4587 173.143Z" fill="#B4BFD6" fill-opacity="0.7"/>
<path d="M288.962 136.562L284.401 137.206L284.493 137.859L289.054 137.215L288.962 136.562Z" fill="#B4BFD6" fill-opacity="0.7"/>
<path d="M25.6294 183.67L25.5132 183.01L30.0033 182.04L30.1582 182.7L25.6294 183.67Z" fill="#B4BFD6" fill-opacity="0.7"/>
<path d="M282.959 128.96L282.843 128.3L287.333 127.33L287.488 127.99L282.959 128.96Z" fill="#B4BFD6" fill-opacity="0.7"/>
<path d="M31.0151 186.461L26.5461 187.581L26.7056 188.221L31.1746 187.101L31.0151 186.461Z" fill="#B4BFD6" fill-opacity="0.7"/>
<path d="M281.953 124.536L281.798 123.916L286.288 122.79L286.443 123.45L281.953 124.536Z" fill="#B4BFD6" fill-opacity="0.7"/>
<path d="M27.913 192.71L27.7582 192.09L32.1709 190.809L32.3644 191.43L27.913 192.71Z" fill="#B4BFD6" fill-opacity="0.7"/>
<path d="M280.83 120.191L280.637 119.57L285.05 118.289L285.243 118.91L280.83 120.191Z" fill="#B4BFD6" fill-opacity="0.7"/>
<path d="M29.3066 197.173L29.113 196.552L33.487 195.116L33.6806 195.737L29.3066 197.173Z" fill="#B4BFD6" fill-opacity="0.7"/>
<path d="M279.514 115.884L279.282 115.263L283.695 113.827L283.888 114.448L279.514 115.884Z" fill="#B4BFD6" fill-opacity="0.7"/>
<path d="M32.5193 205.942L32.2871 205.321L36.5449 203.614L36.7772 204.234L32.5193 205.942Z" fill="#B4BFD6" fill-opacity="0.7"/>
<path d="M276.456 107.386L276.185 106.765L280.482 105.058L280.714 105.679L276.456 107.386Z" fill="#B4BFD6" fill-opacity="0.7"/>
<path d="M34.3385 210.249L34.0676 209.628L38.2867 207.765L38.5577 208.386L34.3385 210.249Z" fill="#B4BFD6" fill-opacity="0.7"/>
<path d="M274.676 103.234L274.405 102.614L278.624 100.751L278.895 101.372L274.676 103.234Z" fill="#B4BFD6" fill-opacity="0.7"/>
<path d="M36.3513 214.478L36.0416 213.896L40.1834 211.839L40.493 212.46L36.3513 214.478Z" fill="#B4BFD6" fill-opacity="0.7"/>
<path d="M272.779 99.1214L272.508 98.5394L276.65 96.5217L276.921 97.1037L272.779 99.1214Z" fill="#B4BFD6" fill-opacity="0.7"/>
<path d="M38.4802 218.63L38.1705 218.048L42.2349 215.875L42.5445 216.457L38.4802 218.63Z" fill="#B4BFD6" fill-opacity="0.7"/>
<path d="M270.766 95.125L270.457 94.543L274.521 92.3701L274.831 92.9521L270.766 95.125Z" fill="#B4BFD6" fill-opacity="0.7"/>
<path d="M43.1639 226.701L42.8155 226.157L46.725 223.713L47.0734 224.256L43.1639 226.701Z" fill="#B4BFD6" fill-opacity="0.7"/>
<path d="M266.276 87.287L265.928 86.7438L269.837 84.2993L270.186 84.8425L266.276 87.287Z" fill="#B4BFD6" fill-opacity="0.7"/>
<path d="M45.7186 230.619L45.3315 230.076L49.1636 227.515L49.5507 228.059L45.7186 230.619Z" fill="#B4BFD6" fill-opacity="0.7"/>
<path d="M263.799 83.4845L263.451 82.9413L267.283 80.3804L267.631 80.9236L263.799 83.4845Z" fill="#B4BFD6" fill-opacity="0.7"/>
<path d="M48.3895 234.461L48.0024 233.918L51.7571 231.201L52.1442 231.745L48.3895 234.461Z" fill="#B4BFD6" fill-opacity="0.7"/>
<path d="M261.244 79.7983L260.857 79.255L264.573 76.5389L264.96 77.0822L261.244 79.7983Z" fill="#B4BFD6" fill-opacity="0.7"/>
<path d="M51.2151 238.186L50.828 237.642L54.4666 234.81L54.8537 235.314L51.2151 238.186Z" fill="#B4BFD6" fill-opacity="0.7"/>
<path d="M258.535 76.1899L258.109 75.6855L261.747 72.8142L262.173 73.3574L258.535 76.1899Z" fill="#B4BFD6" fill-opacity="0.7"/>
<path d="M57.2537 245.325L56.7892 244.821L60.2342 241.717L60.66 242.221L57.2537 245.325Z" fill="#B4BFD6" fill-opacity="0.7"/>
<path d="M252.767 69.2444L252.303 68.7788L255.748 65.6747L256.173 66.1791L252.767 69.2444Z" fill="#B4BFD6" fill-opacity="0.7"/>
<path d="M60.4277 248.701L59.9632 248.235L63.2921 245.054L63.7566 245.519L60.4277 248.701Z" fill="#B4BFD6" fill-opacity="0.7"/>
<path d="M249.671 65.9463L249.245 65.4806L252.535 62.2601L252.999 62.7646L249.671 65.9463Z" fill="#B4BFD6" fill-opacity="0.7"/>
<path d="M63.7565 251.999L63.292 251.572L66.466 248.235L66.9692 248.701L63.7565 251.999Z" fill="#B4BFD6" fill-opacity="0.7"/>
<path d="M246.497 62.7647L246.032 62.2991L249.245 59.001L249.709 59.4278L246.497 62.7647Z" fill="#B4BFD6" fill-opacity="0.7"/>
<path d="M67.1628 255.181L66.6983 254.754L69.7562 251.339L70.2594 251.766L67.1628 255.181Z" fill="#B4BFD6" fill-opacity="0.7"/>
<path d="M243.206 59.6606L242.703 59.2337L245.8 55.8192L246.303 56.246L243.206 59.6606Z" fill="#B4BFD6" fill-opacity="0.7"/>
<path d="M74.3625 261.195L73.8206 260.768L76.6462 257.159L77.1882 257.547L74.3625 261.195Z" fill="#B4BFD6" fill-opacity="0.7"/>
<path d="M236.316 53.8403L235.813 53.4523L238.639 49.8049L239.142 50.2317L236.316 53.8403Z" fill="#B4BFD6" fill-opacity="0.7"/>
<path d="M78.0783 263.989L77.5364 263.601L80.246 259.876L80.7879 260.264L78.0783 263.989Z" fill="#B4BFD6" fill-opacity="0.7"/>
<path d="M232.716 51.1242L232.174 50.7362L234.884 47.0112L235.426 47.3992L232.716 51.1242Z" fill="#B4BFD6" fill-opacity="0.7"/>
<path d="M81.9105 266.666L81.3686 266.278L83.962 262.475L84.504 262.824L81.9105 266.666Z" fill="#B4BFD6" fill-opacity="0.7"/>
<path d="M229.039 48.5244L228.497 48.1752L231.052 44.3339L231.594 44.7219L229.039 48.5244Z" fill="#B4BFD6" fill-opacity="0.7"/>
<path d="M85.8587 269.188L85.278 268.839L87.7167 264.92L88.2973 265.269L85.8587 269.188Z" fill="#B4BFD6" fill-opacity="0.7"/>
<path d="M225.246 46.08L224.704 45.7308L227.143 41.8119L227.684 42.1611L225.246 46.08Z" fill="#B4BFD6" fill-opacity="0.7"/>
<path d="M93.9487 273.844L93.3681 273.534L95.5357 269.46L96.1163 269.77L93.9487 273.844Z" fill="#B4BFD6" fill-opacity="0.7"/>
<path d="M217.466 41.5401L216.885 41.2297L219.053 37.1555L219.633 37.4659L217.466 41.5401Z" fill="#B4BFD6" fill-opacity="0.7"/>
<path d="M98.1291 275.939L97.5097 275.668L99.5226 271.516L100.142 271.826L98.1291 275.939Z" fill="#B4BFD6" fill-opacity="0.7"/>
<path d="M213.44 39.4838L212.859 39.1734L214.872 35.0604L215.453 35.332L213.44 39.4838Z" fill="#B4BFD6" fill-opacity="0.7"/>
<path d="M102.348 277.918L101.768 277.647L103.626 273.417L104.245 273.689L102.348 277.918Z" fill="#B4BFD6" fill-opacity="0.7"/>
<path d="M209.376 37.5436L208.756 37.3108L210.614 33.0814L211.234 33.353L209.376 37.5436Z" fill="#B4BFD6" fill-opacity="0.7"/>
<path d="M106.645 279.742L106.064 279.47L107.767 275.202L108.387 275.474L106.645 279.742Z" fill="#B4BFD6" fill-opacity="0.7"/>
<path d="M205.195 35.7978L204.614 35.5262L206.318 31.2581L206.937 31.5297L205.195 35.7978Z" fill="#B4BFD6" fill-opacity="0.7"/>
<path d="M115.431 282.885L114.812 282.691L116.244 278.306L116.864 278.5L115.431 282.885Z" fill="#B4BFD6" fill-opacity="0.7"/>
<path d="M196.757 32.6935L196.099 32.4607L197.531 28.0762L198.15 28.309L196.757 32.6935Z" fill="#B4BFD6" fill-opacity="0.7"/>
<path d="M119.922 284.243L119.264 284.088L120.541 279.664L121.199 279.819L119.922 284.243Z" fill="#B4BFD6" fill-opacity="0.7"/>
<path d="M192.421 31.3354L191.802 31.1802L193.08 26.7568L193.699 26.912L192.421 31.3354Z" fill="#B4BFD6" fill-opacity="0.7"/>
<path d="M124.45 285.446L123.792 285.29L124.915 280.828L125.534 280.983L124.45 285.446Z" fill="#B4BFD6" fill-opacity="0.7"/>
<path d="M188.086 30.1714L187.428 30.0162L188.551 25.5541L189.209 25.7093L188.086 30.1714Z" fill="#B4BFD6" fill-opacity="0.7"/>
<path d="M129.317 281.837L128.36 286.354L129.004 286.491L129.961 281.974L129.317 281.837Z" fill="#B4BFD6" fill-opacity="0.7"/>
<path d="M183.673 29.1626L183.054 29.0074L183.983 24.5065L184.641 24.6229L183.673 29.1626Z" fill="#B4BFD6" fill-opacity="0.7"/>
<path d="M138.183 283.444L137.543 288.017L138.195 288.108L138.835 283.536L138.183 283.444Z" fill="#B4BFD6" fill-opacity="0.7"/>
<path d="M174.784 22.9047L174.144 27.4773L174.795 27.5689L175.435 22.9963L174.784 22.9047Z" fill="#B4BFD6" fill-opacity="0.7"/>
<path d="M142.661 283.995L142.181 288.588L142.835 288.656L143.315 284.064L142.661 283.995Z" fill="#B4BFD6" fill-opacity="0.7"/>
<path d="M170.169 22.3133L169.689 26.9058L170.344 26.9745L170.824 22.3821L170.169 22.3133Z" fill="#B4BFD6" fill-opacity="0.7"/>
<path d="M147.132 284.404L146.812 289.011L147.468 289.056L147.788 284.45L147.132 284.404Z" fill="#B4BFD6" fill-opacity="0.7"/>
<path d="M165.483 21.9516L165.163 26.5579L165.82 26.6037L166.139 21.9974L165.483 21.9516Z" fill="#B4BFD6" fill-opacity="0.7"/>
<path d="M151.666 284.634L151.506 289.249L152.163 289.271L152.323 284.657L151.666 284.634Z" fill="#B4BFD6" fill-opacity="0.7"/>
<path d="M160.826 21.7008L160.663 26.3154L161.321 26.3387L161.483 21.7241L160.826 21.7008Z" fill="#B4BFD6" fill-opacity="0.7"/>
<defs>
<filter id="filter0_i" x="1" y="0" width="311" height="315" filterUnits="userSpaceOnUse" color-interpolation-filters="sRGB">
<feFlood flood-opacity="0" result="BackgroundImageFix"/>
<feBlend mode="normal" in="SourceGraphic" in2="BackgroundImageFix" result="shape"/>
<feColorMatrix in="SourceAlpha" type="matrix" values="0 0 0 0 0 0 0 0 0 0 0 0 0 0 0 0 0 0 127 0" result="hardAlpha"/>
<feOffset dy="4"/>
<feGaussianBlur stdDeviation="2"/>
<feComposite in2="hardAlpha" operator="arithmetic" k2="-1" k3="1"/>
<feColorMatrix type="matrix" values="0 0 0 0 0 0 0 0 0 0 0 0 0 0 0 0 0 0 0.25 0"/>
<feBlend mode="screen" in2="shape" result="effect1_innerShadow"/>
</filter>
</defs>
</svg>
