<svg width="41" height="33" viewBox="0 0 41 33" fill="none" xmlns="http://www.w3.org/2000/svg">
<path d="M15.6357 0.702148C12.0916 0.702148 8.96447 2.38725 6.94922 4.91491C8.96447 7.44257 12.0916 9.12768 15.6357 9.12768C19.1797 9.12768 22.3068 7.44257 24.3221 4.91491C22.3068 2.38725 19.1797 0.702148 15.6357 0.702148Z" stroke="#698FBF" stroke-width="1.3" stroke-miterlimit="10" stroke-linecap="round" stroke-linejoin="round"/>
<path d="M6.94906 4.91486L0.694824 1.26379V8.56592L6.94906 4.91486Z" stroke="#698FBF" stroke-width="1.3" stroke-miterlimit="10" stroke-linecap="round" stroke-linejoin="round"/>
<path d="M19.4576 4.91487C19.8414 4.91487 20.1525 4.60052 20.1525 4.21275C20.1525 3.82497 19.8414 3.51062 19.4576 3.51062C19.0738 3.51062 18.7627 3.82497 18.7627 4.21275C18.7627 4.60052 19.0738 4.91487 19.4576 4.91487Z" fill="#698FBF"/>
<path d="M31.6186 11.9362C28.0745 11.9362 24.9474 13.6213 22.9321 16.1489C24.9474 18.6766 28.0745 20.3617 31.6186 20.3617C35.1626 20.3617 38.2898 18.6766 40.305 16.1489C38.2898 13.6213 35.1626 11.9362 31.6186 11.9362Z" stroke="#698FBF" stroke-width="1.3" stroke-miterlimit="10" stroke-linecap="round" stroke-linejoin="round"/>
<path d="M22.9322 16.1489L16.678 12.4978V19.7999L22.9322 16.1489Z" stroke="#698FBF" stroke-width="1.3" stroke-miterlimit="10" stroke-linecap="round" stroke-linejoin="round"/>
<path d="M35.4408 16.1489C35.8246 16.1489 36.1357 15.8345 36.1357 15.4468C36.1357 15.059 35.8246 14.7446 35.4408 14.7446C35.057 14.7446 34.7458 15.059 34.7458 15.4468C34.7458 15.8345 35.057 16.1489 35.4408 16.1489Z" fill="#698FBF"/>
<path d="M16.3305 23.8723C12.7864 23.8723 9.6593 25.5574 7.64404 28.0851C9.6593 30.6127 12.7864 32.2978 16.3305 32.2978C19.8746 32.2978 23.0017 30.6127 25.0169 28.0851C23.0017 25.5574 19.8746 23.8723 16.3305 23.8723Z" stroke="#698FBF" stroke-width="1.3" stroke-miterlimit="10" stroke-linecap="round" stroke-linejoin="round"/>
<path d="M7.64413 28.0851L1.38989 24.4341V31.7362L7.64413 28.0851Z" stroke="#698FBF" stroke-width="1.3" stroke-miterlimit="10" stroke-linecap="round" stroke-linejoin="round"/>
<path d="M20.1524 28.0852C20.5362 28.0852 20.8474 27.7708 20.8474 27.383C20.8474 26.9953 20.5362 26.6809 20.1524 26.6809C19.7686 26.6809 19.4575 26.9953 19.4575 27.383C19.4575 27.7708 19.7686 28.0852 20.1524 28.0852Z" fill="#698FBF"/>
</svg>
