<svg width="18" height="16" viewBox="0 0 18 16" fill="none" xmlns="http://www.w3.org/2000/svg">
<path d="M8.99997 9.72496C9.4826 9.72496 9.87385 9.33371 9.87385 8.85107V7.01804C9.87385 6.53541 9.4826 6.14416 8.99997 6.14416V6.14416C8.51733 6.14416 8.12608 6.53541 8.12608 7.01805V8.85108C8.12608 9.33371 8.51733 9.72496 8.99997 9.72496V9.72496ZM8.99997 13.2631C9.4826 13.2631 9.87385 12.8719 9.87385 12.3892V12.3466C9.87385 11.864 9.4826 11.4727 8.99997 11.4727V11.4727C8.51733 11.4727 8.12608 11.864 8.12608 12.3466V12.3892C8.12608 12.8719 8.51733 13.2631 8.99997 13.2631V13.2631ZM1.06732 15.9274C0.245902 15.9274 -0.266739 15.0373 0.145554 14.3268L8.0782 0.655838C8.48893 -0.0519459 9.51105 -0.0519459 9.92178 0.655838L17.8544 14.3268C18.2667 15.0373 17.7541 15.9274 16.9327 15.9274H1.06732Z" fill="#F9B402"/>
</svg>
