<svg width="27" height="32" viewBox="0 0 27 32" fill="none" xmlns="http://www.w3.org/2000/svg">
<path fill-rule="evenodd" clip-rule="evenodd" d="M9.1043 21.7577C9.1043 20.3398 6.80233 16.3074 6.51483 16.3074C6.22733 16.3074 3.92535 20.3398 3.92535 21.7577C3.92535 23.1755 5.08522 24.3253 6.51483 24.3253C7.94509 24.3253 9.1043 23.1755 9.1043 21.7577Z" stroke="#638BC2" stroke-width="1.1" stroke-linecap="round" stroke-linejoin="round"/>
<path fill-rule="evenodd" clip-rule="evenodd" d="M15.7218 15.9263C15.7218 14.5085 13.4205 10.4761 13.1323 10.4761C12.8448 10.4761 10.5428 14.5085 10.5428 15.9263C10.5428 17.3441 11.7027 18.4939 13.1323 18.4939C14.5626 18.4939 15.7218 17.3441 15.7218 15.9263Z" stroke="#638BC2" stroke-width="1.1" stroke-linecap="round" stroke-linejoin="round"/>
<path fill-rule="evenodd" clip-rule="evenodd" d="M14.9867 28.3176C14.9867 26.8998 12.6848 22.8674 12.3966 22.8674C12.1091 22.8674 9.8078 26.8998 9.8078 28.3176C9.8078 29.7354 10.967 30.8852 12.3966 30.8852C13.8269 30.8852 14.9867 29.7354 14.9867 28.3176Z" stroke="#638BC2" stroke-width="1.1" stroke-linecap="round" stroke-linejoin="round"/>
<path fill-rule="evenodd" clip-rule="evenodd" d="M22.3399 21.7577C22.3399 20.3398 20.0379 16.3074 19.7498 16.3074C19.4623 16.3074 17.1603 20.3398 17.1603 21.7577C17.1603 23.1755 18.3201 24.3253 19.7498 24.3253C21.18 24.3253 22.3399 23.1755 22.3399 21.7577Z" stroke="#638BC2" stroke-width="1.1" stroke-linecap="round" stroke-linejoin="round"/>
<path d="M7.71842 11.2043H6.14671C3.30461 11.2043 1 8.92043 1 6.10238C1 3.28369 3.30461 1.00043 6.14671 1.00043H20.8533C23.6954 1.00043 26 3.28369 26 6.10238C26 8.92043 23.6954 11.2043 20.8533 11.2043H17.9257" stroke="#638BC2" stroke-width="1.1" stroke-linecap="round" stroke-linejoin="round"/>
</svg>
