<svg width="38" height="29" viewBox="0 0 38 29" fill="none" xmlns="http://www.w3.org/2000/svg">
<path d="M28.5377 23.232C28.5377 20.5894 26.4221 18.4639 23.7919 18.4639C23.3345 18.4639 22.877 18.5213 22.4196 18.6937C22.4768 18.2341 22.534 17.8319 22.534 17.3724C22.534 13.4085 19.332 10.2489 15.4439 10.2489C11.7845 10.2489 8.75406 13.0638 8.35382 16.6256C8.01075 16.5681 7.66768 16.5107 7.32461 16.5107C4.17982 16.5107 1.60681 19.0958 1.60681 22.2554C1.60681 25.3575 4.06547 27.8852 7.0959 28.0001H24.0778C26.5364 27.8278 28.5377 25.7597 28.5377 23.232Z" stroke="white" stroke-width="1.3" stroke-miterlimit="10" stroke-linecap="round" stroke-linejoin="round"/>
<path d="M28.2519 20.9345C30.4246 19.4983 31.8541 17.028 31.8541 14.2131C31.8541 9.78968 28.2519 6.1705 23.8492 6.1705C21.1046 6.1705 18.646 7.54924 17.2165 9.73224" stroke="white" stroke-width="1.3" stroke-miterlimit="10" stroke-linecap="round" stroke-linejoin="round"/>
<path d="M23.8492 3.87237V1" stroke="white" stroke-width="1.3" stroke-miterlimit="10" stroke-linecap="round" stroke-linejoin="round"/>
<path d="M37 13.6383H34.1411" stroke="white" stroke-width="1.3" stroke-miterlimit="10" stroke-linecap="round" stroke-linejoin="round"/>
<path d="M31.2822 6.74476L33.2834 4.7341" stroke="white" stroke-width="1.3" stroke-miterlimit="10" stroke-linecap="round" stroke-linejoin="round"/>
<path d="M33.2834 23.9791L31.2822 21.9684" stroke="white" stroke-width="1.3" stroke-miterlimit="10" stroke-linecap="round" stroke-linejoin="round"/>
<path d="M16.4161 7.0322L14.4148 5.02155" stroke="white" stroke-width="1.3" stroke-miterlimit="10" stroke-linecap="round" stroke-linejoin="round"/>
<path d="M6.83354 19.4025C5.80433 19.8046 4.94666 20.6089 4.48924 21.6429" stroke="white" stroke-width="1.3" stroke-miterlimit="10" stroke-linecap="round" stroke-linejoin="round"/>
</svg>
