<svg width="69" height="40" viewBox="0 0 69 40" fill="none" xmlns="http://www.w3.org/2000/svg">
<path d="M49.709 35H59.009C63.809 34.7 67.609 30.8 67.609 25.9C67.609 20.9 63.509 16.8 58.509 16.8C57.609 16.8 56.709 16.9 55.909 17.2C56.109 16.4 56.109 15.5 56.109 14.7C56.109 7.2 50.009 1 42.409 1C35.409 1 29.609 6.3 28.809 13.2C28.209 13.1 27.509 13 26.809 13C21.709 13 17.409 16.5 16.209 21.2" stroke="#064390" stroke-width="2" stroke-miterlimit="10" stroke-linecap="round" stroke-linejoin="round"/>
<path d="M1.70898 25.1H37.409C39.509 25.1 41.209 23.4 41.209 21.3C41.209 19.2 39.509 17.5 37.409 17.5H34.609" stroke="#064390" stroke-width="2" stroke-miterlimit="10" stroke-linecap="round" stroke-linejoin="round"/>
<path d="M6.10889 28.4004H24.7089" stroke="#064390" stroke-width="2" stroke-miterlimit="10" stroke-linecap="round" stroke-linejoin="round"/>
<path d="M29.1089 28.4004H42.1089C44.0089 28.4004 45.6089 30.1004 45.6089 32.2004C45.6089 34.3004 44.0089 36.0004 42.1089 36.0004H39.0089" stroke="#064390" stroke-width="2" stroke-miterlimit="10" stroke-linecap="round" stroke-linejoin="round"/>
<path d="M10.5088 31.7002H30.2088C32.0088 31.7002 33.5088 33.2002 33.5088 35.0002C33.5088 36.8002 32.0088 38.3002 30.2088 38.3002H28.0088" stroke="#064390" stroke-width="2" stroke-miterlimit="10" stroke-linecap="round" stroke-linejoin="round"/>
</svg>
