<svg width="35" height="20" viewBox="0 0 35 20" fill="none" xmlns="http://www.w3.org/2000/svg">
<path d="M25.209 17.7778H29.992C32.4679 17.6667 34.4373 15.6667 34.4373 13.1667C34.4373 10.6111 32.3553 8.55554 29.7669 8.55554C29.3167 8.55554 28.8666 8.6111 28.4164 8.77776C28.4727 8.33332 28.5289 7.94443 28.5289 7.49999C28.5289 3.66665 25.3778 0.555542 21.4952 0.555542C17.8939 0.555542 14.9116 3.27776 14.5177 6.72221C14.1801 6.66665 13.8425 6.6111 13.5048 6.6111C10.9164 6.6111 8.6656 8.38888 8.04663 10.7222" stroke="#638BC2" stroke-miterlimit="10" stroke-linecap="round" stroke-linejoin="round"/>
<path d="M0.562744 12.7778H18.8505C19.9197 12.7778 20.82 11.8889 20.82 10.8334C20.82 9.7778 19.9197 8.88892 18.8505 8.88892H17.4438" stroke="#638BC2" stroke-miterlimit="10" stroke-linecap="round" stroke-linejoin="round"/>
<path d="M2.81348 14.4445H12.3794" stroke="#638BC2" stroke-miterlimit="10" stroke-linecap="round" stroke-linejoin="round"/>
<path d="M14.6302 14.4445H21.2701C22.283 14.4445 23.0708 15.3333 23.0708 16.3889C23.0708 17.4445 22.283 18.3333 21.2701 18.3333H19.6946" stroke="#638BC2" stroke-miterlimit="10" stroke-linecap="round" stroke-linejoin="round"/>
<path d="M5.06433 16.1111H15.1929C16.1495 16.1111 16.8811 16.8333 16.8811 17.7778C16.8811 18.7222 16.1495 19.4444 15.1929 19.4444H14.0675" stroke="#638BC2" stroke-miterlimit="10" stroke-linecap="round" stroke-linejoin="round"/>
</svg>
